<svg width="24" height="25" viewBox="0 0 24 25" fill="none" xmlns="http://www.w3.org/2000/svg">
<g id="vuesax/bulk/clock">
<g id="clock">
<path id="Vector" opacity="0.4" d="M12 22.5C17.5228 22.5 22 18.0228 22 12.5C22 6.97715 17.5228 2.5 12 2.5C6.47715 2.5 2 6.97715 2 12.5C2 18.0228 6.47715 22.5 12 22.5Z" fill="#0036C2"/>
<path id="Vector_2" d="M15.71 16.43C15.58 16.43 15.45 16.4 15.33 16.32L12.23 14.47C11.46 14.01 10.89 13 10.89 12.11V8.01C10.89 7.6 11.23 7.26 11.64 7.26C12.05 7.26 12.39 7.6 12.39 8.01V12.11C12.39 12.47 12.69 13 13 13.18L16.1 15.03C16.46 15.24 16.57 15.7 16.36 16.06C16.21 16.3 15.96 16.43 15.71 16.43Z" fill="#0036C2"/>
</g>
</g>
</svg>
