<svg width="41" height="41" viewBox="0 0 41 41" fill="none" xmlns="http://www.w3.org/2000/svg">
<g id="flaticon-6116722-7-days 3" clip-path="url(#clip0_85_741)">
<g id="Group">
<path id="bg" d="M0.557745 0.5H0.5V0.557745H0.557745V0.5Z" fill="white"/>
</g>
<g id="Group_2">
<g id="g1785">
<g id="g1787">
<path id="path1789" d="M18.3508 8.85938H23.5083L19.3872 18.2344" stroke="black" stroke-width="2.3098" stroke-miterlimit="10" stroke-linecap="round" stroke-linejoin="round"/>
</g>
<g id="g1791">
<g id="g1793">
<g id="g1799">
<path id="path1801" d="M15.5127 29.7969L18.1529 22.8646C18.2068 22.7327 18.3936 22.7326 18.4478 22.8643L21.064 29.7969" stroke="black" stroke-width="1.92483" stroke-miterlimit="10" stroke-linecap="round" stroke-linejoin="round"/>
</g>
<g id="g1803">
<path id="path1805" d="M16.3359 28.0703H20.2537" stroke="black" stroke-width="1.92483" stroke-miterlimit="10" stroke-linecap="round" stroke-linejoin="round"/>
</g>
<g id="g1807">
<path id="path1809" d="M13.2212 26.2813C13.2212 28.2186 12.1459 29.7516 10.44 29.7814C9.87218 29.7913 8.4046 29.7969 8.4046 29.7969C8.4046 29.7969 8.39546 27.2501 8.39546 26.2735C8.39546 25.4715 8.39038 22.7656 8.39038 22.7656H10.3817C12.2529 22.7656 13.2212 24.3439 13.2212 26.2813Z" stroke="black" stroke-width="1.92483" stroke-miterlimit="10" stroke-linecap="round" stroke-linejoin="round"/>
</g>
<g id="g1811">
<path id="path1813" d="M22.1404 22.7655L24.3863 26.2051L26.6137 22.7833" stroke="black" stroke-width="1.92483" stroke-miterlimit="10" stroke-linecap="round" stroke-linejoin="round"/>
</g>
<g id="g1815">
<path id="path1817" d="M24.3777 29.7969L24.3865 26.2052" stroke="black" stroke-width="1.92483" stroke-miterlimit="10" stroke-linecap="round" stroke-linejoin="round"/>
</g>
<g id="g1819">
<path id="path1821" d="M33.1586 23.5027C33.0587 23.3159 31.8998 22.4446 30.4153 22.8917C29.0523 23.3023 28.8617 24.874 29.8477 25.517C29.8477 25.517 30.8153 25.9486 31.8886 26.3445C34.4721 27.2975 33.3592 29.7969 31.2794 29.7969C30.2379 29.7969 29.3638 29.3408 28.8347 28.757" stroke="black" stroke-width="1.92483" stroke-miterlimit="10" stroke-linecap="round" stroke-linejoin="round"/>
</g>
<g id="g1823">
<path id="path1825" d="M1.66699 7.18176H7.19129V12.7061" stroke="black" stroke-width="2.3098" stroke-miterlimit="10" stroke-linecap="round" stroke-linejoin="round"/>
</g>
<g id="g1827">
<path id="path1829" d="M20.5046 1.667C30.9032 1.667 39.3328 10.0966 39.3328 20.4951C39.3328 30.8936 30.9032 39.3232 20.5046 39.3232C10.1061 39.3232 1.67651 30.8936 1.67651 20.4951C1.67651 10.0966 10.1061 1.667 20.5046 1.667Z" stroke="black" stroke-width="2.3098" stroke-miterlimit="10" stroke-linecap="round" stroke-linejoin="round"/>
</g>
</g>
</g>
</g>
</g>
</g>
<defs>
<clipPath id="clip0_85_741">
<rect width="40" height="40" fill="white" transform="translate(0.5 0.5)"/>
</clipPath>
</defs>
</svg>
