<svg width="81" height="83" viewBox="0 0 81 83" fill="none" xmlns="http://www.w3.org/2000/svg">
<g id="Arrow 06" clip-path="url(#clip0_637_3098)">
<path id="Arrow 06_2" d="M10.0217 65.7065C12.5398 67.2043 14.954 68.7047 17.7342 70.3521C16.2491 71.5822 14.6391 71.5687 13.3827 70.9755C9.61358 69.196 5.84271 67.3126 2.27419 65.1127C0.227735 63.8633 0.503947 61.7792 2.61369 60.638C6.11174 58.6846 9.71714 56.9364 13.3208 55.0844C13.5266 54.9756 13.7835 54.8136 13.9402 54.8618C14.5648 54.9507 15.1402 55.1967 15.7666 55.3894C15.5678 55.9135 15.5801 56.6404 15.2212 56.9086C13.9912 57.8729 12.7067 58.6827 11.475 59.5432C10.8082 60.0265 10.1395 60.4061 9.58702 61.51C10.7818 61.5333 12.0294 61.6074 13.2241 61.6307C37.9325 61.0397 58.7888 44.5961 65.3938 20.703C66.2243 17.6189 66.6905 14.4915 67.3644 11.3592C67.6054 10.2628 67.8992 9.21701 68.1403 8.12057C68.399 8.06244 68.6594 8.10815 68.918 8.05003C69.2401 8.66556 69.8225 9.32681 69.782 10.003C69.768 12.2366 69.754 14.4702 69.4285 16.7113C66.2758 39.0156 49.0408 57.7096 26.3367 63.1868C21.9923 64.2256 17.4789 64.4893 13.0746 65.0621C12.142 65.1883 11.2587 65.1575 10.3244 65.1798C10.1695 65.2355 10.0692 65.4456 10.0217 65.7065Z" fill="#48AE42"/>
</g>
<defs>
<clipPath id="clip0_637_3098">
<rect width="87.41" height="28.208" fill="white" transform="translate(0 63.0586) rotate(-46.1712)"/>
</clipPath>
</defs>
</svg>
