<svg width="20" height="20" viewBox="0 0 20 20" fill="none" xmlns="http://www.w3.org/2000/svg">
<path d="M13.71 10.7099C14.6904 9.93854 15.406 8.8808 15.7572 7.68382C16.1085 6.48684 16.0779 5.21015 15.6698 4.03135C15.2617 2.85255 14.4963 1.83027 13.4801 1.10674C12.4639 0.3832 11.2474 -0.00561523 10 -0.00561523C8.75255 -0.00561523 7.53611 0.3832 6.51993 1.10674C5.50374 1.83027 4.73834 2.85255 4.33021 4.03135C3.92208 5.21015 3.89151 6.48684 4.24276 7.68382C4.59401 8.8808 5.3096 9.93854 6.29 10.7099C4.61007 11.3829 3.14428 12.4992 2.04889 13.9398C0.953495 15.3804 0.26956 17.0912 0.0699967 18.8899C0.0555513 19.0212 0.0671132 19.1541 0.104022 19.2809C0.140931 19.4078 0.202464 19.5261 0.285108 19.6292C0.452016 19.8374 0.69478 19.9707 0.959997 19.9999C1.22521 20.0291 1.49116 19.9517 1.69932 19.7848C1.90749 19.6179 2.04082 19.3751 2.07 19.1099C2.28958 17.1551 3.22168 15.3497 4.68822 14.0387C6.15475 12.7277 8.0529 12.0029 10.02 12.0029C11.9871 12.0029 13.8852 12.7277 15.3518 14.0387C16.8183 15.3497 17.7504 17.1551 17.97 19.1099C17.9972 19.3556 18.1144 19.5825 18.2991 19.7469C18.4838 19.9113 18.7228 20.0014 18.97 19.9999H19.08C19.3421 19.9697 19.5817 19.8372 19.7466 19.6311C19.9114 19.4251 19.9881 19.1622 19.96 18.8999C19.7595 17.0961 19.0719 15.3809 17.9708 13.9381C16.8698 12.4953 15.3969 11.3794 13.71 10.7099ZM10 9.99988C9.20887 9.99988 8.43551 9.76528 7.77772 9.32576C7.11992 8.88623 6.60723 8.26152 6.30448 7.53061C6.00173 6.79971 5.92251 5.99544 6.07686 5.21952C6.2312 4.4436 6.61216 3.73086 7.17157 3.17145C7.73098 2.61204 8.44371 2.23108 9.21964 2.07674C9.99556 1.9224 10.7998 2.00161 11.5307 2.30436C12.2616 2.60711 12.8863 3.1198 13.3259 3.7776C13.7654 4.4354 14 5.20876 14 5.99988C14 7.06075 13.5786 8.07816 12.8284 8.82831C12.0783 9.57845 11.0609 9.99988 10 9.99988Z" fill="black"/>
</svg>
