<?xml version="1.0" encoding="UTF-8"?>
<svg id="Layer_1" xmlns="http://www.w3.org/2000/svg" version="1.1" xmlns:xlink="http://www.w3.org/1999/xlink" viewBox="0 0 368.5 360.6">
  <!-- Generator: Adobe Illustrator 29.0.1, SVG Export Plug-In . SVG Version: 2.1.0 Build 192)  -->
  <defs>
    <style>
      .st0 {
        fill: #c28f60;
      }

      .st0, .st1, .st2, .st3 {
        fill-rule: evenodd;
      }

      .st1 {
        fill: #d2a06d;
      }

      .st2, .st4 {
        fill: #654730;
      }

      .st3 {
        fill: #aa7950;
      }

      .st5 {
        fill: url(#linear-gradient);
      }
    </style>
    <linearGradient id="linear-gradient" x1="24.7" y1="151.6" x2="89.8" y2="151.6" gradientUnits="userSpaceOnUse">
      <stop offset="0" stop-color="#135407"/>
      <stop offset="1" stop-color="#26c020"/>
    </linearGradient>
  </defs>
  <g id="Layer_11" data-name="Layer_1">
    <polygon class="st0" points="174.9 111.3 192.2 111.3 192.2 355 184 361.3 174.9 358 174.9 111.3"/>
    <path class="st3" d="M182.8,0L4.6,58.4c.5,0,.3,1.7.8,1.7,2,0,3-.2,4.1,1.3l1.7.9,15.9,2.2,158.9,50h.3l167.3-53.1,8.2-1.3c.7-.3,2.3-1.9,3.1-1.9L186.7,0c-1.2-.5-2.6-.6-3.9,0h0Z"/>
    <path class="st0" d="M.2,64v230.2c0,2.6,1.7,4.8,4.1,5.5l178.1,61.1c.3.1.6.2.8.3h.4l2-246.9C166.3,108.1,10.2,56.6,4.2,58.1h0c-.7.2-1.3.5-1.9.9-.7.5-1.3,1.2-1.7,2-.2.3-.3.6-.4.9,0,.3-.2.6-.2.9h0v.9h0l.2.3Z"/>
    <g>
      <g>
        <path class="st2" d="M23.8,277.5c.6,0,1.2.4,1.8.7h0v10.8c.3.2.5.5.5.8v5c0,.5-.2.9-.7.9h-1.1c-.5-.2-1-.6-1.1-1.2v-5c0-.5,0-.9.5-.9v-11.2h0ZM23.8,267v-1.4c0-.5.4-.8.9-.6.5.2.9.7.9,1.3v1.4h0c-.6-.2-1.2-.4-1.8-.6h0Z"/>
        <path class="st2" d="M15.6,268.1c-2,1.2-3.4,3.3-3.8,6,1.7-1.2,4.7-.4,6.9,1.7.7.7,1.2,1.4,1.6,2.2.9-1.2,2.7-1.4,4.5-.8h.2c1,.4,1.9,1.1,2.7,1.8.6.6,1.2,1.4,1.5,2.1.9-1.2,2.7-1.4,4.5-.8,1.5.6,3,1.7,4,3.1-.4-3.1-1.8-6.2-3.9-8.9-5.1-6.8-13.2-9.8-18.3-6.6v.2Z"/>
      </g>
      <g>
        <polygon class="st2" points="54.9 300.2 54.9 287.8 58.7 289.2 50.7 276.4 42.8 283.5 46.6 284.9 46.6 297.3 54.9 300.2"/>
        <polygon class="st2" points="72.1 306.3 72.1 293.9 75.9 295.3 68 282.6 60 289.7 63.8 291 63.8 303.4 72.1 306.3"/>
      </g>
      <polygon class="st2" points="46.7 300.7 46.7 302.7 72 311.9 72 309.8 46.7 300.7"/>
    </g>
    <path class="st1" d="M185.8,128.1l-1.9,233.2c.2,0,2.1-.6,2.4-.7l178.1-61.1c2.4-.7,4.1-2.9,4.1-5.5V63.6c0-1.2-.4-2.3-1-3.3-1-1.5-2.8-2.5-4.7-2.5h0c-.8,0-1.5.2-2.2.4-98.8,31.9-93.7,30.2-174.4,56.3h-.3v13.6q-.1,0,0,0Z"/>
    <polygon class="st2" points="258.9 131.7 258.9 131.7 260.9 127.7 264.9 129.8 267 125.8 271 127.9 273.1 123.9 277.1 126 279.1 122 283.1 124 285.2 120 289.2 122.1 291.3 118.1 295.3 120.2 297.4 116.2 301.4 118.3 303.4 114.3 303.5 114.3 301.8 76.6 272.7 67.3 123.9 20 82.5 33.5 257.1 91.6 258.9 131.7"/>
    <polygon class="st2" points="307.4 276.6 349.8 263.6 349.8 280.6 307.4 293.6 307.4 276.6"/>
    <polygon class="st2" points="307.4 252.7 349.8 239.7 349.8 256.6 307.4 269.7 307.4 252.7"/>
  </g>
  <path class="st5" d="M85.5,120c3.3-.7,4.7,2.6,4.2,5.4-.8,4.7-11.1,21.3-14.1,26.4s-5.6,9.4-8.5,14c-6.5,10.1-16,26.1-28.3,11.9-5.1-5.9-15.1-27.9-14.1-35.3s3-3.7,5-1.8c5.1,6.3,8.9,13.8,14.4,19.8s2.4,2.7,3.1,2.5c9-8.6,17.6-17.7,25.2-27.6s9.4-14.4,13-15.2Z"/>
  <path class="st4" d="M82.3,176.4c-1,2.9-6.5,17.7-21.2,22.2-10,3-18.8-.4-21.6-1.5-18.8-7.9-29.5-30.4-26.1-50.2,2.3-13.6,11.2-23.8,22.6-27.2,10.5-3.1,20.7,1.1,22.4,1.8,4.6,2,7.9,4.5,10,6.4-1.4,1.8-2.9,3.6-4.3,5.5-5.2-3.5-10.6-6.7-17-7.2-24.8-1.8-33.4,26.1-24.7,45.7,8.3,18.5,29.1,25.6,42.6,17.1,4.9-3.1,9.6-10.2,11.5-17.7.7-2.9.9-5.4.9-7.2,1.8-3.4,3.6-6.7,5.5-10.1,1,3.7,2.9,12.5-.6,22.5Z"/>
  <path class="st4" d="M58,242.8l33.4,7.8c2.3.2,4-.2,5.7-1.8s2-4.1,2.2-6.8.1-6.4.3-9.4c.9,0,3.6,0,3.9,1.1-1,5.7,1,14.4-4.1,18.5s-5.6,2.4-8.8,1.9c-11.4-1.9-23.1-6.2-34.6-8.3-1.8-.5-2.9,2.3-4,2.9s-2.8-1.6-2.7-2.3,1.5-1,1-1.7-3.9-1.6-4.9-2.3c-5-3.5-8.2-11.7-4.4-17.1,7.2-10.2,23.1,2.5,18.9,13.9s-1.6,2.4-2,3.8ZM47.5,225.2c-9.4,1.6-3.2,18.9,6.2,15.5s2.5-16.9-6.2-15.5Z"/>
  <path class="st4" d="M138.9,265.6c-9.3-1.3-16.9-13.9-9.7-21.6s19.4-1.7,22.3,6.7-4.6,13.5-10.6,19.4c-1.5.9-2.7-.9-3.4-2-.4-.8,1.9-2,1.5-2.5ZM136.5,244.7c-10.7,1.7-6.2,18.6,5.3,17.3s6.3-19.1-5.3-17.3Z"/>
  <path class="st4" d="M19.1,216.9c0,.1.5.5.6.4l4.4-5.4,2.2,2-.9,2.5c4.8.9,9,5.2,10.3,10,2.5,9.6-5.6,16.2-14,10.1s-5.7-13.7-5.9-21.1,0-3.5,0-5.3l2.8.3c.2,0,.5.6.5.7,0,1.3-.3,4.7,0,5.7ZM24.1,219.8c-1.9.1-3.6,1.5-4.4,3.2-3.4,7.2,6.5,16.3,11.7,10.8s-1-14.5-7.4-14Z"/>
  <path class="st4" d="M120.3,236.8c.7-.2,3.7.4,3.4,1.6-1.1,5.2.4,12.4-3,16.8s-9.5,4.6-14.4,2.1-3.9-2.2-1.3-4.6c3.3,1.7,6.2,3.5,10,1.9s4.1-10,4.5-14.7.3-2.9.8-3.1Z"/>
  <path class="st4" d="M82.2,228.8c2.8-.5,4.9,4,1.6,5.2-3,.5-4.7-4.7-1.6-5.2Z"/>
  <path class="st4" d="M75.6,227.6c2.8-.8,5.1,3.6,2.4,4.8s-5.3-4-2.4-4.8Z"/>
</svg>