<svg width="64" height="64" viewBox="0 0 64 64" fill="none" xmlns="http://www.w3.org/2000/svg">
<path fill-rule="evenodd" clip-rule="evenodd" d="M18.6165 11.8431C18.6165 11.4215 18.6165 11.2107 18.4783 11.0897C18.3401 10.9687 18.1354 10.996 17.7259 11.0506C14.8805 11.4299 12.871 12.1841 11.3124 13.6834C11.212 13.7801 11.1134 13.8786 11.0168 13.9791C8 17.115 8 22.0767 8 32C8 41.9233 8 46.885 11.0168 50.0209C11.1134 50.1213 11.212 50.2199 11.3124 50.3165C14.4484 53.3333 19.41 53.3333 29.3333 53.3333H34.6667C44.59 53.3333 49.5516 53.3333 52.6875 50.3165C52.788 50.2199 52.8866 50.1213 52.9832 50.0209C56 46.885 56 41.9233 56 32C56 22.0767 56 17.115 52.9832 13.9791C52.8866 13.8786 52.788 13.7801 52.6875 13.6834C51.1289 12.184 49.1193 11.4299 46.2737 11.0505C45.8642 10.996 45.6594 10.9687 45.5212 11.0897C45.383 11.2107 45.383 11.4215 45.383 11.843L45.383 17.3333C45.383 19.57 43.5698 21.3832 41.3331 21.3832C39.0964 21.3832 37.2832 19.57 37.2832 17.3333L37.2832 11.4767C37.2832 11.0958 37.2832 10.9053 37.1648 10.7867C37.0463 10.6681 36.8561 10.6679 36.4755 10.6674C35.8916 10.6667 35.2889 10.6667 34.6667 10.6667H29.3333C28.711 10.6667 28.1081 10.6667 27.524 10.6674C27.1435 10.6679 26.9532 10.6681 26.8348 10.7867C26.7164 10.9053 26.7164 11.0958 26.7164 11.4767L26.7164 17.3333C26.7164 19.57 24.9032 21.3832 22.6665 21.3832C20.4297 21.3832 18.6165 19.57 18.6165 17.3333L18.6165 11.8431Z" fill="#D8F2D7"/>
<path d="M22.666 6.66666L22.666 17.3333" stroke="#1F9A17" stroke-width="2.69994" stroke-linecap="round"/>
<path d="M41.3335 6.66666L41.3335 17.3333" stroke="#1F9A17" stroke-width="2.69994" stroke-linecap="round"/>
<circle cx="20.2494" cy="28.3494" r="1.34997" fill="#1F9A17"/>
<circle cx="28.3495" cy="28.3494" r="1.34997" fill="#1F9A17"/>
<circle cx="36.4491" cy="28.3494" r="1.34997" fill="#1F9A17"/>
<circle cx="44.5492" cy="28.3494" r="1.34997" fill="#1F9A17"/>
<circle cx="20.2494" cy="36.4492" r="1.34997" fill="#1F9A17"/>
<circle cx="28.3495" cy="36.4492" r="1.34997" fill="#1F9A17"/>
<circle cx="36.4491" cy="36.4492" r="1.34997" fill="#1F9A17"/>
<circle cx="44.5492" cy="36.4492" r="1.34997" fill="#1F9A17"/>
<circle cx="20.2494" cy="44.5491" r="1.34997" fill="#1F9A17"/>
<circle cx="28.3495" cy="44.5491" r="1.34997" fill="#1F9A17"/>
<circle cx="36.4491" cy="44.5491" r="1.34997" fill="#1F9A17"/>
<circle cx="44.5492" cy="44.5491" r="1.34997" fill="#1F9A17"/>
</svg>
