<svg width="32" height="32" viewBox="0 0 32 32" fill="none" xmlns="http://www.w3.org/2000/svg">
<g id="Content / center alignment">
<path id="Vector" d="M4.00033 9.33332H28.0003C28.3539 9.33332 28.6931 9.19285 28.9431 8.9428C29.1932 8.69275 29.3337 8.35361 29.3337 7.99999C29.3337 7.64637 29.1932 7.30723 28.9431 7.05718C28.6931 6.80713 28.3539 6.66666 28.0003 6.66666H4.00033C3.6467 6.66666 3.30756 6.80713 3.05752 7.05718C2.80747 7.30723 2.66699 7.64637 2.66699 7.99999C2.66699 8.35361 2.80747 8.69275 3.05752 8.9428C3.30756 9.19285 3.6467 9.33332 4.00033 9.33332ZM9.33366 12C8.98004 12 8.6409 12.1405 8.39085 12.3905C8.1408 12.6406 8.00033 12.9797 8.00033 13.3333C8.00033 13.6869 8.1408 14.0261 8.39085 14.2761C8.6409 14.5262 8.98004 14.6667 9.33366 14.6667H22.667C23.0206 14.6667 23.3598 14.5262 23.6098 14.2761C23.8598 14.0261 24.0003 13.6869 24.0003 13.3333C24.0003 12.9797 23.8598 12.6406 23.6098 12.3905C23.3598 12.1405 23.0206 12 22.667 12H9.33366ZM28.0003 17.3333H4.00033C3.6467 17.3333 3.30756 17.4738 3.05752 17.7238C2.80747 17.9739 2.66699 18.313 2.66699 18.6667C2.66699 19.0203 2.80747 19.3594 3.05752 19.6095C3.30756 19.8595 3.6467 20 4.00033 20H28.0003C28.3539 20 28.6931 19.8595 28.9431 19.6095C29.1932 19.3594 29.3337 19.0203 29.3337 18.6667C29.3337 18.313 29.1932 17.9739 28.9431 17.7238C28.6931 17.4738 28.3539 17.3333 28.0003 17.3333ZM22.667 22.6667H9.33366C8.98004 22.6667 8.6409 22.8071 8.39085 23.0572C8.1408 23.3072 8.00033 23.6464 8.00033 24C8.00033 24.3536 8.1408 24.6928 8.39085 24.9428C8.6409 25.1928 8.98004 25.3333 9.33366 25.3333H22.667C23.0206 25.3333 23.3598 25.1928 23.6098 24.9428C23.8598 24.6928 24.0003 24.3536 24.0003 24C24.0003 23.6464 23.8598 23.3072 23.6098 23.0572C23.3598 22.8071 23.0206 22.6667 22.667 22.6667Z" fill="black"/>
</g>
</svg>
