<svg width="41" height="41" viewBox="0 0 41 41" fill="none" xmlns="http://www.w3.org/2000/svg">
<g id="flaticon-2169874-credit-card" clip-path="url(#clip0_85_802)">
<path id="Vector" d="M40.4334 23.1661L37.3971 5.94611C36.9844 3.60648 34.745 2.03855 32.4058 2.45116L6.36388 7.04315C4.02417 7.45567 2.45632 9.69472 2.86885 12.0343L3.09195 13.2998C1.56821 13.9645 0.5 15.4848 0.5 17.2507V34.3062C0.5 36.6819 2.43282 38.6147 4.80856 38.6147H30.6599C33.0357 38.6147 34.9685 36.6819 34.9685 34.3062V28.5047L36.9384 28.1573C38.0718 27.9575 39.0594 27.3283 39.7196 26.3855C40.3798 25.4428 40.6333 24.2993 40.4334 23.1661V23.1661ZM37.7945 25.0375C37.4945 25.466 37.0455 25.752 36.5303 25.8429L34.9685 26.1183V24.7788V19.448V17.2506C34.9685 14.8749 33.0357 12.942 30.6599 12.942H5.41537L5.18333 11.6262C5.09246 11.1111 5.20777 10.5914 5.5078 10.1628C5.80784 9.73428 6.25687 9.44827 6.77202 9.35739L32.8139 4.76548C32.9285 4.74527 33.0424 4.73556 33.155 4.73556C34.0869 4.73556 34.9155 5.40519 35.0827 6.35409L38.119 23.5741C38.2098 24.0893 38.0946 24.609 37.7945 25.0375V25.0375ZM30.6599 36.2646H4.80856C3.72868 36.2646 2.85013 35.3861 2.85013 34.3062V25.9539H32.6184V34.3061C32.6184 35.3861 31.7398 36.2646 30.6599 36.2646ZM4.80856 15.2922H30.6599C31.7398 15.2922 32.6184 16.1708 32.6184 17.2507V18.273H2.85013V17.2507C2.85013 16.1708 3.72868 15.2922 4.80856 15.2922ZM32.6184 20.6231V23.6039H2.85013V20.6231H32.6184Z" fill="black"/>
<path id="Vector_2" d="M11.8081 31.5454H6.47719C5.82824 31.5454 5.30212 32.0715 5.30212 32.7205C5.30212 33.3694 5.82824 33.8955 6.47719 33.8955H11.8081C12.457 33.8955 12.9831 33.3694 12.9831 32.7205C12.9831 32.0715 12.457 31.5454 11.8081 31.5454Z" fill="black"/>
</g>
<defs>
<clipPath id="clip0_85_802">
<rect width="40" height="40" fill="white" transform="translate(0.5 0.5)"/>
</clipPath>
</defs>
</svg>
