<svg width="428" height="219" viewBox="0 0 428 219" fill="none" xmlns="http://www.w3.org/2000/svg">
<path d="M480.732 -391.806L36.9019 45.4431C38.5472 48.6162 40.3101 51.7893 42.073 54.9625L481.731 -391.277L480.732 -391.806ZM517.458 -368.301L59.9367 83.1683C61.8758 85.9301 63.8737 88.6919 65.8129 91.395L518.281 -367.419L517.458 -368.301ZM550.189 -340.918L87.0847 116.545C89.3177 118.954 91.5506 121.305 93.8423 123.597L551.481 -339.684L550.189 -340.918ZM439.187 -410.845L18.3331 3.01682C19.6259 6.77759 21.0361 10.4209 22.4464 14.0641L440.01 -410.551L439.187 -410.845ZM392.53 -424.36L5.4642 -44.5805C6.28687 -40.2909 7.16825 -36.06 8.1672 -31.8292L393.353 -424.242L392.53 -424.36ZM186.51 -400.091L36.1967 -254.655C32.0442 -246.546 28.1268 -238.241 24.4443 -229.74L191.505 -402.442L186.51 -400.091ZM339.292 -431L0.234375 -99.3467C0.234375 -94.352 0.528132 -89.2984 0.821942 -84.3036L339.879 -431H339.292ZM275.182 -427.415L5.52293 -164.808C4.46521 -158.931 3.52501 -152.761 2.7611 -146.709L276.299 -427.592L275.182 -427.415ZM432.547 202.044L634.277 -1.15533V-1.91919L426.906 203.748L432.547 202.044ZM604.72 -273.929L156.541 172.663L158.833 173.956L604.837 -273.635C604.738 -273.738 604.618 -273.818 604.485 -273.87L604.72 -273.929ZM579.805 -309.186L121.461 147.924L123.4 149.452L580.275 -308.892L579.805 -309.186ZM625.169 -233.736L196.206 193.406L198.791 194.581L625.169 -233.501V-233.736ZM351.573 219.144L355.804 218.791L650.202 -77.4285L351.573 219.144ZM649.849 -137.66L291.871 218.497H295.455L649.908 -137.777L649.849 -137.66ZM640.682 -188.841L241.1 209.037L244.038 209.859L640.741 -188.665L640.682 -188.841Z" fill="url(#paint0_linear_384_1968)"/>
<defs>
<linearGradient id="paint0_linear_384_1968" x1="-0.000673356" y1="-106.046" x2="649.967" y2="-106.046" gradientUnits="userSpaceOnUse">
<stop stop-color="white"/>
<stop offset="0.46" stop-color="#DEDEDE"/>
<stop offset="0.83" stop-color="#B4B4B4"/>
<stop offset="1" stop-color="#ACACAC"/>
</linearGradient>
</defs>
</svg>
