<svg width="482" height="113" viewBox="0 0 482 113" fill="none" xmlns="http://www.w3.org/2000/svg">
<path d="M356.474 29.0636L27.3636 353.294C28.5837 355.647 29.8909 358 31.1981 360.353L357.215 29.4557L356.474 29.0636ZM383.708 46.4929L44.4445 381.268C45.8824 383.316 47.3639 385.364 48.8018 387.368L384.318 47.1465L383.708 46.4929ZM407.978 66.7982L64.5754 406.018C66.2312 407.804 67.887 409.547 69.5863 411.246L408.936 67.7132L407.978 66.7982ZM325.668 14.9458L13.5945 321.834C14.5531 324.622 15.5988 327.324 16.6446 330.026L326.278 15.1636L325.668 14.9458ZM291.07 4.92385L4.05186 286.539C4.66189 289.72 5.31546 292.857 6.05621 295.995L291.68 5.01102L291.07 4.92385ZM138.302 22.9197L26.8408 130.764C23.7616 136.777 20.8567 142.936 18.1261 149.239L142.005 21.1768L138.302 22.9197ZM251.593 6.10352e-05L0.173828 245.929C0.173828 249.632 0.391656 253.38 0.609523 257.083L252.029 6.10352e-05H251.593ZM204.054 2.65805L4.09541 197.388C3.31109 201.745 2.61391 206.32 2.04746 210.809L204.882 2.52733L204.054 2.65805ZM320.744 469.417L470.332 318.74V318.174L316.561 470.681L320.744 469.417ZM448.414 116.472L116.079 447.63L117.779 448.589L448.501 116.69C448.428 116.614 448.338 116.554 448.24 116.515L448.414 116.472ZM429.939 90.3278L90.0658 429.286L91.5038 430.419L430.288 90.5457L429.939 90.3278ZM463.578 146.276L145.491 463.012L147.409 463.883L463.578 146.45V146.276ZM260.7 482.097L263.837 481.835L482.14 262.182L260.7 482.097ZM481.879 217.519L216.429 481.618H219.087L481.922 217.432L481.879 217.519ZM475.081 179.566L178.782 474.602L180.96 475.212L475.125 179.697L475.081 179.566Z" fill="url(#paint0_linear_384_1970)"/>
<defs>
<linearGradient id="paint0_linear_384_1970" x1="-0.000465756" y1="240.961" x2="481.966" y2="240.961" gradientUnits="userSpaceOnUse">
<stop stop-color="white"/>
<stop offset="0.46" stop-color="#DEDEDE"/>
<stop offset="0.83" stop-color="#B4B4B4"/>
<stop offset="1" stop-color="#ACACAC"/>
</linearGradient>
</defs>
</svg>
