<svg width="38" height="38" viewBox="0 0 38 38" fill="none" xmlns="http://www.w3.org/2000/svg">
<g id="Receipt">
<path id="Shape" d="M6.33203 9.89584C6.33203 7.92833 7.92702 6.33334 9.89453 6.33334H23.3529C25.3204 6.33334 26.9154 7.92833 26.9154 9.89584V22.1667H32.457V27.3125C32.457 30.1545 30.1532 32.4583 27.3112 32.4583H9.89453C7.92702 32.4583 6.33203 30.8634 6.33203 28.8958V9.89584ZM26.9154 30.0833H27.3112C28.8415 30.0833 30.082 28.8428 30.082 27.3125V24.5417H26.9154V30.0833ZM12.2695 12.6667C11.6137 12.6667 11.082 13.1983 11.082 13.8542C11.082 14.51 11.6137 15.0417 12.2695 15.0417H20.9779C21.6337 15.0417 22.1654 14.51 22.1654 13.8542C22.1654 13.1983 21.6337 12.6667 20.9779 12.6667H12.2695ZM12.2695 18.2083C11.6137 18.2083 11.082 18.74 11.082 19.3958C11.082 20.0517 11.6137 20.5833 12.2695 20.5833H20.9779C21.6337 20.5833 22.1654 20.0517 22.1654 19.3958C22.1654 18.74 21.6337 18.2083 20.9779 18.2083H12.2695ZM12.2695 23.75C11.6137 23.75 11.082 24.2817 11.082 24.9375C11.082 25.5933 11.6137 26.125 12.2695 26.125H16.2279C16.8837 26.125 17.4154 25.5933 17.4154 24.9375C17.4154 24.2817 16.8837 23.75 16.2279 23.75H12.2695Z" fill="#1F9A17"/>
</g>
</svg>
