<svg width="46" height="45" viewBox="0 0 46 45" fill="none" xmlns="http://www.w3.org/2000/svg">
<g id="flaticon-2804212-drive" clip-path="url(#clip0_82_888)">
<g id="Group">
<path id="Vector" d="M42.1536 17.9477L43.43 15.8203H44.5293C45.2574 15.8203 45.8477 15.23 45.8477 14.502C45.8477 13.7739 45.2574 13.1836 44.5293 13.1836H42.6836C42.2205 13.1836 41.7914 13.4266 41.5531 13.8237L40.4797 15.6126L38.7095 9.41686C38.0125 6.97728 35.7536 5.27344 33.2165 5.27344H13.4789C10.9417 5.27344 8.68284 6.97728 7.98578 9.41695L6.21558 15.6127L5.14217 13.8238C4.9039 13.4266 4.47481 13.1836 4.01172 13.1836H2.16602C1.43793 13.1836 0.847656 13.7739 0.847656 14.502C0.847656 15.23 1.43793 15.8203 2.16602 15.8203H3.26526L4.5417 17.9477C2.38521 18.7652 0.847656 20.8514 0.847656 23.291V33.1348C0.847656 33.8629 1.43793 34.4531 2.16602 34.4531H4.45117V36.6504C4.45117 38.3466 5.83114 39.7266 7.52734 39.7266H11.043C12.7392 39.7266 14.1191 38.3466 14.1191 36.6504V34.4531H32.5762V36.6504C32.5762 38.3466 33.9561 39.7266 35.6523 39.7266H39.168C40.8642 39.7266 42.2441 38.3466 42.2441 36.6504V34.4531H44.5293C45.2574 34.4531 45.8477 33.8629 45.8477 33.1348V23.291C45.8477 20.8514 44.3101 18.7652 42.1536 17.9477ZM10.5211 10.1413C10.8964 8.82765 12.1127 7.91016 13.4789 7.91016H33.2165C34.5826 7.91016 35.7989 8.82765 36.1742 10.1413L38.2991 17.5781H35.9592C35.3467 14.573 32.6833 12.3047 29.5 12.3047C26.3167 12.3047 23.6533 14.573 23.0408 17.5781H8.39623L10.5211 10.1413ZM25.7708 17.5781C26.3149 16.0435 27.7812 14.9414 29.5 14.9414C31.2188 14.9414 32.6851 16.0435 33.2292 17.5781H25.7708ZM11.4824 36.6504C11.4824 36.8927 11.2853 37.0898 11.043 37.0898H7.52734C7.28503 37.0898 7.08789 36.8927 7.08789 36.6504V34.4531H11.4824V36.6504ZM19.3926 31.8164V28.125H27.3027V31.8164H19.3926ZM39.6074 36.6504C39.6074 36.8927 39.4103 37.0898 39.168 37.0898H35.6523C35.41 37.0898 35.2129 36.8927 35.2129 36.6504V34.4531H39.6074V36.6504ZM43.2109 31.8164H29.9395V26.8066C29.9395 26.0786 29.3492 25.4883 28.6211 25.4883H18.0742C17.3461 25.4883 16.7559 26.0786 16.7559 26.8066V31.8164H3.48437V23.291C3.48437 21.5948 4.86435 20.2148 6.56055 20.2148H6.6429C6.64518 20.2148 6.64738 20.215 6.64967 20.215C6.65186 20.215 6.65397 20.2148 6.65617 20.2148H40.0391C40.0413 20.2148 40.0434 20.215 40.0456 20.215C40.0479 20.215 40.0501 20.2148 40.0524 20.2148H40.1348C41.831 20.2148 43.2109 21.5948 43.2109 23.291V31.8164Z" fill="#197B12"/>
<path id="Vector_2" d="M36.5312 22.0605C34.3504 22.0605 32.5762 23.8348 32.5762 26.0156C32.5762 28.1965 34.3504 29.9707 36.5312 29.9707C38.7121 29.9707 40.4863 28.1965 40.4863 26.0156C40.4863 23.8348 38.7121 22.0605 36.5312 22.0605ZM36.5312 27.334C35.8043 27.334 35.2129 26.7426 35.2129 26.0156C35.2129 25.2887 35.8043 24.6973 36.5312 24.6973C37.2582 24.6973 37.8496 25.2887 37.8496 26.0156C37.8496 26.7426 37.2582 27.334 36.5312 27.334Z" fill="#197B12"/>
<path id="Vector_3" d="M10.1641 22.0605C7.98323 22.0605 6.20898 23.8348 6.20898 26.0156C6.20898 28.1965 7.98323 29.9707 10.1641 29.9707C12.3449 29.9707 14.1191 28.1965 14.1191 26.0156C14.1191 23.8348 12.3449 22.0605 10.1641 22.0605ZM10.1641 27.334C9.43712 27.334 8.8457 26.7426 8.8457 26.0156C8.8457 25.2887 9.43712 24.6973 10.1641 24.6973C10.891 24.6973 11.4824 25.2887 11.4824 26.0156C11.4824 26.7426 10.891 27.334 10.1641 27.334Z" fill="#197B12"/>
</g>
</g>
<defs>
<clipPath id="clip0_82_888">
<rect width="45" height="45" fill="white" transform="translate(0.847656)"/>
</clipPath>
</defs>
</svg>
