<svg width="41" height="41" viewBox="0 0 41 41" fill="none" xmlns="http://www.w3.org/2000/svg">
<g id="flaticon-1176945-headphones" clip-path="url(#clip0_85_766)">
<path id="Vector" d="M38.1562 18.0812V18.0781C38.1562 8.38544 30.2357 0.5 20.5 0.5C10.7643 0.5 2.84375 8.38544 2.84375 18.0781V18.0812C1.42163 19.1514 0.5 20.8528 0.5 22.7656V27.6094C0.5 30.8403 3.12848 33.4688 6.35938 33.4688H8.70312C9.3504 33.4688 9.875 32.9442 9.875 32.2969V18.0781C9.875 12.2627 14.6412 7.53125 20.5 7.53125C26.3585 7.53125 31.125 12.2627 31.125 18.0781V32.2969C31.125 32.9442 31.6496 33.4688 32.2969 33.4688H33.4688V34.6406C33.4688 35.2867 32.9429 35.8125 32.2969 35.8125H26.2361C25.7521 34.4487 24.4496 33.4688 22.9219 33.4688H18.1562C16.2178 33.4688 14.6406 35.0459 14.6406 36.9844C14.6406 38.9229 16.2178 40.5 18.1562 40.5H22.9219C24.4496 40.5 25.7521 39.5201 26.2361 38.1562H32.2969C34.2354 38.1562 35.8125 36.5791 35.8125 34.6406V33.351C38.4837 32.8065 40.5 30.439 40.5 27.6094V22.7656C40.5 20.8528 39.5784 19.1514 38.1562 18.0812ZM22.9219 38.1562H18.1562C17.5102 38.1562 16.9844 37.6304 16.9844 36.9844C16.9844 36.3383 17.5102 35.8125 18.1562 35.8125H22.9219C23.5679 35.8125 24.0938 36.3383 24.0938 36.9844C24.0938 37.6304 23.5679 38.1562 22.9219 38.1562ZM7.53125 31.125H6.35938C4.4209 31.125 2.84375 29.5479 2.84375 27.6094V22.7656C2.84375 20.8271 4.4209 19.25 6.35938 19.25H7.53125V31.125ZM20.5 5.1875C13.686 5.1875 8.17365 10.4393 7.58527 16.9062H6.35938C5.97119 16.9062 5.59247 16.945 5.22534 17.0173C5.77466 9.11023 12.415 2.84375 20.5 2.84375C28.585 2.84375 35.2253 9.11023 35.7747 17.0173C35.4075 16.945 35.0288 16.9062 34.6406 16.9062H33.4147C32.826 10.4362 27.3109 5.1875 20.5 5.1875V5.1875ZM38.1562 27.6094C38.1562 29.5479 36.5791 31.125 34.6406 31.125H33.4688V19.25H34.6406C36.5791 19.25 38.1562 20.8271 38.1562 22.7656V27.6094Z" fill="black"/>
</g>
<defs>
<clipPath id="clip0_85_766">
<rect width="40" height="40" fill="white" transform="translate(0.5 0.5)"/>
</clipPath>
</defs>
</svg>
