<?xml version="1.0" encoding="UTF-8"?> <svg xmlns="http://www.w3.org/2000/svg" xmlns:xlink="http://www.w3.org/1999/xlink" viewBox="0 0 588.89 143.84"><defs><style>.cls-1{fill:url(#linear-gradient);}</style><linearGradient id="linear-gradient" x1="25.03" y1="57.28" x2="146.82" y2="57.28" gradientUnits="userSpaceOnUse"><stop offset="0" stop-color="#135407"></stop><stop offset="1" stop-color="#26c020"></stop></linearGradient></defs><g id="Layer_2" data-name="Layer 2"><g id="Layer_1-2" data-name="Layer 1"><path d="M139.85,73.92A69.93,69.93,0,1,1,69.93,4,69.24,69.24,0,0,1,109,16l-8,10a57.14,57.14,0,1,0,26.06,47.94c0-.41,0-.81,0-1.21V72l1-1.61c2-3.33,4-6.77,6-10.22l3.37-5.87,1.25,6.65A69.75,69.75,0,0,1,139.85,73.92Z"></path><path class="cls-1" d="M144.33,1.16C138.44-3,132.39,4.93,129.32,9c-4,5.34-7.81,11-11.75,16.37-4.45,6.1-9.36,11.92-14.22,17.7C91.85,56.68,80.48,68.67,69.71,79.12l0,0a76.47,76.47,0,0,1-8.83-7.33c-2.82-2.69-5.48-5.54-8.08-8.45S47.58,57.38,45,54.41s-5.16-5.88-7.87-8.69a8.94,8.94,0,0,0-2.81-2.32c-.35-.17-3.33-1.55-5.91-.14-4.52,2.48-3.51,9-2.6,13a80.55,80.55,0,0,0,5.66,15.93c2.3,5.07,4.7,10.13,7.47,15q2.36,4.14,5,8.09c4.44,6.5,9.52,13.13,16.66,16.8C69,116.38,78.06,114.91,85.2,109c6.59-5.49,11.58-12.56,16.29-19.63,1.46-2.18,2.49-3.84,3.45-5.28h0c5-8,3.84-6.24,11.32-18.75,5.27-8.8,10.3-17.74,15.18-26.76,2.69-5,5.46-10.07,8.25-15.06,2.65-4.75,5.32-9.51,6.87-14.75C147.31,5.67,146.43,2.63,144.33,1.16Z"></path><path d="M383.91,59.61a7.3,7.3,0,1,0-7.3-7.3A7.3,7.3,0,0,0,383.91,59.61Z"></path><circle cx="402.06" cy="52.31" r="7.3"></circle><path d="M508,45h-5.14v5.06s0,.06,0,.08V78.07a22.78,22.78,0,0,1-30.5,21.42l-.61-.23c-.26-.11-.53-.21-.79-.33l-.69-.24-4.79-1.82-1.71,4.51a2.49,2.49,0,0,0-.11.29l-1.83,4.81,5.12,2a33.07,33.07,0,0,0,46.21-30.36V54.56h0V45H508Z"></path><path d="M459.17,45h-10.3v9.55h0V78.07a22.83,22.83,0,0,1-22.58,22.77H328.23l2.54-3.29a32.71,32.71,0,0,0,6.35-19.48,34,34,0,0,0-.77-7.17,33.08,33.08,0,1,0-32.3,40.24l1.09,0,2.11-.05L304,115.23c0,.07-.09.15-.14.23l-2.12,2.74,8.14,6.29,3.9-5,6.43-8.3H426.34a33.07,33.07,0,0,0,32.83-33.07V45ZM322.32,91.66l-.12.15a22.77,22.77,0,0,1-40.93-13.74,22.78,22.78,0,1,1,41.05,13.59Z"></path><path d="M588.12,70.9a33.08,33.08,0,1,0-32.3,40.24l1.09,0,2.11-.05-3.23,4.16-.06.1-2.22,2.87,8.14,6.29,2.23-2.89,0-.06,18.61-24a32.73,32.73,0,0,0,6.35-19.48A34,34,0,0,0,588.12,70.9Zm-14,20.76-.12.15A22.77,22.77,0,0,1,533,78.07a22.78,22.78,0,1,1,41.05,13.59Z"></path><path d="M227.13,45l-1.08,0-2.11.06,3.22-4.16c.07-.09.11-.18.17-.27l2.18-2.83-8.13-6.28-4.78,6.18h0L204.36,53.45V37.7c0-.05,0-.11,0-.17v-6H194.06v6.2h0V78a33.45,33.45,0,0,0,.78,7.18A33.08,33.08,0,1,0,227.13,45Zm0,55.85A22.79,22.79,0,0,1,204.36,78a22.54,22.54,0,0,1,4.51-13.58l.12-.15a22.55,22.55,0,0,1,18.14-9,22.78,22.78,0,1,1,0,45.55Z"></path></g></g></svg> 