<svg width="98" height="98" viewBox="0 0 98 98" fill="none" xmlns="http://www.w3.org/2000/svg">
<g id="Message_duotone">
<path id="Vector 3" d="M16.3335 65.3333V41.8244C16.3335 41.3691 16.8127 41.0729 17.2199 41.2765L43.5218 54.4275C46.9705 56.1518 51.0298 56.1518 54.4785 54.4275L80.7804 41.2765C81.1877 41.0729 81.6668 41.3691 81.6668 41.8244V65.3333C81.6668 69.8437 78.0105 73.5 73.5002 73.5H24.5002C19.9898 73.5 16.3335 69.8437 16.3335 65.3333Z" fill="#135C0E"/>
<path id="Vector 4" d="M16.3335 32.6666V36.3714C16.3335 36.6034 16.4646 36.8155 16.6721 36.9193L43.5218 50.3441C46.9705 52.0685 51.0298 52.0685 54.4785 50.3441L81.3282 36.9193C81.5357 36.8155 81.6668 36.6034 81.6668 36.3714V32.6666C81.6668 28.1563 78.0105 24.5 73.5002 24.5H24.5002C19.9898 24.5 16.3335 28.1563 16.3335 32.6666Z" fill="#ECECEC"/>
</g>
</svg>
