<svg width="441" height="423" viewBox="0 0 441 423" fill="none" xmlns="http://www.w3.org/2000/svg">
<path d="M219.318 422.548C328.055 422.548 416.204 334.399 416.204 225.663C416.204 116.926 328.055 28.7771 219.318 28.7771C110.581 28.7771 22.4326 116.926 22.4326 225.663C22.4326 334.399 110.581 422.548 219.318 422.548Z" fill="url(#paint0_linear_1146_8660)"/>
<path d="M325.536 74.5914H107.428C93.8334 74.5914 82.8125 85.6123 82.8125 99.2072H350.152C350.152 85.6123 339.131 74.5914 325.536 74.5914Z" fill="url(#paint1_linear_1146_8660)"/>
<path d="M82.8125 98.5346H350.152V302.145C350.152 311.197 346.556 319.879 340.154 326.28C333.753 332.681 325.071 336.278 316.019 336.278H116.945C107.893 336.278 99.211 332.681 92.8098 326.28C86.4086 319.879 82.8125 311.197 82.8125 302.145V98.5346Z" fill="url(#paint2_linear_1146_8660)"/>
<path d="M304.199 124.252H128.854C125.202 124.252 122.242 127.209 122.242 130.857C122.242 134.505 125.202 137.462 128.854 137.462H304.199C307.851 137.462 310.811 134.505 310.811 130.857C310.811 127.209 307.851 124.252 304.199 124.252Z" fill="url(#paint3_linear_1146_8660)"/>
<path d="M304.199 180.375H128.854C125.202 180.375 122.242 183.332 122.242 186.979C122.242 190.627 125.202 193.584 128.854 193.584H304.199C307.851 193.584 310.811 190.627 310.811 186.979C310.811 183.332 307.851 180.375 304.199 180.375Z" fill="url(#paint4_linear_1146_8660)"/>
<path d="M304.199 236.497H128.854C125.202 236.497 122.242 239.454 122.242 243.102C122.242 246.749 125.202 249.706 128.854 249.706H304.199C307.851 249.706 310.811 246.749 310.811 243.102C310.811 239.454 307.851 236.497 304.199 236.497Z" fill="url(#paint5_linear_1146_8660)"/>
<path d="M304.199 292.619H128.854C125.202 292.619 122.242 295.576 122.242 299.224C122.242 302.871 125.202 305.828 128.854 305.828H304.199C307.851 305.828 310.811 302.871 310.811 299.224C310.811 295.576 307.851 292.619 304.199 292.619Z" fill="url(#paint6_linear_1146_8660)"/>
<g filter="url(#filter0_d_1146_8660)">
<path d="M127.667 224.459H34.2984C26.7975 224.459 20.7168 230.54 20.7168 238.041V371.496C20.7168 378.997 26.7975 385.077 34.2984 385.077H127.667C135.168 385.077 141.248 378.997 141.248 371.496V238.041C141.248 230.54 135.168 224.459 127.667 224.459Z" fill="url(#paint7_linear_1146_8660)"/>
</g>
<g filter="url(#filter1_d_1146_8660)">
<path d="M393.456 16H290.327C285.522 16 281.626 19.8958 281.626 24.7014V73.1745C281.626 77.9802 285.522 81.8759 290.327 81.8759H393.456C398.262 81.8759 402.158 77.9802 402.158 73.1745V24.7014C402.158 19.8958 398.262 16 393.456 16Z" fill="url(#paint8_linear_1146_8660)"/>
</g>
<path d="M117.247 291.222H44.7162C42.2739 291.222 40.2939 293.202 40.2939 295.645V295.659C40.2939 298.101 42.2739 300.081 44.7162 300.081H117.247C119.689 300.081 121.669 298.101 121.669 295.659V295.645C121.669 293.202 119.689 291.222 117.247 291.222Z" fill="url(#paint9_linear_1146_8660)"/>
<path d="M117.288 353.557H45.3803C42.959 353.557 40.9961 355.476 40.9961 357.842V357.856C40.9961 360.222 42.959 362.14 45.3803 362.14H117.288C119.709 362.14 121.672 360.222 121.672 357.856V357.842C121.672 355.476 119.709 353.557 117.288 353.557Z" fill="url(#paint10_linear_1146_8660)"/>
<path d="M117.288 320.944H45.3803C42.959 320.944 40.9961 322.862 40.9961 325.228V325.242C40.9961 327.608 42.959 329.526 45.3803 329.526H117.288C119.709 329.526 121.672 327.608 121.672 325.242V325.228C121.672 322.862 119.709 320.944 117.288 320.944Z" fill="url(#paint11_linear_1146_8660)"/>
<path d="M71.2355 245.068H50.0401C45.3451 245.068 41.5391 248.874 41.5391 253.569V259.451C41.5391 264.146 45.3451 267.952 50.0401 267.952H71.2355C75.9305 267.952 79.7365 264.146 79.7365 259.451V253.569C79.7365 248.874 75.9305 245.068 71.2355 245.068Z" fill="url(#paint12_linear_1146_8660)"/>
<path d="M307.079 58.9346C312.604 58.9346 317.083 54.4557 317.083 48.9308C317.083 43.4059 312.604 38.9271 307.079 38.9271C301.554 38.9271 297.075 43.4059 297.075 48.9308C297.075 54.4557 301.554 58.9346 307.079 58.9346Z" fill="#81E78B"/>
<path d="M342.829 58.9346C348.354 58.9346 352.833 54.4557 352.833 48.9308C352.833 43.4059 348.354 38.9271 342.829 38.9271C337.304 38.9271 332.825 43.4059 332.825 48.9308C332.825 54.4557 337.304 58.9346 342.829 58.9346Z" fill="#81E78B"/>
<path d="M378.579 58.9346C384.104 58.9346 388.583 54.4557 388.583 48.9308C388.583 43.4059 384.104 38.9271 378.579 38.9271C373.054 38.9271 368.575 43.4059 368.575 48.9308C368.575 54.4557 373.054 58.9346 378.579 58.9346Z" fill="#81E78B"/>
<path d="M351.454 297.536L326.118 325.468L397.533 390.246L422.869 362.314L351.454 297.536Z" fill="url(#paint13_linear_1146_8660)"/>
<path fill-rule="evenodd" clip-rule="evenodd" d="M378.229 251.305C378.229 309.739 330.859 357.11 272.424 357.11C213.99 357.11 166.619 309.739 166.619 251.305C166.619 192.87 213.99 145.5 272.424 145.5C330.859 145.5 378.229 192.87 378.229 251.305ZM362.001 251.305C362.001 300.776 321.896 340.881 272.425 340.881C222.954 340.881 182.849 300.776 182.849 251.305C182.849 201.834 222.954 161.729 272.425 161.729C321.896 161.729 362.001 201.834 362.001 251.305Z" fill="url(#paint14_linear_1146_8660)"/>
<g filter="url(#filter2_b_1146_8660)">
<path d="M272.426 340.881C321.898 340.881 362.002 300.776 362.002 251.305C362.002 201.833 321.898 161.729 272.426 161.729C222.955 161.729 182.851 201.833 182.851 251.305C182.851 300.776 222.955 340.881 272.426 340.881Z" fill="url(#paint15_linear_1146_8660)" fill-opacity="0.2"/>
</g>
<path d="M293.95 251.305L319.567 225.63C321.967 223.09 323.282 219.714 323.233 216.22C323.183 212.726 321.773 209.389 319.302 206.918C316.831 204.447 313.494 203.037 310 202.987C306.506 202.938 303.13 204.253 300.59 206.653L274.915 232.328L249.298 206.653C248.065 205.348 246.583 204.304 244.94 203.582C243.297 202.86 241.525 202.475 239.731 202.45C237.936 202.424 236.154 202.759 234.491 203.434C232.828 204.109 231.317 205.111 230.048 206.38C228.779 207.649 227.777 209.16 227.102 210.823C226.427 212.486 226.092 214.268 226.118 216.063C226.143 217.857 226.528 219.629 227.25 221.272C227.972 222.915 229.016 224.397 230.321 225.63L255.981 251.305L230.321 276.98C229.016 278.212 227.972 279.694 227.25 281.338C226.528 282.981 226.143 284.752 226.118 286.547C226.092 288.342 226.427 290.123 227.102 291.786C227.777 293.449 228.779 294.96 230.048 296.229C231.317 297.499 232.828 298.5 234.491 299.176C236.154 299.851 237.936 300.185 239.731 300.16C241.525 300.135 243.297 299.749 244.94 299.028C246.583 298.306 248.065 297.261 249.298 295.957L274.973 270.282L300.648 295.957C303.212 298.215 306.54 299.411 309.955 299.3C313.37 299.189 316.615 297.781 319.027 295.361C321.44 292.941 322.839 289.693 322.939 286.277C323.039 282.862 321.834 279.537 319.567 276.98L293.95 251.305Z" fill="url(#paint16_linear_1146_8660)"/>
<g filter="url(#filter3_f_1146_8660)">
<ellipse cx="275.387" cy="300.78" rx="62.9707" ry="9.30249" fill="#55EC6D" fill-opacity="0.56"/>
</g>
<path d="M202.611 362.571C203.5 358.891 208.735 358.891 209.623 362.571L212.613 374.958C212.93 376.273 213.957 377.3 215.273 377.617L227.659 380.607C231.339 381.495 231.339 386.73 227.659 387.619L215.273 390.609C213.957 390.926 212.93 391.953 212.613 393.268L209.623 405.654C208.735 409.335 203.5 409.335 202.612 405.654L199.622 393.268C199.304 391.953 198.277 390.926 196.962 390.609L184.576 387.619C180.895 386.73 180.895 381.495 184.576 380.607L196.962 377.617C198.277 377.3 199.304 376.273 199.622 374.958L202.611 362.571Z" fill="url(#paint17_linear_1146_8660)"/>
<path d="M60.1418 33.0009C61.0302 29.3207 66.2649 29.3207 67.1533 33.0009L70.1433 45.3873C70.4608 46.7024 71.4876 47.7293 72.8028 48.0468L85.1891 51.0368C88.8694 51.9252 88.8694 57.1599 85.1891 58.0483L72.8028 61.0383C71.4876 61.3558 70.4608 62.3826 70.1433 63.6978L67.1533 76.0841C66.2649 79.7644 61.0302 79.7644 60.1418 76.0841L57.1518 63.6978C56.8343 62.3826 55.8075 61.3558 54.4923 61.0383L42.1059 58.0483C38.4257 57.1599 38.4257 51.9252 42.1059 51.0368L54.4923 48.0468C55.8075 47.7293 56.8343 46.7024 57.1518 45.3873L60.1418 33.0009Z" fill="url(#paint18_linear_1146_8660)"/>
<path fill-rule="evenodd" clip-rule="evenodd" d="M211.469 35.0076C214.789 35.0076 217.48 32.3165 217.48 28.9968C217.48 25.6772 214.789 22.9861 211.469 22.9861C208.149 22.9861 205.458 25.6772 205.458 28.9968C205.458 32.3165 208.149 35.0076 211.469 35.0076ZM211.469 39.5156C217.278 39.5156 221.988 34.8062 221.988 28.9968C221.988 23.1874 217.278 18.478 211.469 18.478C205.66 18.478 200.95 23.1874 200.95 28.9968C200.95 34.8062 205.66 39.5156 211.469 39.5156Z" fill="url(#paint19_linear_1146_8660)"/>
<path d="M398.373 200.519C397.801 198.278 399.871 196.258 402.098 196.884L417.132 201.108C419.36 201.734 420.074 204.537 418.418 206.152L407.243 217.06C405.587 218.676 402.803 217.894 402.231 215.652L398.373 200.519Z" fill="url(#paint20_linear_1146_8660)"/>
<path d="M45.9712 174.712C48.2138 174.143 50.231 176.215 49.6022 178.442L45.358 193.47C44.7292 195.697 41.926 196.408 40.3122 194.75L29.4192 183.56C27.8054 181.902 28.5914 179.119 30.834 178.551L45.9712 174.712Z" fill="url(#paint21_linear_1146_8660)"/>
<path d="M332.628 382.41C334.871 381.841 336.888 383.913 336.259 386.14L332.015 401.169C331.386 403.395 328.583 404.106 326.969 402.448L316.076 391.258C314.463 389.6 315.249 386.817 317.491 386.249L332.628 382.41Z" fill="url(#paint22_linear_1146_8660)"/>
<path fill-rule="evenodd" clip-rule="evenodd" d="M412.3 122.55C415.62 122.55 418.311 119.858 418.311 116.539C418.311 113.219 415.62 110.528 412.3 110.528C408.98 110.528 406.289 113.219 406.289 116.539C406.289 119.858 408.98 122.55 412.3 122.55ZM412.3 127.058C418.109 127.058 422.819 122.348 422.819 116.539C422.819 110.729 418.109 106.02 412.3 106.02C406.491 106.02 401.781 110.729 401.781 116.539C401.781 122.348 406.491 127.058 412.3 127.058Z" fill="url(#paint23_linear_1146_8660)"/>
<path d="M397.527 390.249L422.863 362.317L426.68 365.778C430.382 369.137 432.599 373.828 432.842 378.821C433.086 383.814 431.335 388.699 427.977 392.402C424.619 396.105 419.927 398.321 414.934 398.565C409.941 398.808 405.056 397.058 401.353 393.7L397.537 390.238L397.527 390.249Z" fill="#65DE80"/>
<defs>
<filter id="filter0_d_1146_8660" x="0.118678" y="210.727" width="172.027" height="212.114" filterUnits="userSpaceOnUse" color-interpolation-filters="sRGB">
<feFlood flood-opacity="0" result="BackgroundImageFix"/>
<feColorMatrix in="SourceAlpha" type="matrix" values="0 0 0 0 0 0 0 0 0 0 0 0 0 0 0 0 0 0 127 0" result="hardAlpha"/>
<feOffset dx="5.14953" dy="12.0156"/>
<feGaussianBlur stdDeviation="12.8738"/>
<feComposite in2="hardAlpha" operator="out"/>
<feColorMatrix type="matrix" values="0 0 0 0 0.104618 0 0 0 0 0.465612 0 0 0 0 0.545833 0 0 0 0.15 0"/>
<feBlend mode="normal" in2="BackgroundImageFix" result="effect1_dropShadow_1146_8660"/>
<feBlend mode="normal" in="SourceGraphic" in2="effect1_dropShadow_1146_8660" result="shape"/>
</filter>
<filter id="filter1_d_1146_8660" x="269.61" y="0.551411" width="165.161" height="110.505" filterUnits="userSpaceOnUse" color-interpolation-filters="sRGB">
<feFlood flood-opacity="0" result="BackgroundImageFix"/>
<feColorMatrix in="SourceAlpha" type="matrix" values="0 0 0 0 0 0 0 0 0 0 0 0 0 0 0 0 0 0 127 0" result="hardAlpha"/>
<feOffset dx="10.2991" dy="6.86604"/>
<feGaussianBlur stdDeviation="11.1573"/>
<feComposite in2="hardAlpha" operator="out"/>
<feColorMatrix type="matrix" values="0 0 0 0 0.104618 0 0 0 0 0.465612 0 0 0 0 0.545833 0 0 0 0.09 0"/>
<feBlend mode="normal" in2="BackgroundImageFix" result="effect1_dropShadow_1146_8660"/>
<feBlend mode="normal" in="SourceGraphic" in2="effect1_dropShadow_1146_8660" result="shape"/>
</filter>
<filter id="filter2_b_1146_8660" x="154.228" y="133.106" width="236.397" height="236.398" filterUnits="userSpaceOnUse" color-interpolation-filters="sRGB">
<feFlood flood-opacity="0" result="BackgroundImageFix"/>
<feGaussianBlur in="BackgroundImageFix" stdDeviation="14.3115"/>
<feComposite in2="SourceAlpha" operator="in" result="effect1_backgroundBlur_1146_8660"/>
<feBlend mode="normal" in="SourceGraphic" in2="effect1_backgroundBlur_1146_8660" result="shape"/>
</filter>
<filter id="filter3_f_1146_8660" x="176.637" y="255.698" width="197.499" height="90.1626" filterUnits="userSpaceOnUse" color-interpolation-filters="sRGB">
<feFlood flood-opacity="0" result="BackgroundImageFix"/>
<feBlend mode="normal" in="SourceGraphic" in2="BackgroundImageFix" result="shape"/>
<feGaussianBlur stdDeviation="17.8894" result="effect1_foregroundBlur_1146_8660"/>
</filter>
<linearGradient id="paint0_linear_1146_8660" x1="217.8" y1="-35.3337" x2="221.834" y2="656.098" gradientUnits="userSpaceOnUse">
<stop stop-color="white" stop-opacity="0"/>
<stop offset="1" stop-color="#8EF49E"/>
</linearGradient>
<linearGradient id="paint1_linear_1146_8660" x1="82.5097" y1="80.2724" x2="350.285" y2="99.154" gradientUnits="userSpaceOnUse">
<stop stop-color="#92F590"/>
<stop offset="1" stop-color="#67DE65"/>
</linearGradient>
<linearGradient id="paint2_linear_1146_8660" x1="74.7854" y1="276.813" x2="461" y2="283.679" gradientUnits="userSpaceOnUse">
<stop stop-color="white"/>
<stop offset="1" stop-color="#BCFFD7"/>
</linearGradient>
<linearGradient id="paint3_linear_1146_8660" x1="114.267" y1="136.917" x2="321.965" y2="136.917" gradientUnits="userSpaceOnUse">
<stop stop-color="#65DE71"/>
<stop offset="1" stop-color="#D2FFDA"/>
</linearGradient>
<linearGradient id="paint4_linear_1146_8660" x1="114.267" y1="193.039" x2="321.965" y2="193.039" gradientUnits="userSpaceOnUse">
<stop stop-color="#65DE71"/>
<stop offset="1" stop-color="#D2FFDA"/>
</linearGradient>
<linearGradient id="paint5_linear_1146_8660" x1="114.267" y1="249.162" x2="321.965" y2="249.162" gradientUnits="userSpaceOnUse">
<stop stop-color="#65DE71"/>
<stop offset="1" stop-color="#D2FFDA"/>
</linearGradient>
<linearGradient id="paint6_linear_1146_8660" x1="114.267" y1="305.284" x2="321.965" y2="305.284" gradientUnits="userSpaceOnUse">
<stop stop-color="#65DE71"/>
<stop offset="1" stop-color="#D2FFDA"/>
</linearGradient>
<linearGradient id="paint7_linear_1146_8660" x1="17.0977" y1="344.903" x2="248.117" y2="363.877" gradientUnits="userSpaceOnUse">
<stop stop-color="white"/>
<stop offset="1" stop-color="#BCFFBF"/>
</linearGradient>
<linearGradient id="paint8_linear_1146_8660" x1="278.007" y1="65.3989" x2="452.044" y2="70.4332" gradientUnits="userSpaceOnUse">
<stop stop-color="white"/>
<stop offset="1" stop-color="#BCFFD7"/>
</linearGradient>
<linearGradient id="paint9_linear_1146_8660" x1="131.113" y1="300.345" x2="33.272" y2="300.345" gradientUnits="userSpaceOnUse">
<stop stop-color="#D2FFDC"/>
<stop offset="1" stop-color="#6FDE65"/>
</linearGradient>
<linearGradient id="paint10_linear_1146_8660" x1="131.035" y1="362.396" x2="34.0345" y2="362.396" gradientUnits="userSpaceOnUse">
<stop stop-color="#D2FFDC"/>
<stop offset="1" stop-color="#6FDE65"/>
</linearGradient>
<linearGradient id="paint11_linear_1146_8660" x1="131.035" y1="329.782" x2="34.0345" y2="329.782" gradientUnits="userSpaceOnUse">
<stop stop-color="#D2FFDC"/>
<stop offset="1" stop-color="#6FDE65"/>
</linearGradient>
<linearGradient id="paint12_linear_1146_8660" x1="106.223" y1="267.732" x2="36.7048" y2="267.732" gradientUnits="userSpaceOnUse">
<stop offset="0.243799" stop-color="#D2FFD9"/>
<stop offset="1" stop-color="#6BE085"/>
</linearGradient>
<linearGradient id="paint13_linear_1146_8660" x1="342.571" y1="340.449" x2="368.146" y2="312.398" gradientUnits="userSpaceOnUse">
<stop stop-color="#92F590"/>
<stop offset="1" stop-color="#67DE65"/>
</linearGradient>
<linearGradient id="paint14_linear_1146_8660" x1="166.379" y1="194.336" x2="379.38" y2="195.719" gradientUnits="userSpaceOnUse">
<stop stop-color="#92F590"/>
<stop offset="1" stop-color="#67DE65"/>
</linearGradient>
<linearGradient id="paint15_linear_1146_8660" x1="272.426" y1="161.729" x2="362.689" y2="395.951" gradientUnits="userSpaceOnUse">
<stop stop-color="white"/>
<stop offset="1" stop-color="#D2FFD7"/>
</linearGradient>
<linearGradient id="paint16_linear_1146_8660" x1="226.581" y1="209.023" x2="323.848" y2="299.897" gradientUnits="userSpaceOnUse">
<stop stop-color="#69FF78"/>
<stop offset="1" stop-color="#020E00"/>
</linearGradient>
<linearGradient id="paint17_linear_1146_8660" x1="169.971" y1="364.695" x2="242.574" y2="365.166" gradientUnits="userSpaceOnUse">
<stop stop-color="#92F590"/>
<stop offset="1" stop-color="#67DE65"/>
</linearGradient>
<linearGradient id="paint18_linear_1146_8660" x1="27.5013" y1="35.1244" x2="100.104" y2="35.5957" gradientUnits="userSpaceOnUse">
<stop stop-color="#92F590"/>
<stop offset="1" stop-color="#67DE65"/>
</linearGradient>
<linearGradient id="paint19_linear_1146_8660" x1="200.926" y1="23.3332" x2="222.102" y2="23.4707" gradientUnits="userSpaceOnUse">
<stop stop-color="#92F590"/>
<stop offset="1" stop-color="#67DE65"/>
</linearGradient>
<linearGradient id="paint20_linear_1146_8660" x1="391.153" y1="210.959" x2="412.94" y2="189.97" gradientUnits="userSpaceOnUse">
<stop stop-color="#92F590"/>
<stop offset="1" stop-color="#67DE65"/>
</linearGradient>
<linearGradient id="paint21_linear_1146_8660" x1="35.5414" y1="167.479" x2="56.502" y2="189.292" gradientUnits="userSpaceOnUse">
<stop stop-color="#92F590"/>
<stop offset="1" stop-color="#67DE65"/>
</linearGradient>
<linearGradient id="paint22_linear_1146_8660" x1="322.199" y1="375.177" x2="343.159" y2="396.99" gradientUnits="userSpaceOnUse">
<stop stop-color="#92F590"/>
<stop offset="1" stop-color="#67DE65"/>
</linearGradient>
<linearGradient id="paint23_linear_1146_8660" x1="401.757" y1="110.875" x2="422.933" y2="111.013" gradientUnits="userSpaceOnUse">
<stop stop-color="#92F590"/>
<stop offset="1" stop-color="#67DE65"/>
</linearGradient>
</defs>
</svg>
