<svg width="301" height="300" viewBox="0 0 301 300" fill="none" xmlns="http://www.w3.org/2000/svg">
<path d="M299.252 269.53C306.487 255.211 285.808 183.615 142.423 183.615C38.9274 183.615 -8.57413 242.218 1.92751 271.916" fill="url(#paint0_radial_334_3516)"/>
<mask id="mask0_334_3516" style="mask-type:luminance" maskUnits="userSpaceOnUse" x="0" y="183" width="301" height="89">
<path d="M299.252 269.53C306.487 255.211 285.808 183.615 142.423 183.615C38.9274 183.615 -8.57413 242.218 1.92751 271.916" fill="white"/>
</mask>
<g mask="url(#mask0_334_3516)">
<ellipse opacity="0.671968" cx="120.307" cy="223.765" rx="7.88551" ry="4.38001" fill="url(#paint1_linear_334_3516)"/>
<ellipse opacity="0.729957" cx="200.793" cy="217.079" rx="12.4416" ry="6.83282" fill="url(#paint2_linear_334_3516)"/>
<ellipse opacity="0.729957" cx="59.2033" cy="198.857" rx="12.4416" ry="6.83282" fill="url(#paint3_linear_334_3516)"/>
</g>
<g opacity="0.320685">
<ellipse cx="233.189" cy="64.1957" rx="8.41121" ry="8.40963" fill="url(#paint4_linear_334_3516)"/>
<path d="M227.913 57.527C224.303 57.0182 221.664 57.4171 221.168 58.7779C220.374 60.9601 225.392 64.7895 232.376 67.3312C239.361 69.8728 245.667 70.1641 246.461 67.9819C246.961 66.6089 244.67 64.6877 241.526 62.7415" stroke="url(#paint5_linear_334_3516)" stroke-width="4.20561"/>
<path d="M241.618 64.1957C241.618 59.5512 237.852 55.7861 233.206 55.7861C228.561 55.7861 225.651 58.7556 225.051 62.1038C225.051 62.1038 229.886 65.1308 232.119 65.7813C232.831 65.9889 233.537 66.258 234.255 66.4967C235.059 66.7636 235.878 66.999 236.706 67.2032C237.273 67.343 238.051 67.559 238.776 67.6939C239.733 67.8719 240.59 67.9513 240.657 67.9513C240.776 67.9513 240.906 67.4225 241.174 66.8063C241.441 66.1901 241.618 64.1957 241.618 64.1957Z" fill="url(#paint6_linear_334_3516)"/>
</g>
<circle opacity="0.418364" cx="48.3839" cy="113.808" r="9.80769" fill="url(#paint7_linear_334_3516)"/>
<ellipse opacity="0.5" cx="154.538" cy="197.462" rx="29.4231" ry="8.07692" fill="url(#paint8_linear_334_3516)"/>
<path d="M143.26 31.1408L146.513 32.3247L86.3302 197.674C86.0032 198.573 85.01 199.036 84.1118 198.709C83.2136 198.382 82.7504 197.389 83.0774 196.491L143.26 31.1408Z" fill="#D8D8D8"/>
<path d="M143.178 31.2206L168.72 48.0497C170.82 49.4332 173.166 50.4014 175.63 50.9021C188.965 53.6117 197.659 66.5206 195.157 79.8967L189.124 112.155C189.096 112.305 188.884 112.309 188.847 112.161C186.048 100.871 175.395 93.2701 163.814 94.3632C158.538 94.8612 153.301 93.0806 149.421 89.4702L128.921 70.3911L143.178 31.2206Z" fill="#E57A77"/>
<circle cx="144.608" cy="30.6648" r="2.30769" transform="rotate(20 144.608 30.6648)" fill="#D8D8D8"/>
<path d="M105.963 130.034C105.963 130.034 107.694 129.168 107.694 129.457C107.694 129.745 107.694 132.918 107.694 132.918L106.54 133.495L105.963 130.034Z" fill="#FFE9E9"/>
<path d="M138.74 187.813C138.74 187.813 138.158 185.691 136.627 185.554C135.096 185.416 130.782 189.979 129.881 191.863C128.979 193.747 131.442 196.388 134.254 193.85C137.066 191.312 138.74 187.813 138.74 187.813Z" fill="#677285"/>
<path d="M140.543 194.004L138.784 189.097C138.076 187.121 135.384 186.87 134.322 188.68C134.11 189.042 133.993 189.447 133.999 189.866C134.029 191.851 134.352 197.853 137.165 198.663C140.543 199.635 140.543 194.004 140.543 194.004Z" fill="url(#paint9_linear_334_3516)"/>
<path d="M162.256 187.813C162.256 187.813 162.838 185.691 164.369 185.554C165.9 185.416 170.214 189.979 171.115 191.863C172.017 193.747 169.554 196.388 166.742 193.85C163.931 191.312 162.256 187.813 162.256 187.813Z" fill="#677285"/>
<path d="M160.455 194.004L162.214 189.097C162.922 187.121 165.614 186.87 166.676 188.68C166.888 189.042 167.005 189.447 166.999 189.866C166.97 191.851 166.646 197.853 163.833 198.663C160.455 199.635 160.455 194.004 160.455 194.004Z" fill="url(#paint10_linear_334_3516)"/>
<path d="M141.038 179.268C141.038 179.268 140.073 181.163 140.073 182.496C139.108 184.657 137.519 187.565 134.766 193.631C132.962 197.605 136.215 198.659 138.672 198.913C140.207 199.072 141.677 198.436 142.87 197.458L150.233 191.423L158.995 198.659C160.584 199.971 162.884 199.962 164.463 198.637C166.087 197.274 166.511 194.902 165.575 193C164.524 190.863 162.962 187.514 160.821 182.496C160.821 181.177 159.979 179.913 159.979 179.913L141.038 179.268Z" fill="url(#paint11_linear_334_3516)"/>
<path d="M162.037 164.269C163.611 166.568 163.191 172.316 163.191 172.316H158.575L160.419 184.71C160.509 185.313 160.173 185.896 159.6 186.105C157.537 186.86 152.651 188.537 149.506 188.723C146.353 188.91 141 187.276 138.743 186.529C138.133 186.327 137.788 185.708 137.958 185.088C138.45 183.296 139.75 179.203 142.86 172.316C143.823 173.443 138.383 172.316 138.383 172.316C138.383 172.316 138.723 167.198 140.114 164.269C141.505 161.341 144.729 159.385 144.729 159.385L152.882 158.146C152.882 158.146 156.268 158.808 157.998 159.73C159.729 160.652 160.463 161.97 162.037 164.269Z" fill="url(#paint12_linear_334_3516)"/>
<path d="M162.753 172.294L162.57 177.761L161.95 180.498L157.69 198.073L158.369 199.539L158.808 201.443L158.369 202.655L157.215 202.224L154.908 200.347L154.492 199.101C154.389 198.792 154.422 198.454 154.582 198.17L155.713 196.16L158.808 179.752L158.497 172.501L162.753 172.294Z" fill="#FDE7E6"/>
<path d="M138.499 172.5L138.997 177.761L139.616 180.497L143.877 198.073L143.197 199.539L142.758 201.443L143.197 202.654L144.351 202.224L146.659 200.347L147.074 199.101C147.177 198.792 147.145 198.454 146.985 198.17L145.854 196.16L142.758 179.751L142.999 172.5L138.499 172.5Z" fill="#FDE7E6"/>
<path fill-rule="evenodd" clip-rule="evenodd" d="M152.388 153.672H147.844V159.762H152.388V153.672ZM149.662 163.248C149.662 162.384 147.844 159.763 147.844 159.763H152.388C152.388 159.763 149.662 164.113 149.662 163.248Z" fill="#FECECD"/>
<ellipse cx="149.853" cy="152.664" rx="4.02909" ry="6" fill="#FFE9E9"/>
<path fill-rule="evenodd" clip-rule="evenodd" d="M145.431 153.664C145.753 152.52 145.753 149.998 146.398 149.916C147.042 149.834 148.332 150.311 149.621 149.385C150.266 148.876 150.588 148.813 150.588 148.557C153.811 149.166 151.884 151.002 153.489 153.026C153.656 153.237 154.134 153.026 154.134 153.026C154.134 153.026 154.134 148.044 153.811 147.6C153.489 147.155 152.2 145.365 151.555 146.642C151.555 146.004 150.266 145.345 148.976 145.834C147.687 146.323 145.753 147.28 145.431 148.557C145.108 149.834 144.786 152.387 145.431 153.664Z" fill="#513450"/>
<defs>
<radialGradient id="paint0_radial_334_3516" cx="0" cy="0" r="1" gradientUnits="userSpaceOnUse" gradientTransform="translate(130.611 214.238) rotate(-90) scale(51.3403 536.198)">
<stop stop-color="#EBEDF0" stop-opacity="0.24"/>
<stop offset="0.536775" stop-color="#EBEDF0" stop-opacity="0.845525"/>
<stop offset="1" stop-color="#E0E4E7" stop-opacity="0.01"/>
</radialGradient>
<linearGradient id="paint1_linear_334_3516" x1="113.96" y1="222.604" x2="116.363" y2="227.742" gradientUnits="userSpaceOnUse">
<stop stop-color="#E1E7EA"/>
<stop offset="1" stop-color="#D0D6DC"/>
</linearGradient>
<linearGradient id="paint2_linear_334_3516" x1="190.346" y1="216.44" x2="194.742" y2="225.609" gradientUnits="userSpaceOnUse">
<stop stop-color="#E1E7EA"/>
<stop offset="1" stop-color="#D0D6DC"/>
</linearGradient>
<linearGradient id="paint3_linear_334_3516" x1="51.2703" y1="198.968" x2="53.7577" y2="208.877" gradientUnits="userSpaceOnUse">
<stop stop-color="#FBFBFB"/>
<stop offset="1" stop-color="#D9DFE3"/>
</linearGradient>
<linearGradient id="paint4_linear_334_3516" x1="221.698" y1="58.4049" x2="225.904" y2="72.945" gradientUnits="userSpaceOnUse">
<stop stop-color="#ECECEC"/>
<stop offset="0.717538" stop-color="#E1E7EA"/>
<stop offset="1" stop-color="#BCC3CA"/>
</linearGradient>
<linearGradient id="paint5_linear_334_3516" x1="227.577" y1="64.3782" x2="245.41" y2="70.8691" gradientUnits="userSpaceOnUse">
<stop stop-color="#BAC6D2"/>
<stop offset="1" stop-color="#7F8F9F"/>
</linearGradient>
<linearGradient id="paint6_linear_334_3516" x1="230.096" y1="63.472" x2="232.846" y2="69.0283" gradientUnits="userSpaceOnUse">
<stop stop-color="#E1E7EA"/>
<stop offset="1" stop-color="#D0D6DC"/>
</linearGradient>
<linearGradient id="paint7_linear_334_3516" x1="61.2777" y1="116.719" x2="51.4843" y2="100.179" gradientUnits="userSpaceOnUse">
<stop stop-color="#DAE2E6"/>
<stop offset="0.58" stop-color="#E3EBEF"/>
<stop offset="1" stop-color="#EDF6F9"/>
</linearGradient>
<linearGradient id="paint8_linear_334_3516" x1="132.453" y1="198.419" x2="148.979" y2="224.128" gradientUnits="userSpaceOnUse">
<stop stop-color="#C4CDD1"/>
<stop offset="1" stop-color="#C6CFD3" stop-opacity="0.01"/>
</linearGradient>
<linearGradient id="paint9_linear_334_3516" x1="140.543" y1="198.806" x2="140.543" y2="185.997" gradientUnits="userSpaceOnUse">
<stop stop-color="#7A87AF"/>
<stop offset="1" stop-color="#444F77"/>
</linearGradient>
<linearGradient id="paint10_linear_334_3516" x1="160.455" y1="198.806" x2="160.455" y2="185.997" gradientUnits="userSpaceOnUse">
<stop stop-color="#7A87AF"/>
<stop offset="1" stop-color="#444F77"/>
</linearGradient>
<linearGradient id="paint11_linear_334_3516" x1="166.118" y1="199.606" x2="166.118" y2="179.268" gradientUnits="userSpaceOnUse">
<stop stop-color="#7A87AF"/>
<stop offset="1" stop-color="#444F77"/>
</linearGradient>
<linearGradient id="paint12_linear_334_3516" x1="176.111" y1="172.116" x2="149.891" y2="200.22" gradientUnits="userSpaceOnUse">
<stop stop-color="#E5E9F0"/>
<stop offset="1" stop-color="#D2DAE8"/>
</linearGradient>
</defs>
</svg>
