<svg width="301" height="300" viewBox="0 0 301 300" fill="none" xmlns="http://www.w3.org/2000/svg">
<path d="M299.252 276.3C306.487 261.98 285.808 190.385 142.423 190.385C38.9274 190.385 -8.57413 248.987 1.92751 278.686" fill="url(#paint0_radial_334_2477)"/>
<mask id="mask0_334_2477" style="mask-type:luminance" maskUnits="userSpaceOnUse" x="0" y="190" width="301" height="89">
<path d="M299.252 276.3C306.487 261.98 285.808 190.385 142.423 190.385C38.9274 190.385 -8.57413 248.987 1.92751 278.686" fill="white"/>
</mask>
<g mask="url(#mask0_334_2477)">
<ellipse opacity="0.671968" cx="120.307" cy="230.535" rx="7.88551" ry="4.38001" fill="url(#paint1_linear_334_2477)"/>
<ellipse opacity="0.729957" cx="200.793" cy="223.849" rx="12.4416" ry="6.83282" fill="url(#paint2_linear_334_2477)"/>
<ellipse opacity="0.729957" cx="59.2033" cy="205.627" rx="12.4416" ry="6.83282" fill="url(#paint3_linear_334_2477)"/>
</g>
<g opacity="0.320685">
<ellipse cx="233.189" cy="70.9654" rx="8.41121" ry="8.40963" fill="url(#paint4_linear_334_2477)"/>
<path d="M240.844 76.0981C238.448 75.9873 235.313 75.2943 232.102 74.1257C228.891 72.9572 226.045 71.4738 224.138 70.0187C223.333 69.4043 222.745 68.8302 222.415 68.3635C222.512 68.3383 222.621 68.3144 222.743 68.293C223.668 68.1303 225.018 68.1532 226.626 68.3799L227.213 64.2154C222.553 63.5586 219.173 64.1529 218.199 66.8293C216.782 70.7223 222.553 75.1262 230.664 78.0778C238.775 81.0295 246.027 81.3645 247.444 77.4718C248.438 74.7417 246.261 72.585 241.639 69.7241L239.426 73.3001C240.998 74.2733 242.172 75.1331 242.887 75.8409C242.936 75.8903 242.983 75.9381 243.027 75.9842C242.484 76.0956 241.739 76.1394 240.844 76.0981Z" fill="url(#paint5_linear_334_2477)"/>
<path d="M241.616 70.9654C241.616 66.3209 237.85 62.5558 233.204 62.5558C228.559 62.5558 225.649 65.5253 225.049 68.8735C225.049 68.8735 229.884 71.9005 232.117 72.551C232.829 72.7586 233.535 73.0277 234.253 73.2664C235.057 73.5333 235.876 73.7687 236.704 73.9729C237.271 74.1127 238.049 74.3287 238.774 74.4636C239.731 74.6416 240.588 74.721 240.655 74.721C240.774 74.721 240.904 74.1922 241.172 73.576C241.439 72.9598 241.616 70.9654 241.616 70.9654Z" fill="url(#paint6_linear_334_2477)"/>
</g>
<circle opacity="0.418364" cx="48.3858" cy="120.576" r="9.80769" fill="url(#paint7_linear_334_2477)"/>
<ellipse opacity="0.425921" cx="154.538" cy="204.23" rx="29.4231" ry="8.07692" fill="url(#paint8_linear_334_2477)"/>
<path d="M134.229 158.077C134.229 158.077 133.423 160.41 133.423 162.05C132.617 176.331 134.614 199.616 134.614 199.616H137.716L142.295 164.581L148.501 199.616H151.552C151.552 199.616 151.955 177.125 150.746 162.05C150.746 160.427 150.044 158.871 150.044 158.871L134.229 158.077Z" fill="url(#paint9_linear_334_2477)"/>
<path d="M131.499 140L125.35 141.455L123.252 140.898L109.922 138.962L106.703 138.962L106.69 134.701L107.484 136.337L108.913 136.786C108.913 136.786 109.683 135.23 109.922 135.496C110.16 135.761 110.264 136.854 110.264 136.854L111.455 137.471L125.646 137.471L128.999 135.5L131.499 140Z" fill="#FDE7E6"/>
<path d="M151.501 140L157.834 141.455L159.932 140.898L173.262 138.962L176.909 137.103L178.148 134.628L177.685 134.562L175.7 136.337L174.271 136.786C174.271 136.786 173.501 135.23 173.262 135.496C173.024 135.761 172.92 136.854 172.92 136.854L171.729 137.471L157.538 137.471L154.001 135.5L151.501 140Z" fill="#FDE7E6"/>
<path d="M155.115 135.761L153.164 140.513H148.393L150.5 160.247C150.5 160.247 144.483 161.258 141.302 161.504C138.12 161.749 133.594 160.247 133.594 160.247C133.594 160.247 133.594 153.366 133.594 141.015L129.357 140.513L128.577 135.761C128.577 135.761 132.533 132.984 133.594 132.522C134.654 132.06 138.237 131.538 138.237 131.538L143.906 131.538C143.906 131.538 148.41 131.712 149.261 132.522C150.113 133.332 155.115 135.761 155.115 135.761Z" fill="url(#paint10_linear_334_2477)"/>
<path fill-rule="evenodd" clip-rule="evenodd" d="M143.521 128.077H139.971V132.789H143.521V128.077ZM141.391 135.485C141.391 134.817 139.971 132.789 139.971 132.789H143.521C143.521 132.789 141.391 136.154 141.391 135.485Z" fill="#FECECD"/>
<ellipse cx="141.577" cy="126.642" rx="3.7368" ry="5.29623" fill="#FFE9E9"/>
<path fill-rule="evenodd" clip-rule="evenodd" d="M137.476 126.986C137.775 125.987 137.775 123.785 138.373 123.713C138.971 123.641 140.167 124.058 141.362 123.249C141.96 122.805 142.259 122.749 142.259 122.526C145.249 123.058 143.461 124.661 144.95 126.428C145.105 126.612 145.548 126.428 145.548 126.428C145.548 126.428 145.548 122.078 145.249 121.69C144.95 121.302 143.754 119.739 143.156 120.854C143.156 120.297 141.96 119.721 140.764 120.148C139.569 120.575 137.775 121.411 137.476 122.526C137.177 123.641 136.878 125.871 137.476 126.986Z" fill="#513450"/>
<path d="M134.853 199.615L134.023 201.028C133.478 201.954 133.191 203.009 133.191 204.083C133.191 204.165 133.257 204.231 133.339 204.231H137.196C137.533 204.231 137.807 203.957 137.807 203.62C137.807 202.498 137.601 201.386 137.199 200.339L136.921 199.615H134.853Z" fill="#677285"/>
<path d="M151.147 199.615L151.977 201.028C152.522 201.954 152.809 203.009 152.809 204.083C152.809 204.165 152.743 204.231 152.661 204.231H148.804C148.467 204.231 148.193 203.957 148.193 203.62C148.193 202.498 148.399 201.386 148.801 200.339L149.079 199.615H151.147Z" fill="#677285"/>
<path d="M106.703 26.293H110.165V202.255C110.165 203.21 109.39 203.985 108.434 203.985C107.478 203.985 106.703 203.21 106.703 202.255V26.293Z" fill="#D8D8D8"/>
<path d="M106.654 26.3961L127.894 31.4479C135.717 33.3089 143.96 31.9755 150.798 27.7429C160.446 21.7712 172.247 20.3891 183.014 23.97L190.308 26.3961L184.539 69.5646L182.915 68.9019C172.468 64.6393 160.538 66.2942 151.646 73.2397C144.529 78.798 134.959 80.0621 126.643 76.542L106.654 68.0804V26.3961Z" fill="#8ED28E"/>
<path d="M157.874 36.5194C159.025 35.2137 161.007 35.1098 162.289 36.288C163.556 37.4534 163.66 39.4354 162.521 40.727L143.51 62.2891C142.951 62.923 142.174 63.2932 141.351 63.3363C140.528 63.3795 139.717 63.0925 139.095 62.5206L127.963 52.2851C126.695 51.1197 126.591 49.1377 127.73 47.8462C128.881 46.5405 130.863 46.4367 132.145 47.6148L140.951 55.7121L157.874 36.5194Z" fill="white"/>
<mask id="mask1_334_2477" style="mask-type:luminance" maskUnits="userSpaceOnUse" x="126" y="35" width="38" height="29">
<path d="M157.874 36.5194C159.025 35.2137 161.007 35.1098 162.289 36.288C163.556 37.4534 163.66 39.4354 162.521 40.727L143.51 62.2891C142.951 62.923 142.174 63.2932 141.351 63.3363C140.528 63.3795 139.717 63.0925 139.095 62.5206L127.963 52.2851C126.695 51.1197 126.591 49.1377 127.73 47.8462C128.881 46.5405 130.863 46.4367 132.145 47.6148L140.951 55.7121L157.874 36.5194Z" fill="white"/>
</mask>
<g mask="url(#mask1_334_2477)">
<path opacity="0.8" d="M141.093 55.5293L133.708 63.4267L125.628 58.073L137.153 46.4924L141.093 55.5293Z" fill="url(#paint11_linear_334_2477)"/>
</g>
<path d="M105.961 135.649C105.961 135.649 107.692 134.784 107.692 135.072C107.692 135.361 107.692 138.534 107.692 138.534L106.538 139.111L105.961 135.649Z" fill="#FFE9E9"/>
<defs>
<radialGradient id="paint0_radial_334_2477" cx="0" cy="0" r="1" gradientUnits="userSpaceOnUse" gradientTransform="translate(130.611 221.008) rotate(-90) scale(51.3403 536.198)">
<stop stop-color="#EBEDF0" stop-opacity="0.24"/>
<stop offset="0.536775" stop-color="#EBEDF0" stop-opacity="0.845525"/>
<stop offset="1" stop-color="#E0E4E7" stop-opacity="0.01"/>
</radialGradient>
<linearGradient id="paint1_linear_334_2477" x1="113.96" y1="229.374" x2="116.363" y2="234.511" gradientUnits="userSpaceOnUse">
<stop stop-color="#E1E7EA"/>
<stop offset="1" stop-color="#D0D6DC"/>
</linearGradient>
<linearGradient id="paint2_linear_334_2477" x1="190.346" y1="223.21" x2="194.742" y2="232.379" gradientUnits="userSpaceOnUse">
<stop stop-color="#E1E7EA"/>
<stop offset="1" stop-color="#D0D6DC"/>
</linearGradient>
<linearGradient id="paint3_linear_334_2477" x1="51.2703" y1="205.738" x2="53.7577" y2="215.647" gradientUnits="userSpaceOnUse">
<stop stop-color="#FBFBFB"/>
<stop offset="1" stop-color="#D9DFE3"/>
</linearGradient>
<linearGradient id="paint4_linear_334_2477" x1="221.698" y1="65.1746" x2="225.904" y2="79.7147" gradientUnits="userSpaceOnUse">
<stop stop-color="#ECECEC"/>
<stop offset="0.717538" stop-color="#E1E7EA"/>
<stop offset="1" stop-color="#BCC3CA"/>
</linearGradient>
<linearGradient id="paint5_linear_334_2477" x1="225.263" y1="74.2534" x2="245.884" y2="81.7585" gradientUnits="userSpaceOnUse">
<stop stop-color="#BAC6D2"/>
<stop offset="1" stop-color="#7F8F9F"/>
</linearGradient>
<linearGradient id="paint6_linear_334_2477" x1="230.094" y1="70.2417" x2="232.844" y2="75.798" gradientUnits="userSpaceOnUse">
<stop stop-color="#E1E7EA"/>
<stop offset="1" stop-color="#D0D6DC"/>
</linearGradient>
<linearGradient id="paint7_linear_334_2477" x1="61.2797" y1="123.488" x2="51.4863" y2="106.948" gradientUnits="userSpaceOnUse">
<stop stop-color="#DAE2E6"/>
<stop offset="0.58" stop-color="#E3EBEF"/>
<stop offset="1" stop-color="#EDF6F9"/>
</linearGradient>
<linearGradient id="paint8_linear_334_2477" x1="132.453" y1="205.188" x2="148.979" y2="230.897" gradientUnits="userSpaceOnUse">
<stop stop-color="#C4CDD1"/>
<stop offset="1" stop-color="#C6CFD3" stop-opacity="0.01"/>
</linearGradient>
<linearGradient id="paint9_linear_334_2477" x1="151.584" y1="199.616" x2="151.584" y2="158.389" gradientUnits="userSpaceOnUse">
<stop stop-color="#A1A7B8"/>
<stop offset="1" stop-color="#7B8195"/>
</linearGradient>
<linearGradient id="paint10_linear_334_2477" x1="168.541" y1="145.236" x2="143.001" y2="174.448" gradientUnits="userSpaceOnUse">
<stop stop-color="#E5E9F0"/>
<stop offset="1" stop-color="#D2DAE8"/>
</linearGradient>
<linearGradient id="paint11_linear_334_2477" x1="129.327" y1="55.145" x2="136.797" y2="60.4144" gradientUnits="userSpaceOnUse">
<stop stop-color="#67D666" stop-opacity="0.01"/>
<stop offset="1" stop-color="#67D666" stop-opacity="0.2"/>
</linearGradient>
</defs>
</svg>
