<svg width="98" height="98" viewBox="0 0 98 98" fill="none" xmlns="http://www.w3.org/2000/svg">
<g id="Phone_duotone">
<path id="Vector 189" d="M72.304 55.9707L83.1172 66.7839C84.5712 68.2379 84.5712 70.5954 83.1172 72.0495C75.2559 79.9108 62.8103 80.7952 53.9163 74.1247L47.4833 69.3C40.3639 63.9604 34.0396 57.6361 28.7 50.5167L23.8753 44.0837C17.2047 35.1897 18.0892 22.7441 25.9505 14.8828C27.4046 13.4287 29.7621 13.4287 31.2161 14.8828L42.0293 25.696C43.624 27.2906 43.624 29.876 42.0293 31.4707L37.8596 35.6404C37.197 36.303 37.0327 37.3154 37.4518 38.1536C42.2973 47.8446 50.1554 55.7027 59.8464 60.5482C60.6846 60.9673 61.697 60.803 62.3596 60.1404L66.5293 55.9707C68.124 54.376 70.7094 54.376 72.304 55.9707Z" fill="#ECECEC"/>
<path id="Intersect" fill-rule="evenodd" clip-rule="evenodd" d="M83.1172 72.0495C84.5702 70.5965 84.5712 68.2413 83.1203 66.787C83.1193 66.7859 83.1182 66.7849 83.1172 66.7839L72.304 55.9707C72.303 55.9697 72.3021 55.9687 72.3011 55.9678C70.7062 54.376 68.123 54.377 66.5293 55.9707L63.2917 59.2083L79.2363 75.153C80.6171 74.2816 81.9203 73.2464 83.1172 72.0495ZM38.7917 34.7083L42.0293 31.4707C43.623 29.877 43.624 27.2937 42.0322 25.6989C42.0312 25.6979 42.0303 25.6969 42.0293 25.696L31.2161 14.8828C29.7625 13.4291 27.4058 13.4287 25.9517 14.8817C25.9513 14.8821 25.9509 14.8824 25.9505 14.8828C25.9496 14.8837 25.9487 14.8847 25.9478 14.8856C24.752 16.0817 23.7177 17.384 22.847 18.7637L38.7917 34.7083Z" fill="#135C0E"/>
</g>
</svg>
