<svg width="98" height="98" viewBox="0 0 98 98" fill="none" xmlns="http://www.w3.org/2000/svg">
<g id="Pin_alt_duotone">
<path id="Ellipse 40" d="M79.0581 73.5C82.1044 75.3622 83.7082 77.4747 83.7082 79.625C83.7082 81.7753 82.1044 83.8878 79.0581 85.75C76.0118 87.6122 71.6303 89.1586 66.354 90.2338C61.0777 91.309 55.0924 91.875 48.9998 91.875C42.9073 91.875 36.922 91.309 31.6457 90.2338C26.3693 89.1586 21.9878 87.6122 18.9415 85.75C15.8952 83.8878 14.2915 81.7753 14.2915 79.625C14.2915 77.4747 15.8952 75.3622 18.9415 73.5" stroke="#ECECEC" stroke-width="4.08333" stroke-linecap="round"/>
<path id="Ellipse 4" d="M77.5832 40.8333C77.5832 61.3167 56.6805 73.6421 50.6252 76.7829C49.5926 77.3184 48.407 77.3184 47.3745 76.7829C41.3192 73.6421 20.4165 61.3167 20.4165 40.8333C20.4165 25.0472 33.2137 12.25 48.9998 12.25C64.786 12.25 77.5832 25.0472 77.5832 40.8333Z" fill="#ECECEC"/>
<circle id="Ellipse 5" cx="49" cy="40.8333" r="12.25" fill="#135C0E"/>
</g>
</svg>
