<svg width="60" height="60" viewBox="0 0 60 60" fill="none" xmlns="http://www.w3.org/2000/svg">
<g id="flaticon-102649-security" clip-path="url(#clip0_85_476)">
<g id="Group">
<path id="Vector" d="M55.1431 15.4489C55.1123 13.829 55.0829 12.2987 55.0829 10.8182C55.0829 9.65836 54.1429 8.71805 52.9828 8.71805C44.0011 8.71805 37.1628 6.13682 31.4627 0.594658C30.6472 -0.19836 29.3496 -0.198079 28.5345 0.594658C22.835 6.13682 15.9977 8.71805 7.0166 8.71805C5.85675 8.71805 4.91644 9.65836 4.91644 10.8182C4.91644 12.299 4.88732 13.8298 4.85624 15.45C4.56838 30.5252 4.17411 51.1714 29.3107 59.8842C29.5336 59.9615 29.766 60.0002 29.9984 60.0002C30.2309 60.0002 30.4635 59.9615 30.6862 59.8842C55.8247 51.1711 55.431 30.5244 55.1431 15.4489ZM29.9987 55.6713C8.44078 47.84 8.76672 30.6845 9.05598 15.5301C9.07335 14.6206 9.09015 13.7391 9.10191 12.875C17.5137 12.5199 24.2404 9.97086 29.9987 4.95458C35.7576 9.97086 42.4854 12.5202 50.8978 12.875C50.9095 13.7388 50.9263 14.6198 50.9437 15.5287C51.2327 30.6837 51.5583 47.8397 29.9987 55.6713Z" fill="#C2C2C2"/>
<path id="Vector_2" d="M37.2308 22.7039L27.0943 32.8398L22.7689 28.5143C21.9487 27.6944 20.6189 27.6944 19.799 28.5143C18.9788 29.3347 18.9788 30.6643 19.799 31.4845L25.6094 37.2949C26.0193 37.7048 26.557 37.9098 27.0943 37.9098C27.6317 37.9098 28.1693 37.7048 28.5793 37.2949L40.2004 25.674C41.0209 24.8539 41.0209 23.524 40.2007 22.7041C39.3808 21.884 38.051 21.8837 37.2308 22.7039Z" fill="#C2C2C2"/>
</g>
</g>
<defs>
<clipPath id="clip0_85_476">
<rect width="60" height="60" fill="white"/>
</clipPath>
</defs>
</svg>
