<svg width="60" height="60" viewBox="0 0 60 60" fill="none" xmlns="http://www.w3.org/2000/svg">
<g id="flaticon-9330504-call" clip-path="url(#clip0_85_468)">
<g id="Group">
<path id="Vector" d="M19.3771 40.6231C12.1445 33.3905 7.15468 26.9056 3.78941 21.7864C-0.170476 15.7628 1.85253 7.64349 8.18218 4.19396L11.9631 2.13346C13.3873 1.35732 15.1694 1.81881 16.0378 3.18873L20.2566 9.84392C20.8422 10.7677 20.6491 11.9828 19.8059 12.6795L15.4169 16.3059C14.5032 17.0609 14.3058 18.3837 14.9619 19.3709C16.7032 21.9912 20.5144 27.2616 26.6266 33.3738C32.7387 39.4859 38.009 43.2971 40.6294 45.0384C41.6166 45.6944 42.9394 45.4972 43.6944 44.5834L47.3208 40.1944C48.0175 39.3513 49.2326 39.1581 50.1564 39.7437L56.8116 43.9625C58.1815 44.8308 58.6431 46.613 57.8669 48.0372L55.8063 51.8181C52.3568 58.1478 44.2375 60.1708 38.2139 56.2109C33.0946 52.8455 26.6096 47.8557 19.3771 40.6231Z" stroke="#C2C2C2" stroke-width="3.51562" stroke-miterlimit="10" stroke-linejoin="round"/>
<path id="Vector_2" d="M55.6216 52.1444L43.6941 44.5837" stroke="#C2C2C2" stroke-width="3.51562" stroke-miterlimit="10" stroke-linejoin="round"/>
<path id="Vector_3" d="M15.4164 16.3061L7.85571 4.37866" stroke="#C2C2C2" stroke-width="3.51562" stroke-miterlimit="10" stroke-linejoin="round"/>
<path id="Vector_4" d="M33.5305 21.5271C36.2602 21.5271 38.4729 23.7398 38.4729 26.4695" stroke="#C2C2C2" stroke-width="3.51562" stroke-miterlimit="10" stroke-linecap="round" stroke-linejoin="round"/>
<path id="Vector_5" d="M33.5305 11.6428C41.7193 11.6428 48.3577 18.2811 48.3577 26.47" stroke="#C2C2C2" stroke-width="3.51562" stroke-miterlimit="10" stroke-linecap="round" stroke-linejoin="round"/>
<path id="Vector_6" d="M33.5305 1.75757C47.1785 1.75757 58.2424 12.8215 58.2424 26.4695" stroke="#C2C2C2" stroke-width="3.51562" stroke-miterlimit="10" stroke-linecap="round" stroke-linejoin="round"/>
</g>
</g>
<defs>
<clipPath id="clip0_85_468">
<rect width="60" height="60" fill="#C2C2C2"/>
</clipPath>
</defs>
</svg>
