<svg width="60" height="61" viewBox="0 0 60 61" fill="none" xmlns="http://www.w3.org/2000/svg">
<g id="flaticon-2875986-cubes (1)" clip-path="url(#clip0_85_446)">
<g id="g2196">
<g id="g2198">
<g id="g2200">
<g id="g2206">
<path id="path2208" d="M58.1262 32.8425L44.0706 37.5277V58.7283L58.1262 54.0431V32.8425Z" stroke="#C2C2C2" stroke-width="3.51391" stroke-miterlimit="10" stroke-linecap="round" stroke-linejoin="round"/>
</g>
<g id="g2210">
<path id="path2212" d="M30.0146 32.8425L44.0703 37.5277V58.7283L30.0146 54.0431V32.8425Z" stroke="#C2C2C2" stroke-width="3.51391" stroke-miterlimit="10" stroke-linecap="round" stroke-linejoin="round"/>
</g>
<g id="g2214">
<path id="path2216" d="M58.1259 32.8424L44.0703 37.5276L30.0146 32.8424L44.0703 28.1572L58.1259 32.8424Z" stroke="#C2C2C2" stroke-width="3.51391" stroke-miterlimit="10" stroke-linecap="round" stroke-linejoin="round"/>
</g>
<g id="g2218">
<path id="path2220" d="M30.0146 32.8425L15.959 37.5277V58.7283L30.0146 54.0431V32.8425Z" stroke="#C2C2C2" stroke-width="3.51391" stroke-miterlimit="10" stroke-linecap="round" stroke-linejoin="round"/>
</g>
<g id="g2222">
<path id="path2224" d="M1.90356 32.8427L15.9592 37.5279V58.7285L1.90356 54.0433V32.8427Z" stroke="#C2C2C2" stroke-width="3.51391" stroke-miterlimit="10" stroke-linecap="round" stroke-linejoin="round"/>
</g>
<g id="g2226">
<path id="path2228" d="M30.0148 32.8424L15.9592 37.5276L1.90356 32.8424L15.9592 28.1572L30.0148 32.8424Z" stroke="#C2C2C2" stroke-width="3.51391" stroke-miterlimit="10" stroke-linecap="round" stroke-linejoin="round"/>
</g>
<g id="g2230">
<path id="path2232" d="M44.0703 6.95674L30.0146 11.642V32.8425L44.0703 28.1573V6.95674Z" stroke="#C2C2C2" stroke-width="3.51391" stroke-miterlimit="10" stroke-linecap="round" stroke-linejoin="round"/>
</g>
<g id="g2234">
<path id="path2236" d="M15.959 6.95674L30.0146 11.642V32.8425L15.959 28.1573V6.95674Z" stroke="#C2C2C2" stroke-width="3.51391" stroke-miterlimit="10" stroke-linecap="round" stroke-linejoin="round"/>
</g>
<g id="g2238">
<path id="path2240" d="M44.0702 6.95664L30.0146 11.6418L15.959 6.95664L30.0146 2.27142L44.0702 6.95664Z" stroke="#C2C2C2" stroke-width="3.51391" stroke-miterlimit="10" stroke-linecap="round" stroke-linejoin="round"/>
</g>
</g>
</g>
</g>
</g>
<defs>
<clipPath id="clip0_85_446">
<rect width="59.9707" height="59.9707" fill="#C2C2C2" transform="translate(0.0292969 0.514648)"/>
</clipPath>
</defs>
</svg>
