<svg width="60" height="60" viewBox="0 0 60 60" fill="none" xmlns="http://www.w3.org/2000/svg">
<g id="flaticon-3144448-shipping" clip-path="url(#clip0_85_495)">
<path id="Vector" d="M55.3477 31.1019V3.77964C55.3477 2.80489 54.5574 2.01465 53.5827 2.01465H6.29486C5.32012 2.01465 4.52987 2.80489 4.52987 3.77964V33.28C3.67844 33.404 2.84608 33.7346 2.10972 34.2812C-0.211593 35.9273 -0.760622 39.6109 1.18381 41.8827L9.13367 51.5203C14.0547 57.2797 19.2822 57.9854 27.0536 57.9854C33.7226 57.9854 36.7041 58.0148 42.5162 56.6905L48.1757 55.3368C49.0934 56.6183 50.5502 57.4485 52.188 57.4485H54.976C57.7461 57.4485 59.9997 55.0743 59.9997 52.1561V36.3784C59.9998 33.5919 57.9447 31.3031 55.3477 31.1019ZM47.4144 34.7326L45.0627 33.5382C41.1961 31.5864 36.7256 31.5142 32.7979 33.3403C31.7264 33.7617 29.3892 35.1758 28.1768 35.1285H20.0165C17.3097 35.1285 15.1075 37.3307 15.1075 40.0376V41.3247C15.0923 41.3087 15.0764 41.2935 15.0614 41.2773L9.23404 34.9519C8.8814 34.5692 8.48522 34.2489 8.05997 33.9919V16.481H22.5038V22.9509C22.5038 23.9257 23.2941 24.7159 24.2688 24.7159H35.406C36.3808 24.7159 37.171 23.9257 37.171 22.9509V16.481H51.8178V31.1018C49.7556 31.2611 48.036 32.7364 47.4144 34.7326ZM26.0337 16.481H33.6409V21.186H26.0337V16.481ZM51.8177 12.951H37.171V5.54463H51.8178V12.951H51.8177ZM33.641 5.54463V12.9511H26.0338V5.54463H33.641ZM22.5037 5.54463V12.9511H8.05985V5.54463H22.5037ZM41.697 53.2567C36.3279 54.4865 33.0943 54.4367 27.1169 54.4367C19.8216 54.4367 16.2967 54.3188 11.8569 49.274L3.90707 39.6363C2.52426 37.8357 5.0289 35.71 6.63786 37.3435L12.4653 43.669C14.0054 45.2941 15.9435 46.1884 18.3322 46.241H34.4887C35.4634 46.241 36.2537 45.4508 36.2537 44.476C36.2537 43.5013 35.4634 42.7111 34.4887 42.7111H18.6373V40.0373C18.6373 39.277 19.2559 38.6583 20.0164 38.6583H28.1767C30.0151 38.79 32.6686 37.2549 34.2861 36.541C37.2277 35.1733 40.576 35.2274 43.4681 36.6871L47.1645 38.5646V51.9489L41.697 53.2567ZM56.4699 52.156C56.4699 53.1278 55.7998 53.9184 54.9761 53.9184H52.1881C51.3645 53.9184 50.6945 53.1278 50.6945 52.156V36.3784C50.6945 35.4066 51.3646 34.6159 52.1881 34.6159H54.9761C55.7998 34.6159 56.4699 35.4065 56.4699 36.3784V52.156Z" fill="#C2C2C2"/>
</g>
<defs>
<clipPath id="clip0_85_495">
<rect width="60" height="60" fill="#C2C2C2"/>
</clipPath>
</defs>
</svg>
