<svg width="32" height="32" viewBox="0 0 32 32" fill="none" xmlns="http://www.w3.org/2000/svg">
<g id="User Interface / Research">
<path id="Vector" d="M28.093 22.44L25.333 19.6133C24.7393 19.049 23.9904 18.6751 23.1826 18.5397C22.3748 18.4042 21.5449 18.5135 20.7997 18.8533L19.5997 17.6533C21.0137 15.7639 21.6595 13.4089 21.407 11.0625C21.1546 8.71601 20.0226 6.55231 18.2389 5.00695C16.4552 3.46158 14.1524 2.64929 11.7939 2.73359C9.43539 2.8179 7.19639 3.79253 5.52762 5.46131C3.85885 7.13008 2.88421 9.36907 2.79991 11.7276C2.7156 14.0861 3.5279 16.3889 5.07326 18.1726C6.61863 19.9562 8.78232 21.0883 11.1288 21.3407C13.4752 21.5932 15.8302 20.9474 17.7197 19.5333L18.9063 20.72C18.5264 21.4662 18.3903 22.3128 18.5171 23.1404C18.6439 23.9681 19.0272 24.7351 19.613 25.3333L22.4397 28.16C23.1897 28.9091 24.2063 29.3298 25.2663 29.3298C26.3263 29.3298 27.343 28.9091 28.093 28.16C28.474 27.7875 28.7767 27.3426 28.9834 26.8515C29.19 26.3603 29.2965 25.8329 29.2965 25.3C29.2965 24.7672 29.19 24.2397 28.9834 23.7486C28.7767 23.2574 28.474 22.8125 28.093 22.44ZM16.7863 16.7867C15.8533 17.7173 14.6654 18.3506 13.3726 18.6065C12.0799 18.8623 10.7403 18.7293 9.52313 18.2243C8.30594 17.7192 7.26574 16.8647 6.53394 15.7687C5.80215 14.6728 5.41158 13.3845 5.41158 12.0667C5.41158 10.7489 5.80215 9.46059 6.53394 8.36463C7.26574 7.26867 8.30594 6.41418 9.52313 5.9091C10.7403 5.40402 12.0799 5.27101 13.3726 5.52688C14.6654 5.78275 15.8533 6.41602 16.7863 7.34668C17.4072 7.96596 17.8997 8.70163 18.2358 9.51156C18.5719 10.3215 18.7449 11.1898 18.7449 12.0667C18.7449 12.9436 18.5719 13.8119 18.2358 14.6218C17.8997 15.4317 17.4072 16.1674 16.7863 16.7867ZM26.213 26.2133C26.089 26.3383 25.9416 26.4375 25.7791 26.5052C25.6166 26.5729 25.4423 26.6077 25.2663 26.6077C25.0903 26.6077 24.916 26.5729 24.7536 26.5052C24.5911 26.4375 24.4436 26.3383 24.3197 26.2133L21.493 23.3867C21.368 23.2627 21.2688 23.1153 21.2011 22.9528C21.1334 22.7903 21.0986 22.616 21.0986 22.44C21.0986 22.264 21.1334 22.0897 21.2011 21.9272C21.2688 21.7648 21.368 21.6173 21.493 21.4933C21.6169 21.3684 21.7644 21.2692 21.9269 21.2015C22.0894 21.1338 22.2636 21.0989 22.4397 21.0989C22.6157 21.0989 22.79 21.1338 22.9524 21.2015C23.1149 21.2692 23.2624 21.3684 23.3863 21.4933L26.213 24.32C26.338 24.444 26.4372 24.5914 26.5048 24.7539C26.5725 24.9164 26.6074 25.0907 26.6074 25.2667C26.6074 25.4427 26.5725 25.617 26.5048 25.7794C26.4372 25.9419 26.338 26.0894 26.213 26.2133Z" fill="black"/>
</g>
</svg>
