<svg width="41" height="41" viewBox="0 0 41 41" fill="none" xmlns="http://www.w3.org/2000/svg">
<g id="flaticon-4516409-shop" clip-path="url(#clip0_85_768)">
<g id="g1551">
<g id="g1553">
<g id="g1555">
<g id="g1561">
<path id="path1563" d="M7.94935 14.224H1.67334V17.3633C1.67334 19.0954 3.07787 20.5 4.81006 20.5H4.81264C6.54475 20.5 7.94935 19.0954 7.94935 17.3633V14.224Z" stroke="black" stroke-width="2.3098" stroke-miterlimit="10" stroke-linecap="round" stroke-linejoin="round"/>
</g>
<g id="g1565">
<path id="path1567" d="M20.5006 14.224H14.2246V17.3633C14.2246 19.0954 15.6292 20.5 17.3614 20.5H17.3639C19.096 20.5 20.5006 19.0954 20.5006 17.3633V14.224Z" stroke="black" stroke-width="2.3098" stroke-miterlimit="10" stroke-linecap="round" stroke-linejoin="round"/>
</g>
<g id="g1569">
<path id="path1571" d="M33.0522 14.224H26.7761V17.3633C26.7761 19.0954 28.1807 20.5 29.9128 20.5H29.9155C31.6476 20.5 33.0522 19.0954 33.0522 17.3633V14.224Z" stroke="black" stroke-width="2.3098" stroke-miterlimit="10" stroke-linecap="round" stroke-linejoin="round"/>
</g>
<g id="g1573">
<path id="path1575" d="M14.2246 14.224H7.94922V17.3633C7.94922 19.0954 9.3532 20.5 11.086 20.5H11.0879C12.8207 20.5 14.2246 19.0954 14.2246 17.3633V14.224Z" stroke="black" stroke-width="2.3098" stroke-miterlimit="10" stroke-linecap="round" stroke-linejoin="round"/>
</g>
<g id="g1577">
<path id="path1579" d="M26.7761 14.224H20.5007V17.3633C20.5007 19.0954 21.9053 20.5 23.6375 20.5H23.6394C25.3721 20.5 26.7761 19.0954 26.7761 17.3633V14.224Z" stroke="black" stroke-width="2.3098" stroke-miterlimit="10" stroke-linecap="round" stroke-linejoin="round"/>
</g>
<g id="g1581">
<path id="path1583" d="M39.3283 14.224H33.0522V17.3633C33.0522 19.0954 34.4569 20.5 36.189 20.5H36.1915C37.9237 20.5 39.3283 19.0954 39.3283 17.3633V14.224Z" stroke="black" stroke-width="2.3098" stroke-miterlimit="10" stroke-linecap="round" stroke-linejoin="round"/>
</g>
<g id="g1585">
<path id="path1587" d="M35.5625 4.18221C35.5625 3.51635 35.2983 2.87807 34.8269 2.40729C34.3563 1.93658 33.718 1.67174 33.0521 1.67174H7.94797C7.28203 1.67174 6.64375 1.93658 6.17305 2.40729C5.70172 2.87807 5.4375 3.51635 5.4375 4.18221V7.94775H35.5625V4.18221Z" stroke="black" stroke-width="2.3098" stroke-miterlimit="10" stroke-linecap="round" stroke-linejoin="round"/>
</g>
<g id="g1589">
<path id="path1591" d="M4.18237 20.5V39.3281H23.0105V25.5209H31.7969V39.3281H36.8178V20.5" stroke="black" stroke-width="2.3098" stroke-miterlimit="10" stroke-linecap="round" stroke-linejoin="round"/>
</g>
<path id="path1593" d="M9.20337 34.3071H17.9899V25.5206H9.20337V34.3071Z" stroke="black" stroke-width="2.3098" stroke-miterlimit="10" stroke-linecap="round" stroke-linejoin="round"/>
<g id="g1595">
<path id="path1597" d="M10.4584 7.94803H5.4375L1.67188 14.2241H7.94797L10.4584 7.94803Z" stroke="black" stroke-width="2.3098" stroke-miterlimit="10" stroke-linecap="round" stroke-linejoin="round"/>
</g>
<g id="g1599">
<path id="path1601" d="M30.5417 7.94803H35.5626L39.3282 14.2241H33.0522L30.5417 7.94803Z" stroke="black" stroke-width="2.3098" stroke-miterlimit="10" stroke-linecap="round" stroke-linejoin="round"/>
</g>
<g id="g1603">
<path id="path1605" d="M20.5001 7.94803H15.4793L14.2241 14.2241H20.5001V7.94803Z" stroke="black" stroke-width="2.3098" stroke-miterlimit="10" stroke-linecap="round" stroke-linejoin="round"/>
</g>
<g id="g1607">
<path id="path1609" d="M20.5 7.94803H25.5209L26.776 14.2241H20.5V7.94803Z" stroke="black" stroke-width="2.3098" stroke-miterlimit="10" stroke-linecap="round" stroke-linejoin="round"/>
</g>
<g id="g1611">
<path id="path1613" d="M15.4792 7.94803H10.4584L7.948 14.2241H14.224L15.4792 7.94803Z" stroke="black" stroke-width="2.3098" stroke-miterlimit="10" stroke-linecap="round" stroke-linejoin="round"/>
</g>
<g id="g1615">
<path id="path1617" d="M25.5208 7.94803H30.5416L33.052 14.2241H26.7759L25.5208 7.94803Z" stroke="black" stroke-width="2.3098" stroke-miterlimit="10" stroke-linecap="round" stroke-linejoin="round"/>
</g>
<path id="path1619" d="M23.0105 39.3281H31.7969V25.5209H23.0105V39.3281Z" stroke="black" stroke-width="2.3098" stroke-miterlimit="10" stroke-linecap="round" stroke-linejoin="round"/>
</g>
</g>
</g>
</g>
<defs>
<clipPath id="clip0_85_768">
<rect width="40" height="40" fill="white" transform="translate(0.5 0.5)"/>
</clipPath>
</defs>
</svg>
