<?xml version="1.0" encoding="UTF-8"?>
<svg id="Master_Layer_8" xmlns="http://www.w3.org/2000/svg" version="1.1" viewBox="0 0 492 492">
  <!-- Generator: Adobe Illustrator 29.0.1, SVG Export Plug-In . SVG Version: 2.1.0 Build 192)  -->
  <defs>
    <style>
      .st0 {
        fill: #090909;
      }

      .st1 {
        fill: #fbfbfb;
      }

      .st2 {
        isolation: isolate;
      }

      .st3 {
        fill: #fff;
        stroke: #1d8f15;
        stroke-width: 4px;
      }
    </style>
  </defs>
  <path class="st3" d="M95.6,186.2h300.9c5.9,0,11.6,2.4,15.8,6.6,4.2,4.2,6.6,9.9,6.6,15.8v74.9c0,5.9-2.4,11.6-6.6,15.8-4.2,4.2-9.9,6.6-15.8,6.6H95.6c-5.9,0-11.6-2.4-15.8-6.6-4.2-4.2-6.6-9.9-6.6-15.8v-74.9c0-5.9,2.4-11.6,6.6-15.8s9.9-6.6,15.8-6.6Z"/>
  <g>
    <path d="M158.8,254.1c-1.2,4,3.3,14.6-2.5,15.9s-3.4-2.2-3.8-3.8c-.5-2.4-1.6-12.9-1.2-14.8.7-3.2,6.3-4.9,9-6s1.2.4.8-.9l-5.9-9.1c-1.4,2.9-4.7,4-7.2,5.9-.1.2,3.2,1.2,2.5,2.8l-5-1.2-7.4,22.3,2.3,5.5h21.3c.9-.5,2.9-7.7,2.9-8.9,0-1.7-2.8-5.3,0-7h26.7c2.8,1.5,0,5.7,0,6.8.2,2.5,4.3,9.8,3.4,12.7-.9,2.1-5.9.4-6.8,1.1s-1.1,4.2-3.6,6.1c-6.8,5.1-14.8.6-17.4-6.6h-26.3c-1.9,3.2-2.5,6.2-6.4,7.8-10.2,4.1-18.7-6.7-13.3-15.8l-1.2-.3c-1.4-2.8,5.3-7,7.5-7.8s3,0,4.1-.9,2.3-4.6,3.4-6c1.7-2.2,5.1-3.7,5.9-4.7,1.1-1.5,1.4-5.4,2.4-7.2s10.2-4.7,10.2-8-5-6.4.2-8.7c7.7-3.5,16.6,13.4,17.4,19.4,1.3,9.4-5.4,8.7-12.4,11.6l.4-.2ZM133,269.8c-3.6-3.6-9.9,2.8-5.2,6.1,4.7,3.3,8-3.3,5.2-6.1ZM176.7,269.2c-4.1,1.2-2.7,8.9,2.9,7.2,4.1-1.2,2.7-8.9-2.9-7.2Z"/>
    <path d="M199.4,229.1v22.8l-.9.9h-21.9l-.9-.9v-21.9c0-.8,2-1.5,2.8-1.6,1.6-.2,21-.4,21,.7h-.1Z"/>
    <path d="M143.6,208.6c6.7-1.4,11.8,4.2,10.8,10.8s-5.4,7.4-7.8,7.8c-4.2.7-8.6-2.4-9-6.6s.5-2.3.4-3.2-.8-1.3-.8-2.1c.2-2.7,3.8-6.2,6.4-6.7h0Z"/>
    <path d="M139.1,245.1c-3.9,3.9-5.7-.5-5.4-4.4.8-8.6,10.4-.6,5.4,4.4Z"/>
    <path d="M202.8,240.3h7.6c.4,0,.7.3.7.7h0c0,.4-.3.7-.7.7h-7.6c-.4,0-.7-.3-.7-.7h0c0-.4.3-.7.7-.7Z"/>
    <path d="M204,255h7.6c.4,0,.7.3.7.7h0c0,.4-.3.7-.7.7h-7.6c-.4,0-.7-.3-.7-.7h0c0-.4.3-.7.7-.7Z"/>
    <path d="M200,268.5h7.6c.4,0,.7.3.7.7h0c0,.4-.3.7-.7.7h-7.6c-.4,0-.7-.3-.7-.7h0c0-.4.3-.7.7-.7Z"/>
  </g>
  <g class="st2">
    <path d="M247,258.4c.7-.2,1.1-.6,1.4-1.1.3-.5.4-1.3.5-2.2h-2.7c-2,0-3.6-.6-4.8-1.8-1.2-1.2-1.8-2.8-1.8-4.9s.3-2.8.8-4c.6-1.2,1.3-2.1,2.3-2.7,1-.6,2.1-1,3.4-1s2.5.3,3.6,1,1.8,1.5,2.4,2.7c.6,1.2.8,2.5.8,4v2.1h1.7l.3,2.3-.3,2.3h-1.7c0,2.5-.8,4.5-2.3,6-1.4,1.5-3.6,2.3-6.6,2.3h-3.8v-4.6h3.8c1.3,0,2.3-.1,3-.3ZM244.1,250.1c.4.4,1.1.6,2,.6h2.7v-2.4c0-2.2-.9-3.3-2.8-3.3s-1.5.3-2,.9c-.4.6-.7,1.4-.7,2.3s.2,1.5.6,1.9Z"/>
    <path d="M254.3,250.5h3.1c1.6,0,2.4-.6,2.4-1.9,0-.9-.3-2.7-.8-5.3l3.8-1c.7,3.1,1.1,5.3,1.1,6.7s-.2,2-.7,2.9c-.5.9-1.1,1.7-2.1,2.2-.9.6-2,.9-3.3.9h-3.4v-4.6ZM256.3,258.9h4.2v4.1h-4.2v-4.1Z"/>
    <path d="M273.7,244.5v9c0,3-.8,5.4-2.4,7.1-1.6,1.7-3.9,2.6-6.8,2.6h-2v-4.6h2c1.3,0,2.4-.2,3.1-.5s1.2-.8,1.6-1.6c.3-.7.5-1.8.5-3.1v-9h4.1Z"/>
    <path d="M284,258.4c.7-.2,1.1-.6,1.4-1.1.3-.5.4-1.3.5-2.2h-2.7c-2,0-3.6-.6-4.8-1.8-1.2-1.2-1.8-2.8-1.8-4.9s.3-2.8.8-4c.6-1.2,1.3-2.1,2.3-2.7,1-.6,2.1-1,3.4-1s2.5.3,3.6,1c1,.6,1.8,1.5,2.4,2.7.6,1.2.8,2.5.8,4v2.1h1.7l.3,2.3-.3,2.3h-1.7c0,2.5-.8,4.5-2.3,6-1.4,1.5-3.6,2.3-6.6,2.3h-3.8v-4.6h3.8c1.3,0,2.3-.1,3-.3ZM281.1,250.1c.4.4,1.1.6,2,.6h2.7v-2.4c0-2.2-.9-3.3-2.8-3.3s-1.5.3-2,.9c-.4.6-.7,1.4-.7,2.3s.2,1.5.6,1.9Z"/>
    <path d="M291.3,250.5h3.5c1,0,1.6-.2,2-.5.4-.3.6-.8.5-1.4-.1-1.3-.4-3.1-.8-5.3l3.8-1c.3,1.1.5,2.3.7,3.6.2,1.3.3,2.3.3,3.1s-.2,2-.7,3c-.5.9-1.2,1.7-2.1,2.2-.9.6-2.1.9-3.5.9h-3.8v-4.6ZM292.2,235.1h3.8v3.8h-3.8v-3.8ZM298.1,235.1h3.8v3.8h-3.8v-3.8Z"/>
    <path d="M314.7,261.8c-1.4-.8-2.4-2-3.1-3.4-.7-1.4-1-3-1-4.8s.2-2.1.5-3.3.7-2.4,1.2-3.4l3.6,1.5c-.9,2-1.3,3.7-1.3,5.3s.4,2.9,1.2,3.7c.8.8,2.1,1.3,3.9,1.3h1.6c1.4,0,2.4-.1,3-.3.7-.2,1.1-.6,1.4-1.2.2-.6.4-1.4.4-2.5v-21.1h4v21.1c0,2.7-.7,4.8-2.1,6.3-1.4,1.6-3.7,2.3-6.7,2.3h-1.6c-1.9,0-3.5-.4-4.9-1.3Z"/>
    <path d="M335.3,253.2c-1-1.3-1.6-3-1.6-5.2v-14.1h4v14.1c0,.8,0,1.4.1,1.7,0,.3.3.6.6.7s.9.2,1.7.2h1.1l.2,2.4-.2,2.2h-1.1c-2.2,0-3.9-.6-4.9-1.9Z"/>
    <path d="M341.1,250.5h2.3c.7,0,1.3-.2,1.6-.5s.5-.8.5-1.5v-4.1h4v4.2c0,.6.2,1.1.5,1.4.3.3.8.4,1.4.4,1.4,0,2.1-.7,2.1-2v-4.1h4v4.2c0,1.2.6,1.8,1.9,1.8s1.2-.2,1.6-.5c.4-.4.5-.8.5-1.4-.3-1.9-.6-3.7-.9-5.2l3.8-1c.7,3.1,1.1,5.3,1.1,6.6s-.2,2-.6,3-1.1,1.7-2,2.2c-.9.6-2,.9-3.4.9s-1.5-.2-2.2-.5c-.7-.3-1.2-.8-1.7-1.3-.5.6-1.1,1-1.8,1.3-.7.3-1.5.5-2.4.5s-1.5-.2-2.3-.5c-.8-.4-1.4-.8-1.7-1.3-.4.5-.9,1-1.7,1.3s-1.6.5-2.5.5h-2.2v-4.6Z"/>
    <path d="M375.2,244.5v9c0,3-.8,5.4-2.4,7.1-1.6,1.7-3.9,2.6-6.8,2.6h-2v-4.6h2c1.3,0,2.4-.2,3.1-.5s1.2-.8,1.6-1.6c.3-.7.5-1.8.5-3.1v-9h4.1Z"/>
    <path d="M378.9,233.9h4v21.2h-4v-21.2Z"/>
  </g>
  <g>
    <path class="st1" d="M307.9,287.7h-.4v-.4l.4.4Z"/>
    <path class="st1" d="M307.5,287.7c.2,13.1-.1,26.1,0,39.2.8,0,4.4.3,4.4-.6v-16.8h8.5v17.4c.8,0,4.4.3,4.4-.6v-12.7h8.5v17.4h4.4v-12.9c.7.1,3.9-.2,4,0,.9.9-2.3,5.8,4.4,4.4v29.9h-4.4v12.9c0,.2-4-.2-4,0v8.9h-34.7v-8.9c0-.2-4,.2-4,0v-8.5h-4.4v-8.9h-4.4v-8.5c-.7-.1-3.9.2-4,0-.9-.9,2.3-5.8-4.4-4.4v-8.5h7.5c1.9,0,.6,4,1,4.4s3.7-.1,4.4,0v12.9h4v-56.2h8.9,0Z"/>
    <path class="st0" d="M300.2,283.7h6.1c.2.1,1.1-.3,1.2.2s0,2.5,0,3.4,0,.3,0,.4h-8.5v-2.8c0-.2-.2-.9,0-1.1s1,0,1.1,0h0Z"/>
    <path class="st0" d="M298.6,287.7v56.2h-4v-12.9c-.7-.1-4.3.2-4.4,0-.4-.4.9-4.4-1-4.4h-7.5v8.5c6.8-1.4,3.6,3.6,4.4,4.4s3.4-.1,4,0v8.5h4.4v8.9h4.4v8.5c0,.2,4-.2,4,0v8.9h34.7v-8.9c0-.2,4,.2,4,0v-12.9h4.4v-29.9c-6.8,1.4-3.6-3.6-4.4-4.4s-3.4.1-4,0v12.9h-4.4v-17.4h-8.5v12.7c0,.9-3.6.5-4.4.6v-17.4h-8.5v16.8c0,.9-3.6.6-4.4.6-.1-13.1.2-26.1,0-39.2h4.4v17.4h8.5c.1.7-.2,3.8,0,4s.9,0,1.2,0c3.5,0,7,.7,10.5.4.2.1,1.1-.3,1.2.2.2.7,0,2.8,0,3.8h8.9c.1.7-.2,4.3,0,4.4s3.9-.2,4,0,0,2.6,0,3.2v.8h3.6s1-.2.8.6v30.1c-.7.1-3.4-.2-3.7,0q-.9,0-.8.8c-.5.6.4,11.7,0,12.1s-3.6-.4-4.1.2c-.7.9-.4,7.4-.4,9.1v2c0,.1.2.9,0,1.1s-1,0-1.1,0h-40.4c-.2-.1-1.1.3-1.2-.2v-12.3h-4.4v-8.9h-4.4v-8.5c-1.2-.2-3.1.3-4.2,0s-.2-.8-.3-.8c-.4-1.9.5-5.7,0-7.3s-3.8-.6-4-.8.2-3.9,0-4-3.7.1-4.4,0c.6-3.1-.8-10.1,0-12.7s1.6-.6,2.4-.7c3.2-.2,6.5.1,9.7,0,0,0,.7-.2.8.3.2.8-.2,4,0,4.2h4.4v-38.8h4l.2.2Z"/>
  </g>
</svg>