<?xml version="1.0" encoding="UTF-8"?>
<svg id="Master_Layer_8" xmlns="http://www.w3.org/2000/svg" version="1.1" viewBox="0 0 492 492">
  <!-- Generator: Adobe Illustrator 29.0.1, SVG Export Plug-In . SVG Version: 2.1.0 Build 192)  -->
  <defs>
    <style>
      .st0 {
        fill: #1d8f15;
        stroke: #fff;
        stroke-width: 4px;
      }

      .st1 {
        fill: #fff;
      }

      .st2 {
        fill: #090909;
      }

      .st3 {
        fill: #fbfbfb;
      }
    </style>
  </defs>
  <path class="st0" d="M95.6,186.2h300.9c5.9,0,11.6,2.4,15.8,6.6,4.2,4.2,6.6,9.9,6.6,15.8v74.9c0,5.9-2.4,11.6-6.6,15.8-4.2,4.2-9.9,6.6-15.8,6.6H95.6c-5.9,0-11.6-2.4-15.8-6.6-4.2-4.2-6.6-9.9-6.6-15.8v-74.9c0-5.9,2.4-11.6,6.6-15.8,4.2-4.2,9.9-6.6,15.8-6.6Z"/>
  <g>
    <path class="st1" d="M166.4,253.1c0,1.7.4,3,1.2,3.9s2.2,1.3,4.1,1.3h2.9c1.4,0,2.5-.1,3.2-.4.7-.2,1.2-.7,1.4-1.3.3-.6.4-1.5.4-2.7v-10.5h4.2v3.9c0,.9.2,1.5.6,1.9.4.4,1,.6,1.6.6s1.3-.2,1.6-.5c.4-.3.6-.9.6-1.6v-4.3s4.2,0,4.2,0v4.4c0,1.3.6,1.9,2,1.9s1.2-.2,1.6-.6c.4-.4.6-.9.5-1.5-.2-1.3-.5-3.1-1-5.5l4-1c.7,3.2,1.1,5.6,1.1,7s-.2,2.1-.6,3.1c-.4,1-1.1,1.7-2.1,2.3-.9.6-2.1.9-3.5.9s-1.6-.2-2.3-.5c-.7-.3-1.3-.8-1.8-1.4-.5.6-1.1,1-1.8,1.4-.7.3-1.5.5-2.4.5s-1.5-.2-2.3-.5c0,2.8-.8,4.9-2.3,6.5-1.5,1.6-3.8,2.4-7,2.4h-2.9c-2,0-3.7-.4-5.1-1.3-1.4-.9-2.5-2.1-3.2-3.6s-1.1-3.2-1.1-5.1.2-2.8.7-4.3c.5-1.5,1-2.9,1.7-4.2l3.5,1.9c-1.2,2.4-1.7,4.6-1.7,6.7ZM185.2,235.6h4v4h-4v-4ZM188.4,230.9h3.8v3.8h-3.8v-3.8ZM191.5,235.6h4v4h-4v-4Z"/>
    <path class="st1" d="M210.9,243.5v9.4c0,3.2-.8,5.7-2.5,7.5-1.7,1.8-4,2.7-7.1,2.7h-2.1v-4.8h2.1c1.4,0,2.5-.2,3.2-.5.8-.3,1.3-.9,1.6-1.6.3-.8.5-1.8.5-3.2v-9.4h4.3Z"/>
    <path class="st1" d="M216.1,252.7c-1.1-1.4-1.6-3.2-1.6-5.5v-14.7h4.2v14.7c0,.8,0,1.4.1,1.8,0,.4.3.6.7.7.3.1.9.2,1.7.2h1.2l.2,2.5-.2,2.3h-1.2c-2.3,0-4-.7-5.1-2Z"/>
    <path class="st1" d="M222,249.9h1.4c.6,0,1.5,0,2.7,0-.5-.5-.9-1.1-1.2-1.8-.3-.7-.4-1.3-.4-2,0-1.2.3-2.3.9-3.4s1.5-2,2.5-2.6c1.1-.7,2.3-1,3.6-1s2.4.3,3.5,1c1.1.7,1.9,1.5,2.5,2.6s.9,2.2.9,3.4-.1,1.4-.4,2.1c-.3.7-.7,1.3-1.2,1.8,1.1,0,2,0,2.7,0h1.3l.3,2.4-.3,2.4h-2.2c-1,0-2.1-.1-3.4-.3s-2.5-.6-3.7-1c-1.2.4-2.4.8-3.7,1-1.3.2-2.4.3-3.4.3h-2.3v-4.8ZM229.4,248.2c.5.5,1.2.9,2,1.2.8-.2,1.5-.6,2.1-1.2.6-.6.8-1.2.8-1.9s-.3-1.5-.8-2-1.2-.8-2-.8-1.5.3-2,.8c-.5.5-.8,1.2-.8,2s.3,1.4.8,1.9ZM229.3,232.4h4.4v4.3h-4.4v-4.3Z"/>
    <path class="st1" d="M240.5,249.9h2.4c.8,0,1.3-.2,1.7-.5.3-.3.5-.8.5-1.5v-4.3h4.2v4.4c0,.7.2,1.2.5,1.5.4.3.9.5,1.5.5,1.4,0,2.2-.7,2.2-2.1v-4.3h4.2v4.4c0,1.3.6,1.9,2,1.9s1.2-.2,1.6-.6c.4-.4.6-.9.5-1.5-.3-2-.6-3.8-1-5.5l4-1c.8,3.3,1.1,5.6,1.1,7s-.2,2.1-.7,3.1c-.4,1-1.1,1.7-2.1,2.3-.9.6-2.1.9-3.6.9s-1.6-.2-2.3-.5-1.3-.8-1.8-1.4c-.5.6-1.1,1-1.9,1.4-.7.3-1.6.5-2.5.5s-1.5-.2-2.4-.6c-.8-.4-1.4-.8-1.8-1.3-.4.6-1,1-1.7,1.4s-1.6.5-2.6.5h-2.3v-4.8Z"/>
    <path class="st1" d="M278.9,253.8c-1-.6-1.8-1.4-2.3-2.4-.5-1-.8-2.1-.8-3.3s0-1,.1-1.5c.1-.6.3-1.4.4-2.2.2-.9.3-1.6.5-2.3l3.9,1-.2,1.1c-.4,1.7-.7,2.9-.7,3.6s.2,1.2.7,1.6c.5.4,1.1.6,2,.6h14.5c.9,0,1.6-.1,1.9-.4.4-.3.6-.7.6-1.3v-4.7h4.3v4.8c0,.6.2,1,.5,1.2.3.2.8.3,1.4.3h1l.2,2.5-.2,2.3h-1c-.7,0-1.4-.1-2.2-.4-.7-.3-1.4-.7-2-1.3-.5.6-1.2,1-1.9,1.3-.8.3-1.6.4-2.6.4h-14.5c-1.4,0-2.6-.3-3.6-.9ZM285.1,238.7h4v4h-4v-4ZM291.4,238.7h4v4h-4v-4Z"/>
    <path class="st1" d="M306.1,258.7h4.4v4.3h-4.4v-4.3ZM315.9,243.5v4.8c0,.6.2,1,.5,1.2.3.2.8.3,1.5.3h1l.2,2.6-.2,2.2h-1c-.7,0-1.4-.1-2.2-.4-.8-.3-1.4-.7-2-1.2-.6.5-1.3.9-2.1,1.2s-1.6.4-2.4.4h-2.9v-4.8h2.9c.9,0,1.6-.1,1.9-.4.4-.3.6-.7.6-1.3v-4.7h4.2Z"/>
    <path class="st1" d="M318.5,249.9h3.7c1,0,1.7-.2,2.1-.5.4-.3.6-.8.6-1.5-.1-1.4-.4-3.2-.9-5.5l4-1c.3,1.2.5,2.4.7,3.8s.3,2.4.3,3.2-.2,2.1-.7,3.1c-.5,1-1.2,1.7-2.2,2.3-1,.6-2.2.9-3.6.9h-4v-4.8ZM319.4,233.7h4v4h-4v-4ZM322.7,228.9h3.8v3.8h-3.8v-3.8ZM325.8,233.7h4v4h-4v-4Z"/>
  </g>
  <g>
    <path class="st3" d="M307.9,287.7c-.1,0-.3,0-.4,0,0-.1,0-.3,0-.4l.4.4Z"/>
    <path class="st3" d="M307.5,287.7c.2,13.1-.1,26.1,0,39.2.8,0,4.4.3,4.4-.6v-16.8h8.5v17.4c.8,0,4.4.3,4.4-.6v-12.7c2.8,0,5.7,0,8.5,0,0,5.8,0,11.6,0,17.4h4.4v-12.9c.7.1,3.9-.2,4,0,.9.9-2.3,5.8,4.4,4.4v29.9h-4.4v12.9c0,.2-4-.2-4,0v8.9h-34.7v-8.9c0-.2-4,.2-4,0v-8.5c-1.5,0-3,0-4.4,0,0-3,0-5.9,0-8.9h-4.4s0-8.5,0-8.5c-.7-.1-3.9.2-4,0-.9-.9,2.3-5.8-4.4-4.4v-8.5h7.5c1.9,0,.6,4,1,4.4s3.7-.1,4.4,0v12.9h4s0-56.2,0-56.2c.1,0,.3,0,.4,0,2.8,0,5.7,0,8.5,0Z"/>
    <path class="st2" d="M300.2,283.7h6.1c.2.1,1.1-.3,1.2.2s0,2.5,0,3.4,0,.3,0,.4c-2.8,0-5.7,0-8.5,0v-2.8c0-.2-.2-.9,0-1.1s1,0,1.1,0Z"/>
    <path class="st2" d="M298.6,287.7v56.2s-4,0-4,0v-12.9c-.7-.1-4.3.2-4.4,0-.4-.4.9-4.4-1-4.4h-7.5v8.5c6.8-1.4,3.6,3.6,4.4,4.4s3.4-.1,4,0v8.5h4.4c0,3,0,5.9,0,8.9,1.5,0,3,0,4.4,0v8.5c0,.2,4-.2,4,0v8.9h34.7v-8.9c0-.2,4,.2,4,0v-12.9h4.4v-29.9c-6.8,1.4-3.6-3.6-4.4-4.4s-3.4.1-4,0v12.9h-4.4c0-5.8,0-11.6,0-17.4-2.8,0-5.7,0-8.5,0v12.7c0,.9-3.6.5-4.4.6v-17.4h-8.5v16.8c0,.9-3.6.6-4.4.6-.1-13.1.2-26.1,0-39.2.1,0,.3,0,.4,0,1.3,0,2.7,0,4,0v17.4h8.5c.1.7-.2,3.8,0,4s.9,0,1.2,0c3.5,0,7,.7,10.5.4.2.1,1.1-.3,1.2.2.2.7,0,2.8,0,3.8,3,0,5.9,0,8.9,0,.1.7-.2,4.3,0,4.4s3.9-.2,4,0,0,2.6,0,3.2,0,.5,0,.8h3.6c0,0,1-.2.8.6v30.1c-.7.1-3.4-.2-3.7,0-.9,0-.9,0-.8.8-.5.6.4,11.7,0,12.1s-3.6-.4-4.1.2c-.7.9-.4,7.4-.4,9.1v2c0,.1.2.9,0,1.1s-1,0-1.1,0h-40.4c-.2-.1-1.1.3-1.2-.2v-12.3s-4.4,0-4.4,0c0-3,0-5.9,0-8.9-1.5,0-3,0-4.4,0v-8.5c-1.2-.2-3.1.3-4.2,0s-.2-.8-.3-.8c-.4-1.9.5-5.7,0-7.3s-3.8-.6-4-.8.2-3.9,0-4-3.7.1-4.4,0c.6-3.1-.8-10.1,0-12.7s1.6-.6,2.4-.7c3.2-.2,6.5.1,9.7,0,0,0,.7-.2.8.3.2.8-.2,4,0,4.2h4.4v-38.8c1.3,0,2.7,0,4,0Z"/>
  </g>
</svg>