<svg xmlns="http://www.w3.org/2000/svg" xmlns:xlink="http://www.w3.org/1999/xlink" viewBox="0 0 146.82 143.84"><defs><style>.cls-1{fill:url(#linear-gradient);}</style><linearGradient id="linear-gradient" x1="25.03" y1="57.28" x2="146.82" y2="57.28" gradientUnits="userSpaceOnUse"><stop offset="0" stop-color="#135407"/><stop offset="1" stop-color="#26c020"/></linearGradient></defs><g id="Layer_2" data-name="Layer 2"><g id="Layer_1-2" data-name="Layer 1"><path d="M139.85,73.92A69.93,69.93,0,1,1,69.93,4,69.24,69.24,0,0,1,109,16l-8,10a57.14,57.14,0,1,0,26.06,47.94c0-.41,0-.81,0-1.21V72l1-1.61c2-3.33,4-6.77,6-10.22l3.37-5.87,1.25,6.65A69.75,69.75,0,0,1,139.85,73.92Z"/><path class="cls-1" d="M144.33,1.16C138.44-3,132.39,4.93,129.32,9c-4,5.34-7.81,11-11.75,16.37-4.45,6.1-9.36,11.92-14.22,17.7C91.85,56.68,80.48,68.67,69.71,79.12l0,0a76.47,76.47,0,0,1-8.83-7.33c-2.82-2.69-5.48-5.54-8.08-8.45S47.58,57.38,45,54.41s-5.16-5.88-7.87-8.69a8.94,8.94,0,0,0-2.81-2.32c-.35-.17-3.33-1.55-5.91-.14-4.52,2.48-3.51,9-2.6,13a80.55,80.55,0,0,0,5.66,15.93c2.3,5.07,4.7,10.13,7.47,15q2.36,4.14,5,8.09c4.44,6.5,9.52,13.13,16.66,16.8C69,116.38,78.06,114.91,85.2,109c6.59-5.49,11.58-12.56,16.29-19.63,1.46-2.18,2.49-3.84,3.45-5.28h0c5-8,3.84-6.24,11.32-18.75,5.27-8.8,10.3-17.74,15.18-26.76,2.69-5,5.46-10.07,8.25-15.06,2.65-4.75,5.32-9.51,6.87-14.75C147.31,5.67,146.43,2.63,144.33,1.16Z"/></g></g></svg>