<svg width="24" height="24" viewBox="0 0 24 24" fill="none" xmlns="http://www.w3.org/2000/svg">
<path d="M20 19.9999H8C8.65438 19.1372 9.00587 18.0827 9 16.9999V13.9999H15C15.2652 13.9999 15.5196 13.8946 15.7071 13.707C15.8946 13.5195 16 13.2652 16 12.9999C16 12.7347 15.8946 12.4804 15.7071 12.2928C15.5196 12.1053 15.2652 11.9999 15 11.9999H9V8.88993C8.99914 7.81226 9.3543 6.76449 10.0103 5.90946C10.6663 5.05444 11.5863 4.44006 12.6275 4.16181C13.6686 3.88357 14.7725 3.95705 15.7675 4.37083C16.7626 4.78461 17.5931 5.51551 18.13 6.44993C18.1962 6.56369 18.2841 6.66326 18.3889 6.74295C18.4936 6.82264 18.613 6.88088 18.7403 6.91432C18.8675 6.94777 19.0002 6.95576 19.1305 6.93785C19.2609 6.91993 19.3865 6.87647 19.5 6.80993C19.7287 6.67801 19.896 6.46098 19.9653 6.2062C20.0346 5.95141 20.0004 5.67955 19.87 5.44993C19.1097 4.138 17.9385 3.11302 16.5373 2.53345C15.1362 1.95388 13.5831 1.85199 12.1182 2.24354C10.6534 2.63508 9.35824 3.49825 8.4331 4.69962C7.50796 5.90098 7.00431 7.37364 7 8.88993V11.9999H4C3.73478 11.9999 3.48043 12.1053 3.29289 12.2928C3.10536 12.4804 3 12.7347 3 12.9999C3 13.2652 3.10536 13.5195 3.29289 13.707C3.48043 13.8946 3.73478 13.9999 4 13.9999H7V16.9999C7 17.7956 6.68393 18.5586 6.12132 19.1213C5.55871 19.6839 4.79565 19.9999 4 19.9999C3.73478 19.9999 3.48043 20.1053 3.29289 20.2928C3.10536 20.4804 3 20.7347 3 20.9999C3 21.2652 3.10536 21.5195 3.29289 21.707C3.48043 21.8946 3.73478 21.9999 4 21.9999H20C20.2652 21.9999 20.5196 21.8946 20.7071 21.707C20.8946 21.5195 21 21.2652 21 20.9999C21 20.7347 20.8946 20.4804 20.7071 20.2928C20.5196 20.1053 20.2652 19.9999 20 19.9999Z" fill="black"/>
</svg>
