<svg width="17" height="16" viewBox="0 0 17 16" fill="none" xmlns="http://www.w3.org/2000/svg">
<g id="Print">
<path id="Rectangle 4117" d="M12.4853 9.33329H12.6944C13.2126 9.33329 13.4717 9.33329 13.6726 9.2396C13.8857 9.14024 14.0569 8.96899 14.1563 8.75591C14.25 8.55499 14.25 8.2959 14.25 7.77774V7.77774C14.25 6.7414 14.25 6.22324 14.0626 5.82139C13.8639 5.39524 13.5214 5.05273 13.0952 4.85401C12.6934 4.66663 12.1752 4.66663 11.1389 4.66663H5.98333C4.35562 4.66663 3.54176 4.66663 2.99136 5.11233C2.88275 5.20028 2.78366 5.29938 2.69571 5.40799C2.25 5.95839 2.25 6.77225 2.25 8.39996V8.39996C2.25 8.80689 2.25 9.01035 2.36143 9.14795C2.38341 9.1751 2.40819 9.19988 2.43534 9.22187C2.57294 9.33329 2.7764 9.33329 3.18333 9.33329H4.01471" stroke="#33363F" stroke-width="1.5"/>
<path id="Vector 57" d="M4.25 13.3063L4.25 8.66667C4.25 7.72386 4.25 7.25245 4.54289 6.95956C4.83579 6.66667 5.30719 6.66667 6.25 6.66667L10.25 6.66667C11.1928 6.66667 11.6642 6.66667 11.9571 6.95956C12.25 7.25245 12.25 7.72386 12.25 8.66667L12.25 13.3063C12.25 13.6228 12.25 13.7811 12.1462 13.856C12.0424 13.9308 11.8922 13.8807 11.5919 13.7806L10.4081 13.386C10.3298 13.3599 10.2906 13.3469 10.25 13.3469C10.2094 13.3469 10.1702 13.3599 10.0919 13.386L8.40811 13.9473C8.32975 13.9734 8.29057 13.9865 8.25 13.9865C8.20943 13.9865 8.17025 13.9734 8.09189 13.9473L6.40811 13.386C6.32975 13.3599 6.29057 13.3469 6.25 13.3469C6.20943 13.3469 6.17025 13.3599 6.09189 13.386L4.90811 13.7806C4.6078 13.8807 4.45764 13.9308 4.35382 13.856C4.25 13.7811 4.25 13.6228 4.25 13.3063Z" stroke="#33363F" stroke-width="1.5"/>
<path id="Rectangle 4134" d="M12.25 4.66667V4.66667C12.25 3.85925 12.25 3.45555 12.1228 3.13543C11.9399 2.67488 11.5751 2.31014 11.1146 2.12717C10.7945 2 10.3907 2 9.58333 2H6.91667C6.10925 2 5.70555 2 5.38543 2.12717C4.92488 2.31014 4.56014 2.67488 4.37717 3.13543C4.25 3.45555 4.25 3.85925 4.25 4.66667V4.66667" stroke="#33363F" stroke-width="1.5"/>
<path id="Vector 56" d="M6.91602 9.33337L8.91602 9.33337" stroke="#33363F" stroke-width="1.5" stroke-linecap="round"/>
<path id="Vector 58" d="M6.91602 11.3334L9.91602 11.3334" stroke="#33363F" stroke-width="1.5" stroke-linecap="round"/>
</g>
</svg>
