<svg width="16" height="16" viewBox="0 0 16 16" fill="none" xmlns="http://www.w3.org/2000/svg">
<path d="M7.9987 1.33331C6.68016 1.33331 5.39123 1.72431 4.2949 2.45685C3.19857 3.18939 2.34409 4.23058 1.8395 5.44876C1.33492 6.66693 1.2029 8.00738 1.46013 9.30058C1.71737 10.5938 2.35231 11.7817 3.28466 12.714C4.21701 13.6464 5.40489 14.2813 6.6981 14.5385C7.99131 14.7958 9.33175 14.6638 10.5499 14.1592C11.7681 13.6546 12.8093 12.8001 13.5418 11.7038C14.2744 10.6075 14.6654 9.31852 14.6654 7.99998C14.6654 7.1245 14.4929 6.25759 14.1579 5.44876C13.8229 4.63992 13.3318 3.90499 12.7127 3.28593C12.0937 2.66688 11.3588 2.17581 10.5499 1.84078C9.74109 1.50575 8.87418 1.33331 7.9987 1.33331ZM7.9987 13.3333C6.94387 13.3333 5.91272 13.0205 5.03566 12.4345C4.1586 11.8484 3.47501 11.0155 3.07134 10.041C2.66768 9.06642 2.56206 7.99406 2.76785 6.9595C2.97363 5.92493 3.48158 4.97462 4.22746 4.22874C4.97334 3.48286 5.92365 2.97491 6.95822 2.76912C7.99278 2.56334 9.06514 2.66895 10.0397 3.07262C11.0142 3.47629 11.8472 4.15988 12.4332 5.03694C13.0192 5.914 13.332 6.94515 13.332 7.99998C13.332 9.41447 12.7701 10.771 11.7699 11.7712C10.7697 12.7714 9.41319 13.3333 7.9987 13.3333ZM10.6654 7.33331H8.66537V5.33331C8.66537 5.1565 8.59513 4.98693 8.47011 4.86191C8.34508 4.73688 8.17551 4.66665 7.9987 4.66665C7.82189 4.66665 7.65232 4.73688 7.5273 4.86191C7.40227 4.98693 7.33203 5.1565 7.33203 5.33331V7.33331H5.33203C5.15522 7.33331 4.98565 7.40355 4.86063 7.52858C4.73561 7.6536 4.66537 7.82317 4.66537 7.99998C4.66537 8.17679 4.73561 8.34636 4.86063 8.47138C4.98565 8.59641 5.15522 8.66665 5.33203 8.66665H7.33203V10.6666C7.33203 10.8435 7.40227 11.013 7.5273 11.1381C7.65232 11.2631 7.82189 11.3333 7.9987 11.3333C8.17551 11.3333 8.34508 11.2631 8.47011 11.1381C8.59513 11.013 8.66537 10.8435 8.66537 10.6666V8.66665H10.6654C10.8422 8.66665 11.0117 8.59641 11.1368 8.47138C11.2618 8.34636 11.332 8.17679 11.332 7.99998C11.332 7.82317 11.2618 7.6536 11.1368 7.52858C11.0117 7.40355 10.8422 7.33331 10.6654 7.33331Z" fill="black"/>
</svg>
