<svg width="32" height="32" viewBox="0 0 32 32" fill="none" xmlns="http://www.w3.org/2000/svg">
<g id="Content / center alignment">
<path id="Vector" d="M4.0013 9.33332H28.0013C28.3549 9.33332 28.6941 9.19285 28.9441 8.9428C29.1942 8.69275 29.3346 8.35361 29.3346 7.99999C29.3346 7.64637 29.1942 7.30723 28.9441 7.05718C28.6941 6.80713 28.3549 6.66666 28.0013 6.66666H4.0013C3.64768 6.66666 3.30854 6.80713 3.05849 7.05718C2.80844 7.30723 2.66797 7.64637 2.66797 7.99999C2.66797 8.35361 2.80844 8.69275 3.05849 8.9428C3.30854 9.19285 3.64768 9.33332 4.0013 9.33332ZM9.33463 12C8.98101 12 8.64187 12.1405 8.39183 12.3905C8.14178 12.6406 8.0013 12.9797 8.0013 13.3333C8.0013 13.6869 8.14178 14.0261 8.39183 14.2761C8.64187 14.5262 8.98101 14.6667 9.33463 14.6667H22.668C23.0216 14.6667 23.3607 14.5262 23.6108 14.2761C23.8608 14.0261 24.0013 13.6869 24.0013 13.3333C24.0013 12.9797 23.8608 12.6406 23.6108 12.3905C23.3607 12.1405 23.0216 12 22.668 12H9.33463ZM28.0013 17.3333H4.0013C3.64768 17.3333 3.30854 17.4738 3.05849 17.7238C2.80844 17.9739 2.66797 18.313 2.66797 18.6667C2.66797 19.0203 2.80844 19.3594 3.05849 19.6095C3.30854 19.8595 3.64768 20 4.0013 20H28.0013C28.3549 20 28.6941 19.8595 28.9441 19.6095C29.1942 19.3594 29.3346 19.0203 29.3346 18.6667C29.3346 18.313 29.1942 17.9739 28.9441 17.7238C28.6941 17.4738 28.3549 17.3333 28.0013 17.3333ZM22.668 22.6667H9.33463C8.98101 22.6667 8.64187 22.8071 8.39183 23.0572C8.14178 23.3072 8.0013 23.6464 8.0013 24C8.0013 24.3536 8.14178 24.6928 8.39183 24.9428C8.64187 25.1928 8.98101 25.3333 9.33463 25.3333H22.668C23.0216 25.3333 23.3607 25.1928 23.6108 24.9428C23.8608 24.6928 24.0013 24.3536 24.0013 24C24.0013 23.6464 23.8608 23.3072 23.6108 23.0572C23.3607 22.8071 23.0216 22.6667 22.668 22.6667Z" fill="black"/>
</g>
</svg>
