<svg width="32" height="32" viewBox="0 0 32 32" fill="none" xmlns="http://www.w3.org/2000/svg">
<path fill-rule="evenodd" clip-rule="evenodd" d="M15.4588 0.171298L7.66727 4.64671L7.62373 4.67132C6.86767 5.11466 6.36033 5.93275 6.36033 6.86899V22.6317L10.5622 20.2184L10.5378 20.1636L10.5365 20.1597L10.5098 20.0963L10.4847 20.034L10.4811 20.0248L10.456 19.9608L10.4319 19.8965L10.4312 19.8939L10.4306 19.8932L10.4068 19.8276L10.3837 19.7603L10.3831 19.7583L10.3607 19.6917L10.3386 19.6225L10.3382 19.6212L10.3376 19.6199L10.3316 19.6005L10.3257 19.5818C10.3161 19.5496 10.3066 19.5165 10.2973 19.4837L10.2967 19.4827L10.2775 19.4135L10.2587 19.3429L10.2581 19.3406V19.3396L10.2482 19.2999L10.2379 19.2605C10.2214 19.1936 10.2066 19.126 10.1924 19.0581L10.1921 19.0571L10.1779 18.9852L10.165 18.916V18.914L10.1644 18.9114V18.9097L10.1515 18.8385L10.1403 18.7673C10.1251 18.6682 10.1123 18.5698 10.1027 18.4723L10.1024 18.4693L10.0954 18.3985L10.0892 18.323L10.0839 18.2478L10.0799 18.1763L10.0796 18.1737V18.1727L10.076 18.0969L10.0737 18.0234V18.0217L10.0723 17.945L10.0717 17.8695L10.0723 17.7963L10.0737 17.7234L10.0753 17.6742L10.076 17.6601L10.0789 17.5774L10.0819 17.5269L10.0829 17.5157L10.0836 17.5072L10.0882 17.4334L10.1004 17.2896L10.1076 17.222L10.1166 17.1449L10.1248 17.0816L10.1357 17.0035L10.1459 16.9382L10.1588 16.8607L10.17 16.7994L10.1848 16.7209L10.1974 16.6579C10.2046 16.6225 10.2096 16.6005 10.2145 16.5792L10.2274 16.523L10.2472 16.4426L10.2624 16.3829L10.2802 16.3173L10.2858 16.2963L10.2983 16.251L10.3108 16.2083L10.3244 16.1647L10.3432 16.103L10.3626 16.0416L10.3824 15.9819L10.3907 15.9586C10.4025 15.9245 10.4144 15.8907 10.4286 15.8516L10.4474 15.8021L10.4477 15.8008L10.451 15.7919C10.4583 15.7732 10.4659 15.7525 10.4784 15.7207L10.5038 15.658L10.5282 15.5983L10.5642 15.5156L10.5853 15.4677L10.6147 15.4034L10.6417 15.3453L10.6737 15.2797L10.7044 15.2189L10.7367 15.1559L10.7657 15.1008L10.7842 15.067L10.802 15.0339L10.8324 14.9804L10.835 14.9755C10.8449 14.9581 10.8545 14.9407 10.8703 14.9144L10.9003 14.8636L10.9006 14.8626L10.9063 14.8531L10.9396 14.7986L10.9706 14.749L11.0154 14.6781L11.0267 14.6617L11.0643 14.6046L11.1029 14.5482C11.1685 14.452 11.2371 14.3585 11.3077 14.2679L11.3555 14.2066L11.3875 14.1679L11.4096 14.1403L11.4393 14.1042L11.47 14.0681L11.4984 14.035L11.5248 14.0044L11.5521 13.9739L11.5894 13.9322L11.6181 13.9007L11.6468 13.8696L11.6788 13.8354L11.7115 13.801L11.7445 13.7669L11.7672 13.7439L11.8051 13.7055L11.8434 13.6677L11.8579 13.6536L11.8972 13.6159L11.9371 13.5785L11.9579 13.5591L11.9981 13.5217L12.0397 13.4843L12.0466 13.4784L12.0921 13.4377L12.1393 13.3973L12.1443 13.3931L12.1452 13.3924C12.1749 13.3668 12.2036 13.3429 12.2287 13.3225C12.2534 13.3022 12.2818 13.2795 12.3135 13.2543C12.4603 13.1384 12.6117 13.0295 12.7687 12.9284L12.775 12.9238L12.8274 12.8907L12.8795 12.8579L12.8868 12.8536L12.9382 12.8224L12.989 12.7919L13.0046 12.783L13.0187 12.7748L13.0333 12.7666C13.0587 12.7519 13.0827 12.7381 13.1042 12.7263L13.121 12.7171L13.1698 12.6902L13.2196 12.6636L13.2424 12.6518L13.2938 12.6252L13.3446 12.5993L13.3529 12.5953L13.4106 12.5671L13.4677 12.5395L13.4697 12.5389C13.5198 12.5153 13.5706 12.492 13.6217 12.47C13.6706 12.4486 13.7223 12.427 13.7768 12.4053C14.0436 12.298 14.3197 12.2091 14.6034 12.1415L14.6084 12.1402L14.6711 12.1254L14.7331 12.1116L14.7436 12.1093L14.8073 12.0962L14.8723 12.0837L14.8759 12.0831L14.9382 12.0713L15.0019 12.0604L15.0184 12.0575L15.0798 12.0476L15.1421 12.0388L15.15 12.0371L15.2143 12.0286L15.2773 12.0204L15.2826 12.0197L15.341 12.0122L15.3407 11.9538V5.63544C15.3407 5.5265 15.3631 5.43953 15.3997 5.37423C15.4314 5.31812 15.474 5.27644 15.5238 5.24953C15.5742 5.22229 15.6323 5.20851 15.6933 5.20851C15.7731 5.20851 15.8579 5.23181 15.9377 5.27578L25.6408 10.8554V6.86899C25.6408 5.9613 25.1632 5.16388 24.4441 4.71234L16.5563 0.182455C16.3488 0.0643188 16.1766 0.00262526 16.0034 0C15.9994 0 15.9955 0 15.9915 0C15.822 0 15.6554 0.0567712 15.4588 0.171298ZM16.6658 11.9915L16.7258 11.9981L16.7301 11.9987L16.798 12.0076L16.8653 12.0168L16.8749 12.0188L16.9432 12.0289L17.0115 12.0401L17.0138 12.0407L17.084 12.0532L17.154 12.0667L17.156 12.067L17.2252 12.0814L17.2961 12.0965L17.2991 12.0975L17.3189 12.1021L17.338 12.1064C17.3714 12.1139 17.4047 12.1225 17.438 12.1307H17.439L17.5092 12.1487L17.5798 12.1677L17.5821 12.1684L17.5828 12.1691L17.6227 12.1799L17.6616 12.191C17.7279 12.2107 17.7946 12.2314 17.8606 12.2531L17.8625 12.2537L17.9315 12.277L17.9984 12.3006L18.0001 12.3013L18.0027 12.3026L18.004 12.3029L18.0723 12.3279L18.14 12.3535L18.1406 12.3538C18.2346 12.3902 18.326 12.4286 18.4154 12.4683L18.4184 12.4693L18.4837 12.4995L18.5523 12.5317L18.6202 12.5648L18.6846 12.597L18.6872 12.598L18.6882 12.5986L18.7558 12.6334L18.8208 12.6685L18.8221 12.6692L18.8901 12.7062L18.956 12.7433L19.0191 12.7804L19.0821 12.8181L19.1362 12.8516L19.2064 12.8963L19.2493 12.9238L19.2582 12.9297L19.2648 12.9346L19.2737 12.9402L19.3271 12.9757L19.3819 13.0131L19.4462 13.058L19.5016 13.0981L19.5643 13.1447L19.6151 13.1831L19.6778 13.232L19.7296 13.2733L19.7906 13.3229L19.8384 13.3632L19.8991 13.4151L19.9476 13.4577C19.9747 13.4817 19.9915 13.4968 20.0077 13.5119L20.0502 13.5506L20.1103 13.6084L20.1548 13.651L20.2026 13.6989L20.2518 13.7478L20.2828 13.78L20.3135 13.8135L20.3583 13.8604L20.4015 13.908L20.4438 13.9549L20.4599 13.9739C20.4837 14.0012 20.5074 14.0281 20.5341 14.0599L20.5678 14.1009L20.5688 14.1016L20.5747 14.1091C20.5879 14.1249 20.6014 14.1416 20.6232 14.1682L20.6651 14.2214L20.7047 14.2725L20.7509 14.3342L20.7588 14.3447L20.7901 14.3867L20.8314 14.4442L20.8683 14.4967L20.9092 14.5567L20.9471 14.6138L20.9857 14.6729L21.019 14.7257L21.0398 14.7585L21.0593 14.7904L21.0906 14.8432L21.0936 14.8481C21.1038 14.8652 21.114 14.8823 21.1292 14.9088L21.1586 14.9604L21.1589 14.961L21.1645 14.9705L21.1955 15.0263L21.2229 15.0782L21.2427 15.1149L21.2625 15.1523L21.2707 15.1694L21.2711 15.1701L21.2717 15.1704L21.3017 15.2308L21.3318 15.2925C21.3826 15.3975 21.4297 15.5031 21.4733 15.6091L21.4845 15.636L21.5026 15.6813L21.5208 15.7276L21.5498 15.8044L21.566 15.849L21.5805 15.8897L21.594 15.9278L21.6072 15.9668L21.6247 16.0197L21.6379 16.0603L21.6507 16.1007L21.6778 16.19L21.691 16.2359L21.6999 16.2668L21.7279 16.3705L21.7329 16.3901L21.7464 16.4433L21.7586 16.4958L21.7652 16.523L21.7777 16.5769L21.7893 16.6317L21.7909 16.6405L21.8035 16.7003L21.8153 16.7606L21.8167 16.7672V16.7685C21.8239 16.8069 21.8305 16.8437 21.8358 16.8752C21.8411 16.9067 21.847 16.9424 21.8526 16.9825C21.88 17.1666 21.8991 17.352 21.9094 17.5374L21.9097 17.5453L21.9127 17.6073L21.9146 17.6683L21.915 17.6768L21.9163 17.7369L21.9173 17.7956V17.8462C21.9176 17.8757 21.9173 17.9033 21.917 17.9276L21.9156 18.0021L21.9137 18.0585L21.913 18.0838L21.9071 18.1983L21.9067 18.2071L21.9024 18.2715L21.8978 18.3338V18.3361C21.8929 18.3912 21.8876 18.4464 21.8813 18.5018C21.8754 18.5547 21.8681 18.6098 21.8602 18.6676C21.82 18.9511 21.7593 19.2333 21.6768 19.5116L21.6752 19.5165L21.6564 19.5775L21.6376 19.6382L21.6343 19.6484L21.6138 19.7098L21.5924 19.7721L21.5914 19.7754L21.5703 19.8348L21.5475 19.8955L21.5419 19.9109L21.5198 19.969L21.4967 20.0271L21.4941 20.035L21.4693 20.0941L21.4449 20.1531L21.4429 20.1577L21.4202 20.2119L21.4713 20.2411L26.9719 23.3999C27.0669 23.4544 27.1309 23.5167 27.1698 23.5817C27.2028 23.6365 27.2173 23.6943 27.216 23.7507C27.215 23.8075 27.1972 23.8643 27.1668 23.9171C27.1266 23.986 27.0646 24.0474 26.9864 24.0943L17.3783 29.6057L17.277 29.6634L17.3783 29.7219L20.7476 31.6567C21.5383 32.1112 22.4708 32.098 23.2236 31.7043L31.1107 27.1737C31.3176 27.0539 31.4574 26.9365 31.5462 26.7885C31.6352 26.6401 31.6712 26.4656 31.6692 26.2335V17.2335C31.6613 16.3606 31.2028 15.514 30.388 15.046L16.6658 7.16466V11.9915ZM1.6155 15.0473C0.825133 15.5015 0.369914 16.3117 0.335938 17.1567L0.336927 26.2171C0.337917 26.4551 0.370244 26.6346 0.45436 26.7849C0.538807 26.9358 0.673064 27.0536 0.875933 27.1685L8.66777 31.6435L8.71065 31.6685C9.47463 32.098 10.4411 32.1263 11.2559 31.6583L24.8772 23.835L24.9778 23.7766L20.8284 21.3936L20.7759 21.3637L20.7403 21.4119L20.74 21.4126L20.7377 21.4152L20.6958 21.4697L20.6542 21.5225L20.6479 21.5301L20.6047 21.5839L20.5609 21.6367L20.5592 21.6387L20.5589 21.6393L20.5134 21.6928L20.4665 21.7463L20.4652 21.748L20.4184 21.8008L20.3692 21.8543L20.3679 21.8549L20.3669 21.8563L20.3534 21.871L20.3398 21.8855C20.3168 21.9101 20.293 21.9344 20.2689 21.9593L20.2679 21.96L20.2178 22.0111L20.1653 22.0627L20.1637 22.0643L20.163 22.0646L20.1337 22.0935L20.1043 22.1217C20.0542 22.1693 20.003 22.2159 19.9506 22.2622L19.9499 22.2628L19.8945 22.3111L19.8404 22.357L19.8391 22.358L19.8368 22.3596L19.8358 22.3606L19.7797 22.4072L19.7237 22.4528C19.6451 22.5155 19.5653 22.5753 19.4858 22.6324L19.4838 22.634L19.4248 22.6757L19.3624 22.7187L19.2994 22.761L19.2394 22.8L19.2374 22.8017L19.2364 22.802L19.1721 22.843L19.1091 22.8818L19.1078 22.8824L19.0418 22.9224L18.9765 22.9605L18.9125 22.9969L18.8482 23.032L18.8046 23.055L18.7924 23.0616L18.7182 23.1003L18.6727 23.1229L18.6628 23.1275L18.6555 23.1311L18.646 23.1361L18.5886 23.1643L18.4573 23.2257L18.3949 23.2536L18.2643 23.3087L18.1901 23.3382L18.1284 23.3622L18.0545 23.3901L17.9958 23.4111L17.9199 23.4373L17.8589 23.458C17.8243 23.4695 17.8028 23.4757 17.7814 23.4826L17.7266 23.4997L17.6465 23.523L17.5871 23.5394L17.5211 23.5571L17.5 23.5627L17.4542 23.5745L17.4106 23.585L17.3661 23.5952L17.3027 23.6103L17.2394 23.6237L17.1777 23.6365L17.1533 23.6411C17.118 23.6483 17.0824 23.6549 17.0412 23.6618L16.9887 23.6703L16.9877 23.6706L16.9782 23.6723C16.958 23.6756 16.9366 23.6795 16.9026 23.6844L16.835 23.6943L16.7707 23.7028L16.6941 23.712L16.6809 23.7133L16.6285 23.7189L16.5579 23.7261L16.4939 23.7317L16.421 23.7366L16.3524 23.7409L16.2818 23.7445L16.2188 23.7471L16.1426 23.7491L16.0809 23.7501L16.0753 23.7497C16.0548 23.7501 16.0351 23.7504 16.0047 23.7504L15.9453 23.7497H15.9331L15.8691 23.7484L15.8107 23.7464L15.726 23.7432L15.7075 23.7415H15.7065L15.7058 23.7418L15.6379 23.7379L15.5693 23.7327C15.4528 23.7241 15.3371 23.712 15.2229 23.6966L15.1942 23.6926L15.1457 23.6857L15.0963 23.6779L15.061 23.6726L15.0148 23.6647L14.9679 23.6565L14.925 23.6487L14.8855 23.6408L14.8449 23.6329L14.7901 23.6217L14.7063 23.6034L14.6605 23.5932L14.615 23.582L14.5685 23.5706L14.5371 23.5627L14.4847 23.5489L14.4329 23.5348L14.4131 23.5295L14.3603 23.5144L14.3082 23.4993L14.2811 23.4908L14.228 23.4747L14.1749 23.4577L14.1664 23.455L14.108 23.4353L14.0496 23.4153L14.043 23.4134L14.042 23.413C14.0047 23.3999 13.9697 23.3871 13.9397 23.3756C13.9094 23.3648 13.8757 23.3517 13.8378 23.3366C13.6636 23.2686 13.4931 23.1922 13.3265 23.1078L13.3192 23.1042L13.2645 23.076L13.2097 23.0475L13.2021 23.0432L13.1494 23.0147L13.0976 22.9858L13.0821 22.9766L13.0676 22.9687L13.0537 22.9605C13.0276 22.9461 13.0036 22.932 12.9828 22.9198L12.9663 22.91L12.9185 22.8811L12.8706 22.8516L12.8 22.8069L12.7519 22.7758L12.7446 22.7708L12.6908 22.7351L12.6384 22.6996L12.6367 22.6986C12.5909 22.6671 12.5457 22.6346 12.5008 22.6018C12.458 22.5703 12.4131 22.5365 12.3669 22.5008C12.14 22.3245 11.9249 22.1309 11.724 21.9206L11.7207 21.9166L11.6765 21.87L11.6333 21.8234L11.6257 21.8156L11.5828 21.767L11.5396 21.7178L11.537 21.7148L11.4954 21.6669L11.4542 21.6177L11.4436 21.6046L11.4044 21.5566L11.3651 21.5074L11.3602 21.5015L11.3202 21.4503L11.2816 21.3998L11.2787 21.3962L11.2427 21.3496L5.69136 24.5383C5.59669 24.5924 5.51026 24.6167 5.43472 24.618C5.3704 24.6187 5.31267 24.6026 5.26385 24.5731C5.21536 24.5439 5.17478 24.5005 5.14378 24.4477C5.10386 24.3791 5.08143 24.2945 5.07978 24.2036L5.08572 13.0541L1.6155 15.0473Z" fill="#BA0B22"/>
<path fill-rule="evenodd" clip-rule="evenodd" d="M11.3359 17.811C11.3359 20.3878 13.4256 22.4777 16.0022 22.4777C18.5796 22.4777 20.6693 20.3878 20.6693 17.811C20.6693 15.2342 18.5796 13.1443 16.0022 13.1443C13.4256 13.1443 11.3359 15.2342 11.3359 17.811Z" fill="#FFC730"/>
</svg>
