<svg width="16" height="16" viewBox="0 0 16 16" fill="none" xmlns="http://www.w3.org/2000/svg">
<path d="M11.9467 7.74668C11.9149 7.66484 11.8674 7.59008 11.8067 7.52668L8.47333 4.19335C8.41117 4.13119 8.33738 4.08188 8.25617 4.04824C8.17495 4.0146 8.08791 3.99728 8 3.99728C7.82247 3.99728 7.6522 4.06781 7.52667 4.19335C7.46451 4.2555 7.4152 4.3293 7.38156 4.41051C7.34792 4.49173 7.33061 4.57877 7.33061 4.66668C7.33061 4.84421 7.40113 5.01448 7.52667 5.14001L9.72667 7.33334H4.66667C4.48986 7.33334 4.32029 7.40358 4.19526 7.52861C4.07024 7.65363 4 7.8232 4 8.00001C4 8.17682 4.07024 8.34639 4.19526 8.47142C4.32029 8.59644 4.48986 8.66668 4.66667 8.66668H9.72667L7.52667 10.86C7.46418 10.922 7.41459 10.9957 7.38074 11.077C7.34689 11.1582 7.32947 11.2453 7.32947 11.3333C7.32947 11.4214 7.34689 11.5085 7.38074 11.5897C7.41459 11.671 7.46418 11.7447 7.52667 11.8067C7.58864 11.8692 7.66238 11.9188 7.74362 11.9526C7.82486 11.9865 7.91199 12.0039 8 12.0039C8.08801 12.0039 8.17515 11.9865 8.25638 11.9526C8.33762 11.9188 8.41136 11.8692 8.47333 11.8067L11.8067 8.47334C11.8674 8.40994 11.9149 8.33518 11.9467 8.25335C12.0133 8.09104 12.0133 7.90899 11.9467 7.74668Z" fill="black"/>
</svg>
