<svg width="28" height="28" viewBox="0 0 28 28" fill="none" xmlns="http://www.w3.org/2000/svg">
<path d="M26.092 20.44L23.332 17.6133C22.7383 17.049 21.9895 16.6751 21.1816 16.5397C20.3738 16.4042 19.5439 16.5135 18.7987 16.8533L17.5987 15.6533C19.0128 13.7639 19.6586 11.4089 19.4061 9.06246C19.1536 6.71601 18.0216 4.55231 16.2379 3.00695C14.4543 1.46158 12.1514 0.649289 9.7929 0.733593C7.43441 0.817896 5.19542 1.79253 3.52664 3.46131C1.85787 5.13008 0.883234 7.36907 0.798931 9.72757C0.714628 12.0861 1.52692 14.3889 3.07228 16.1726C4.61765 17.9562 6.78134 19.0883 9.1278 19.3407C11.4743 19.5932 13.8292 18.9474 15.7187 17.5333L16.9054 18.72C16.5255 19.4662 16.3893 20.3128 16.5161 21.1404C16.6429 21.9681 17.0262 22.7351 17.612 23.3333L20.4387 26.16C21.1887 26.9091 22.2053 27.3298 23.2654 27.3298C24.3254 27.3298 25.342 26.9091 26.092 26.16C26.473 25.7875 26.7757 25.3426 26.9824 24.8515C27.1891 24.3603 27.2955 23.8329 27.2955 23.3C27.2955 22.7672 27.1891 22.2397 26.9824 21.7486C26.7757 21.2574 26.473 20.8125 26.092 20.44ZM14.7854 14.7867C13.8523 15.7173 12.6644 16.3506 11.3717 16.6065C10.0789 16.8623 8.73935 16.7293 7.52215 16.2243C6.30496 15.7192 5.26477 14.8647 4.53297 13.7687C3.80117 12.6728 3.4106 11.3845 3.4106 10.0667C3.4106 8.74886 3.80117 7.46059 4.53297 6.36463C5.26477 5.26867 6.30496 4.41418 7.52215 3.9091C8.73935 3.40402 10.0789 3.27101 11.3717 3.52688C12.6644 3.78275 13.8523 4.41602 14.7854 5.34668C15.4062 5.96596 15.8988 6.70163 16.2349 7.51156C16.5709 8.3215 16.7439 9.18978 16.7439 10.0667C16.7439 10.9436 16.5709 11.8119 16.2349 12.6218C15.8988 13.4317 15.4062 14.1674 14.7854 14.7867ZM24.212 24.2133C24.0881 24.3383 23.9406 24.4375 23.7781 24.5052C23.6156 24.5729 23.4414 24.6077 23.2654 24.6077C23.0893 24.6077 22.9151 24.5729 22.7526 24.5052C22.5901 24.4375 22.4426 24.3383 22.3187 24.2133L19.492 21.3867C19.367 21.2627 19.2679 21.1153 19.2002 20.9528C19.1325 20.7903 19.0976 20.616 19.0976 20.44C19.0976 20.264 19.1325 20.0897 19.2002 19.9272C19.2679 19.7648 19.367 19.6173 19.492 19.4933C19.616 19.3684 19.7634 19.2692 19.9259 19.2015C20.0884 19.1338 20.2627 19.0989 20.4387 19.0989C20.6147 19.0989 20.789 19.1338 20.9515 19.2015C21.1139 19.2692 21.2614 19.3684 21.3854 19.4933L24.212 22.32C24.337 22.444 24.4362 22.5914 24.5039 22.7539C24.5716 22.9164 24.6064 23.0907 24.6064 23.2667C24.6064 23.4427 24.5716 23.617 24.5039 23.7794C24.4362 23.9419 24.337 24.0894 24.212 24.2133Z" fill="black"/>
</svg>
