<svg width="27" height="27" viewBox="0 0 27 27" fill="none" xmlns="http://www.w3.org/2000/svg">
<path d="M0.332031 3.89584C0.332031 1.92833 1.92702 0.333344 3.89453 0.333344H17.3529C19.3204 0.333344 20.9154 1.92833 20.9154 3.89584V16.1667H26.457V21.3125C26.457 24.1545 24.1532 26.4583 21.3112 26.4583H3.89453C1.92702 26.4583 0.332031 24.8634 0.332031 22.8958V3.89584ZM20.9154 24.0833H21.3112C22.8415 24.0833 24.082 22.8428 24.082 21.3125V18.5417H20.9154V24.0833ZM6.26953 6.66668C5.61369 6.66668 5.08203 7.19834 5.08203 7.85418C5.08203 8.51002 5.61369 9.04168 6.26953 9.04168H14.9779C15.6337 9.04168 16.1654 8.51002 16.1654 7.85418C16.1654 7.19834 15.6337 6.66668 14.9779 6.66668H6.26953ZM6.26953 12.2083C5.61369 12.2083 5.08203 12.74 5.08203 13.3958C5.08203 14.0517 5.61369 14.5833 6.26953 14.5833H14.9779C15.6337 14.5833 16.1654 14.0517 16.1654 13.3958C16.1654 12.74 15.6337 12.2083 14.9779 12.2083H6.26953ZM6.26953 17.75C5.61369 17.75 5.08203 18.2817 5.08203 18.9375C5.08203 19.5933 5.61369 20.125 6.26953 20.125H10.2279C10.8837 20.125 11.4154 19.5933 11.4154 18.9375C11.4154 18.2817 10.8837 17.75 10.2279 17.75H6.26953Z" fill="#1F9A17"/>
</svg>
