<svg width="24" height="24" viewBox="0 0 24 24" fill="none" xmlns="http://www.w3.org/2000/svg">
<path d="M22.0014 9.67C21.9383 9.48709 21.8234 9.32643 21.6708 9.2075C21.5181 9.08858 21.3342 9.0165 21.1414 9L15.4514 8.17L12.9014 3C12.8196 2.83093 12.6917 2.68834 12.5325 2.58857C12.3734 2.48881 12.1893 2.43589 12.0014 2.43589C11.8136 2.43589 11.6295 2.48881 11.4704 2.58857C11.3112 2.68834 11.1833 2.83093 11.1014 3L8.55144 8.16L2.86144 9C2.67636 9.02631 2.50237 9.10396 2.35919 9.22416C2.21602 9.34435 2.1094 9.50227 2.05144 9.68C1.99839 9.85367 1.99363 10.0385 2.03767 10.2147C2.08171 10.3909 2.1729 10.5517 2.30144 10.68L6.43144 14.68L5.43144 20.36C5.39574 20.5475 5.41444 20.7413 5.48531 20.9185C5.55619 21.0956 5.6763 21.2489 5.83144 21.36C5.98266 21.4681 6.16102 21.5319 6.34649 21.5443C6.53196 21.5567 6.71721 21.5171 6.88144 21.43L12.0014 18.76L17.1014 21.44C17.2418 21.5192 17.4003 21.5605 17.5614 21.56C17.7733 21.5608 17.9799 21.4942 18.1514 21.37C18.3066 21.2589 18.4267 21.1056 18.4976 20.9285C18.5684 20.7513 18.5871 20.5575 18.5514 20.37L17.5514 14.69L21.6814 10.69C21.8258 10.5677 21.9325 10.4069 21.9892 10.2263C22.0458 10.0458 22.0501 9.85287 22.0014 9.67ZM15.8514 13.67C15.7342 13.7834 15.6464 13.9238 15.5959 14.079C15.5453 14.2341 15.5335 14.3993 15.5614 14.56L16.2814 18.75L12.5214 16.75C12.3768 16.673 12.2154 16.6327 12.0514 16.6327C11.8875 16.6327 11.7261 16.673 11.5814 16.75L7.82144 18.75L8.54144 14.56C8.56938 14.3993 8.55756 14.2341 8.50701 14.079C8.45646 13.9238 8.36872 13.7834 8.25144 13.67L5.25144 10.67L9.46144 10.06C9.62344 10.0375 9.77744 9.97554 9.90994 9.87965C10.0424 9.78376 10.1494 9.65684 10.2214 9.51L12.0014 5.7L13.8814 9.52C13.9535 9.66684 14.0604 9.79376 14.1929 9.88965C14.3254 9.98554 14.4794 10.0475 14.6414 10.07L18.8514 10.68L15.8514 13.67Z" fill="#686868"/>
</svg>
