<svg width="32" height="32" viewBox="0 0 32 32" fill="none" xmlns="http://www.w3.org/2000/svg">
<path fill-rule="evenodd" clip-rule="evenodd" d="M27.8095 32H4.80887V28.3827L5.259 27.8547C4.06 26.7676 3.02647 25.5013 2.20073 24.0983L8.14853 27.5041H8.80573L1.6162 23.0111C1.386 22.5401 1.17827 22.0563 0.9944 21.5608L9.5374 27.5041H9.9894L0.647467 20.5163C0.476267 19.9343 0.337267 19.3385 0.2326 18.7312L10.6575 27.5041H11.1298L0.0503333 17.2761C0.0169333 16.8551 0 16.4295 0 16C0 15.9057 0.0008 15.8115 0.00253333 15.7176L11.5827 27.5041H11.9107L0.0708 14.4871C0.126733 13.8916 0.2154 13.3055 0.334933 12.7309L12.345 27.5041H12.6443L0.658533 11.4459C0.807 10.9457 0.979333 10.4557 1.1742 9.97707L12.9733 27.5041H13.2525L1.761 8.70013C2.01907 8.1982 2.30293 7.7116 2.61087 7.24207L13.5686 27.5041H13.8241L11.0107 21.6908C10.9806 21.6764 10.9508 21.6616 10.9211 21.6465C10.7751 21.5687 10.6356 21.4801 10.516 21.3647C10.4031 21.2559 10.3107 21.1279 10.2336 20.9917C10.1349 20.8177 10.0596 20.6315 9.97267 20.4515C9.94553 20.3983 9.91807 20.3459 9.88827 20.2942C9.8712 20.2657 9.8566 20.2442 9.83187 20.2225C9.79307 20.1911 9.75173 20.1631 9.7128 20.1319C9.6756 20.0998 9.6382 20.0655 9.61273 20.0228C9.592 19.9881 9.57927 19.9502 9.56573 19.9122L9.5648 19.9119C9.53673 19.896 9.51347 19.8804 9.49507 19.8531C9.4778 19.8275 9.46793 19.7972 9.46673 19.7663C9.46573 19.74 9.4704 19.7405 9.4716 19.7143C9.47187 19.7077 9.46993 19.7011 9.47027 19.6944C9.4716 19.665 9.47427 19.6627 9.48293 19.6351C9.48867 19.5939 9.4952 19.5529 9.5028 19.5119C9.5112 19.4729 9.52047 19.4367 9.53973 19.4016C9.59473 19.3015 9.70067 19.2407 9.8018 19.1929L8.07693 15.6291C8.06273 15.6247 8.04947 15.6204 8.02113 15.6113C7.84547 15.5505 7.6602 15.4723 7.54373 15.3199C7.51433 15.2813 7.48893 15.2409 7.46827 15.1971C7.44373 15.1451 7.42647 15.0899 7.4148 15.0337C7.401 14.9672 7.396 14.8995 7.394 14.8317C7.392 14.7659 7.3962 14.6991 7.3878 14.6336C7.38693 14.6284 7.38747 14.6285 7.38447 14.6241C7.37287 14.6085 7.36053 14.5943 7.3478 14.5794C7.29227 14.5183 7.2348 14.4592 7.17993 14.3975C7.136 14.3453 7.09427 14.2915 7.06093 14.2318C7.00913 14.1389 6.9788 14.0347 6.98227 13.9278C6.98387 13.8799 6.9938 13.8339 7.0074 13.7882C7.03247 13.7177 7.05887 13.6478 7.084 13.5774L3.4532 6.07527C3.7808 5.6618 4.12833 5.26487 4.49447 4.88593L5.5346 7.33707C5.53633 7.26007 5.54067 7.18147 5.5554 7.106C5.60367 6.8578 5.78913 6.6508 6.02467 6.56327C6.112 6.5308 6.21327 6.51133 6.3058 6.53147C6.3726 6.546 6.43487 6.572 6.49593 6.6026C6.55173 6.6306 6.605 6.663 6.65573 6.69893L5.6012 3.84367C5.97867 3.5204 6.37133 3.21447 6.778 2.927L8.18653 7.3676C8.23207 7.32847 8.2762 7.28787 8.32033 7.24713C8.47427 7.1008 8.62187 6.9482 8.7748 6.8008C8.88047 6.7022 8.99287 6.59747 9.12333 6.5298L7.94733 2.174C8.4262 1.89427 8.92087 1.63873 9.42973 1.409L10.8138 7.85307C10.8248 7.84233 10.8357 7.83153 10.8465 7.82053C10.8833 7.781 10.9182 7.74027 10.948 7.6952C10.973 7.6574 10.9953 7.61727 11.0115 7.57487C11.048 7.47913 11.0518 7.37613 11.0497 7.2748C11.0441 7.15427 11.0293 7.03453 11.0218 6.91413C11.0173 6.80593 11.0174 6.6928 11.0615 6.59167C11.1275 6.44027 11.2904 6.36173 11.4405 6.31693C11.4706 6.30793 11.5013 6.3002 11.5319 6.2934C11.5797 6.2828 11.6279 6.27467 11.6764 6.2682L11.688 6.26667L10.7839 0.870933C11.2459 0.711467 11.7173 0.5726 12.1973 0.455467L12.8932 6.22853C12.9797 6.2248 13.0297 6.22313 13.1489 6.2188C13.324 6.21347 13.4991 6.20867 13.6742 6.20627C13.7961 6.20453 13.9197 6.20727 14.0415 6.2032C14.0636 6.20167 14.0857 6.19987 14.1077 6.19793L13.6656 0.1694C14.1775 0.0944 14.6973 0.0437333 15.2238 0.0186L15.4069 7.55987C15.4209 7.57413 15.4339 7.58953 15.446 7.60627C15.4769 7.64927 15.4961 7.7016 15.5129 7.7512C15.5547 7.87387 15.5728 8.0034 15.5831 8.13207C15.5875 8.188 15.5905 8.24407 15.5925 8.30013C15.5959 8.38953 15.5981 8.479 15.6029 8.5684C15.6069 8.6246 15.6119 8.68067 15.6173 8.7368C15.6331 8.88353 15.6501 9.03007 15.6643 9.177C15.6673 9.21253 15.6702 9.248 15.6728 9.28353L15.6761 9.28227C15.7045 9.26987 15.7319 9.256 15.7589 9.24087C15.8715 9.1746 15.9723 9.09087 16.0709 9.00553C16.1609 8.9276 16.2495 8.84807 16.3404 8.77113C16.3891 8.731 16.3889 8.7312 16.4385 8.69187C16.4897 8.65313 16.5419 8.6156 16.5957 8.581L16.8135 0.0204C17.3272 0.0462 17.8345 0.0962 18.3344 0.1694L17.7371 8.3134C17.9803 8.2904 18.2252 8.27487 18.4694 8.28953C18.5973 8.2972 18.727 8.3128 18.8515 8.34607L19.8027 0.455467C20.2827 0.572667 20.7543 0.711533 21.2161 0.870933L19.8479 9.03587C19.9535 9.0288 20.0592 9.0228 20.1649 9.0176C20.2607 9.0138 20.3019 9.01167 20.3979 9.00973C20.5275 9.00713 20.6577 9.00667 20.7871 9.01587C20.8354 9.01933 20.8846 9.0236 20.9331 9.0316L22.5703 1.409C23.0791 1.63873 23.5737 1.89427 24.0527 2.174L22.0223 9.69413C22.0385 9.7012 22.0546 9.70873 22.0706 9.7164C22.1467 9.75273 22.2205 9.79333 22.2922 9.8378C22.5058 9.97013 22.6937 10.152 22.8133 10.3743C22.8233 10.3929 22.8328 10.4117 22.8418 10.4308L25.222 2.927C25.6287 3.21447 26.0213 3.52047 26.3988 3.84367L22.6131 14.0939C22.6498 14.1609 22.6731 14.2347 22.6786 14.3121C22.6821 14.3626 22.6757 14.4109 22.6692 14.4608C22.6643 14.4989 22.6604 14.5372 22.6567 14.5755C22.6501 14.6589 22.6501 14.6586 22.6453 14.7421C22.6262 15.2221 22.6611 15.7013 22.7138 16.1782L27.5055 4.88593C27.8716 5.2648 28.2192 5.66173 28.5468 6.07527L23.5239 16.4537C23.6724 16.5168 23.8055 16.6095 23.8979 16.7462C23.9313 16.7958 23.9583 16.8497 23.9775 16.9064C23.9985 16.9681 24.0101 17.0326 24.0108 17.0977C24.0112 17.1328 24.0084 17.1678 24.0027 17.2023L29.3891 7.24207C29.697 7.71153 29.9809 8.19813 30.239 8.70013L23.6074 19.5517C23.6547 19.5903 23.7047 19.6257 23.7555 19.6597C23.8726 19.7359 23.9939 19.8053 24.1117 19.8803C24.1225 19.8875 24.1335 19.8948 24.1443 19.9021L30.8258 9.97707C31.0207 10.4556 31.1929 10.9457 31.3415 11.4459L24.6184 20.4533C24.631 20.4889 24.6415 20.5254 24.6503 20.5623C24.6862 20.7143 24.6863 20.8697 24.7001 21.0246C24.7518 21.0495 24.8067 21.0681 24.8596 21.0901L24.8667 21.0933L31.6651 12.7309C31.7846 13.3056 31.8733 13.8917 31.9292 14.4871L23.7472 23.4825C23.746 23.5101 23.7452 23.5376 23.7447 23.5651C23.7435 23.6439 23.7451 23.7226 23.7503 23.801L23.7713 23.7989C23.8374 23.7937 23.8371 23.7937 23.9034 23.7897C23.971 23.7872 23.9707 23.7867 24.0381 23.7866C24.0484 23.7866 24.0587 23.7869 24.0691 23.7873L31.9975 15.7176L31.9986 15.7881C31.9995 15.8586 32 15.9293 32 16C32 16.4295 31.9831 16.8551 31.9497 17.2761L24.5833 24.0763C24.5804 24.0961 24.5771 24.1155 24.5742 24.1342C24.5679 24.1869 24.5667 24.3069 24.5647 24.3592C24.5607 24.4659 24.5572 24.5725 24.5533 24.6791C24.5499 24.7269 24.5445 24.7692 24.5254 24.8131C24.5219 24.8213 24.5177 24.8289 24.5129 24.8361L31.7674 18.7312L31.7473 18.8449C31.6453 19.413 31.5131 19.9707 31.3525 20.5163L22.0106 27.5041H22.4626L31.0056 21.5608L30.9708 21.6535C30.7957 22.1167 30.5996 22.5696 30.3838 23.0111L23.1943 27.5041H23.8515L29.7993 24.0983L29.7665 24.1535C29.0269 25.3988 28.1233 26.5353 27.0853 27.5332L27.8095 28.3827V32ZM27.4095 28.7827H5.20887V31.6H27.4095V28.7827ZM20.6405 30.7174C20.6405 30.8034 20.6028 30.9209 20.5275 31.07C20.4551 31.2134 20.381 31.3231 20.305 31.399C20.2555 31.399 20.1893 31.3818 20.1061 31.3474C20.0229 31.313 19.9635 31.2783 19.9276 31.2431C20.0573 31.1836 20.1731 31.1145 20.2749 31.0356C20.3946 30.9431 20.4655 30.8597 20.4878 30.7851C20.4555 30.6955 20.3892 30.617 20.2889 30.5497L20.4373 30.2626C20.4903 30.3085 20.5374 30.378 20.5786 30.4711C20.6199 30.5643 20.6405 30.6464 20.6405 30.7174ZM27.0347 31.1098L26.8615 31.2732L26.6917 31.1033L26.868 30.9421L27.0347 31.1098ZM22.1005 31.0947L21.9274 31.2582L21.7575 31.0883L21.9339 30.927L22.1005 31.0947ZM8.28813 29.4025H8.5216V30.4021C8.5216 30.5328 8.51313 30.6333 8.49627 30.7037C8.4736 30.7956 8.43247 30.8694 8.3728 30.9251C8.3132 30.9807 8.2346 31.0085 8.137 31.0085C8.02253 31.0085 7.9344 30.9649 7.87267 30.8777C7.81093 30.7904 7.77987 30.6624 7.77933 30.4937L8.00007 30.4592C8.00273 30.5497 8.01247 30.6136 8.0294 30.6509C8.05473 30.7077 8.0932 30.736 8.14493 30.736C8.19713 30.736 8.23407 30.7157 8.25573 30.6751C8.27733 30.6346 8.28813 30.5504 8.28813 30.4226V29.4025ZM9.81707 30.9816H9.5622L9.46093 30.6229H8.9972L8.90147 30.9816H8.65293L9.1048 29.4025H9.35253L9.81707 30.9816ZM7.64873 29.6697H7.0228V30.0197H7.6052V30.2858H7.0228V30.7155H7.67087V30.9816H6.78853V29.4025H7.64873V29.6697ZM10.1763 30.9816H9.94207V29.4025H10.4351C10.5591 29.4025 10.6491 29.4167 10.7053 29.4451C10.7615 29.4735 10.8065 29.5239 10.8403 29.5964C10.874 29.6689 10.8909 29.7519 10.8909 29.8453C10.8909 29.9637 10.8653 30.0615 10.8141 30.1387C10.763 30.2159 10.6865 30.2646 10.5847 30.2847C10.6353 30.3249 10.6771 30.3691 10.7101 30.4172C10.7431 30.4653 10.7875 30.5507 10.8434 30.6735L10.9851 30.9816H10.7049L10.5356 30.638C10.4755 30.5152 10.4343 30.4378 10.4121 30.4059C10.39 30.3739 10.3665 30.352 10.3417 30.3402C10.3169 30.3283 10.2776 30.3224 10.2238 30.3224H10.1763V30.9816ZM12.1579 30.9816H11.9031L11.8017 30.6229H11.338L11.2423 30.9816H10.9938L11.4457 29.4025H11.6933L12.1579 30.9816ZM13.0007 29.6697H12.6572V30.9816H12.423V29.6697H12.0787V29.4025H13.0007V29.6697ZM13.9977 30.9816H13.6029V29.4025H14.0666C14.1584 29.4025 14.2269 29.4077 14.2719 29.4181C14.3171 29.4286 14.3574 29.4503 14.3931 29.4833C14.4287 29.5163 14.4583 29.5603 14.4821 29.6153C14.5058 29.6702 14.5177 29.7318 14.5177 29.8C14.5177 29.8739 14.5031 29.9418 14.4737 30.0036C14.4445 30.0653 14.4048 30.1117 14.3547 30.1425C14.4253 30.1705 14.4797 30.2183 14.5177 30.2858C14.5557 30.3533 14.5747 30.4326 14.5747 30.5238C14.5747 30.5956 14.5624 30.6655 14.5379 30.7333C14.5133 30.8012 14.4798 30.8554 14.4373 30.8959C14.3949 30.9365 14.3425 30.9615 14.2803 30.9708C14.2413 30.9766 14.1471 30.9801 13.9977 30.9816ZM15.8187 30.9816H15.5639L15.4625 30.6229H14.9988L14.9031 30.9816H14.6546L15.1065 29.4025H15.3541L15.8187 30.9816ZM16.1629 30.9816H15.9453V29.4025H16.1732L16.648 30.4571V29.4025H16.8656V30.9816H16.6306L16.1629 29.9519V30.9816ZM17.3507 30.9816H17.1165V29.4025H17.3507V30.1037L17.8239 29.4025H18.1389L17.7021 30.0176L18.1627 30.9816H17.8595L17.5407 30.2405L17.3507 30.5044V30.9816ZM6.6374 29.6697H6.29393V30.9816H6.05973V29.6697H5.71547V29.4025H6.6374V29.6697ZM25.5111 30.7647H25.4413C25.3617 30.7647 25.2861 30.7367 25.2144 30.6808C25.175 30.65 25.1241 30.5945 25.0617 30.5142C24.9994 30.4339 24.9496 30.3791 24.9123 30.3497C24.9166 30.3755 24.9187 30.4023 24.9187 30.4303C24.9187 30.4669 24.9148 30.5055 24.9069 30.5464C24.8431 30.6382 24.7396 30.7005 24.5962 30.7335C24.5059 30.7543 24.3819 30.7647 24.2242 30.7647C24.0099 30.7647 23.8655 30.7496 23.7909 30.7195C23.682 30.6758 23.6275 30.5833 23.6275 30.4421C23.6275 30.3153 23.6716 30.1827 23.7597 30.0443C23.7935 30.0415 23.8149 30.0533 23.8243 30.0798C23.7827 30.1479 23.7619 30.2135 23.7619 30.2765C23.7619 30.3669 23.8131 30.4246 23.9157 30.4497C23.9737 30.464 24.0945 30.4711 24.278 30.4711C24.4471 30.4711 24.5708 30.4647 24.6489 30.4518C24.7191 30.4403 24.779 30.4171 24.8285 30.3819C24.7453 30.2429 24.6005 30.1264 24.3941 30.0325C24.3984 29.887 24.4099 29.7648 24.4285 29.6659C24.7389 29.491 25.0367 29.3727 25.3219 29.3111L25.1929 29.5885C25.0926 29.6129 24.9629 29.6577 24.8037 29.7229C24.6769 29.7745 24.5851 29.8157 24.5285 29.8465C24.641 29.8888 24.77 29.9662 24.9155 30.0787C24.97 30.121 25.037 30.183 25.1166 30.2647C25.1883 30.3385 25.2406 30.3873 25.2735 30.4109C25.328 30.4504 25.385 30.4701 25.4445 30.4701H25.5542C25.7097 30.4701 25.7875 30.4468 25.7875 30.4002C25.7875 30.3679 25.747 30.297 25.666 30.1873L25.8315 29.9615C25.9133 30.0705 25.9541 30.1845 25.9541 30.3035C25.9291 30.4554 25.8946 30.5586 25.8509 30.6131C25.7699 30.7141 25.6567 30.7647 25.5111 30.7647ZM26.6013 30.7647H26.5315C26.3946 30.7647 26.3053 30.7081 26.2637 30.5948C26.2358 30.5181 26.2172 30.3471 26.2079 30.0819C26.2035 29.9508 26.1982 29.8597 26.1917 29.8089C26.1795 29.7099 26.1566 29.6221 26.1229 29.5455L26.3197 29.339C26.3527 29.3913 26.3731 29.472 26.3809 29.5809C26.3838 29.6203 26.3853 29.7039 26.3853 29.8315V30.1486C26.3853 30.2432 26.3921 30.3121 26.4057 30.3551C26.4301 30.4317 26.4788 30.4701 26.5519 30.4701H26.6444C26.7999 30.4701 26.8777 30.4468 26.8777 30.4002C26.8777 30.3679 26.8372 30.297 26.7562 30.1873L26.9217 29.9615C27.0035 30.0705 27.0443 30.1845 27.0443 30.3035C27.0193 30.4554 26.9848 30.5586 26.9411 30.6131C26.8601 30.7141 26.7469 30.7647 26.6013 30.7647ZM19.8459 30.2583C19.8459 30.292 19.8255 30.3525 19.7846 30.44C19.7438 30.5274 19.7105 30.5815 19.6847 30.6023C19.6531 30.6274 19.5545 30.6589 19.389 30.6969C19.1919 30.7421 19.0095 30.7647 18.8417 30.7647C18.6167 30.7647 18.4619 30.7206 18.3773 30.6324C18.3235 30.5765 18.2966 30.4937 18.2966 30.3841C18.2966 30.235 18.3393 30.0945 18.4246 29.9626C18.4281 29.9619 18.4321 29.9615 18.4364 29.9615C18.4679 29.9615 18.4898 29.9737 18.502 29.9981C18.4583 30.1013 18.4364 30.1801 18.4364 30.2346C18.4364 30.3931 18.607 30.4723 18.9481 30.4723C19.2578 30.4723 19.5004 30.4353 19.6761 30.3615C19.6459 30.2834 19.6065 30.2117 19.5578 30.1465L19.7212 29.925C19.7541 29.9659 19.7839 30.025 19.8104 30.1024C19.8341 30.1712 19.8459 30.2231 19.8459 30.2583ZM21.364 30.7647H21.2167C21.0798 30.7647 20.9906 30.7081 20.949 30.5948C20.9211 30.5181 20.9024 30.3471 20.8931 30.0819C20.8888 29.9508 20.8834 29.8597 20.877 29.8089C20.8648 29.7099 20.8419 29.6221 20.8081 29.5455L21.0049 29.339C21.0379 29.3913 21.0583 29.472 21.0662 29.5809C21.0691 29.6203 21.0705 29.7039 21.0705 29.8315V30.1486C21.0705 30.2432 21.0773 30.3121 21.0909 30.3551C21.1153 30.4317 21.1641 30.4701 21.2371 30.4701H21.4113C21.5281 30.4701 21.6239 30.4583 21.6984 30.4346C21.7493 30.4189 21.8449 30.3758 21.9855 30.3056C21.7123 30.1981 21.5583 30.1443 21.5231 30.1443C21.4916 30.1443 21.4661 30.1543 21.4468 30.1744C21.4296 30.1916 21.4059 30.2289 21.3759 30.2863C21.3644 30.2913 21.354 30.2937 21.3447 30.2937C21.3253 30.2937 21.3099 30.2841 21.2984 30.2647C21.3472 30.1379 21.3845 30.0504 21.4103 30.0024C21.4583 29.9121 21.5045 29.8669 21.5489 29.8669C21.5776 29.8669 21.676 29.9045 21.8441 29.9798C22.0121 30.0551 22.1345 30.0927 22.2112 30.0927C22.2958 30.0927 22.4277 30.0755 22.6069 30.0411L22.4929 30.3013C22.399 30.3113 22.3216 30.3228 22.2607 30.3357C22.3037 30.4253 22.3869 30.4701 22.5101 30.4701H22.7381C22.8936 30.4701 22.9713 30.4468 22.9713 30.4002C22.9713 30.3679 22.9309 30.297 22.8499 30.1873L23.0155 29.9615C23.0971 30.0705 23.138 30.1845 23.138 30.3035C23.1129 30.4554 23.0785 30.5586 23.0348 30.6131C22.9538 30.7141 22.8405 30.7647 22.6951 30.7647H22.6058C22.4847 30.7647 22.3883 30.7285 22.3166 30.6561C22.2593 30.598 22.2095 30.5049 22.1671 30.3765C21.9378 30.5385 21.8013 30.6317 21.7575 30.6561C21.6278 30.7285 21.4966 30.7647 21.364 30.7647ZM14.0263 30.2933H13.8371V30.7155H14.0539C14.1383 30.7155 14.1919 30.7123 14.2146 30.7059C14.2494 30.6973 14.2778 30.6762 14.2997 30.6429C14.3215 30.6095 14.3325 30.5647 14.3325 30.5087C14.3325 30.4613 14.3241 30.4211 14.3072 30.3881C14.2903 30.3551 14.2659 30.331 14.234 30.3159C14.2021 30.3009 14.1329 30.2933 14.0263 30.2933ZM15.3874 30.3569L15.2275 29.7709L15.0709 30.3569H15.3874ZM9.38573 30.3569L9.22593 29.7709L9.0692 30.3569H9.38573ZM11.7266 30.3569L11.5667 29.7709L11.4101 30.3569H11.7266ZM10.3591 29.6697H10.1763V30.0703H10.3496C10.462 30.0703 10.5321 30.0639 10.5601 30.051C10.5881 30.0381 10.61 30.0158 10.6258 29.9842C10.6417 29.9526 10.6495 29.9131 10.6495 29.8657C10.6495 29.8125 10.6391 29.7697 10.6183 29.737C10.5975 29.7043 10.5681 29.6837 10.5301 29.6751C10.5111 29.6715 10.4541 29.6697 10.3591 29.6697ZM13.9717 29.6653H13.8371V30.0305H13.9907C14.0819 30.0305 14.1386 30.0287 14.1608 30.0251C14.2009 30.0187 14.2324 29.9998 14.2553 29.9686C14.2783 29.9373 14.2898 29.8962 14.2898 29.8453C14.2898 29.7964 14.2799 29.7567 14.2601 29.7262C14.2403 29.6957 14.2109 29.6772 14.1719 29.6707C14.1487 29.6671 14.0819 29.6653 13.9717 29.6653ZM19.0503 29.811L18.8912 29.9615L18.7353 29.8035L18.8976 29.6583L19.0503 29.811ZM19.4438 29.7906L19.2847 29.9401L19.1288 29.7831L19.2922 29.6369L19.4438 29.7906ZM25.9703 29.6433L25.7971 29.8067L25.6273 29.6369L25.8036 29.4756L25.9703 29.6433ZM23.2907 29.6519L23.1423 29.8003L22.9918 29.668L22.8542 29.8067L22.6961 29.668L22.8445 29.5164L22.995 29.6508L23.1326 29.51L23.2907 29.6519ZM14.3395 27.5041L13.5055 25.2459L13.4863 25.2427L13.4265 25.2314C13.3973 25.2233 13.3723 25.2143 13.3489 25.1942C13.2965 25.1493 13.2771 25.0745 13.3011 25.0097C13.3117 24.9809 13.3292 24.9609 13.3507 24.9395L13.3826 24.913L13.1079 24.1692C13.0815 24.1867 13.0529 24.2009 13.0225 24.2127C12.983 24.228 12.9419 24.2391 12.9002 24.2468C12.8787 24.2508 12.8574 24.2537 12.8357 24.2558C12.7967 24.2595 12.7553 24.2601 12.7141 24.2563L14.0922 27.5041H14.3395ZM14.5739 27.5041H14.7861L14.1953 25.3159C14.0875 25.3106 13.98 25.3033 13.8726 25.2932L14.5739 27.5041ZM15.0344 27.5041H15.2467L14.8824 25.3305L14.7845 25.3298L14.5669 25.3277L15.0344 27.5041ZM15.458 27.5041H15.6703L15.5112 25.3351L15.4759 25.3354C15.3827 25.3343 15.2895 25.3334 15.1963 25.3327L15.458 27.5041ZM16.1143 27.5041L16.1701 25.3118C16.0922 25.3613 16.0053 25.347 15.9184 25.3332C15.8992 25.3311 15.8797 25.3319 15.8603 25.3317L15.8381 25.3316L15.8909 27.5041H16.1143ZM16.542 27.5041L16.9045 24.4968C16.8987 24.5125 16.8928 24.5281 16.8865 24.5436C16.8713 24.5771 16.8554 24.6099 16.835 24.6404C16.7665 24.7428 16.6685 24.8249 16.571 24.8982C16.5535 24.9107 16.5359 24.923 16.5181 24.9351L16.3297 27.5041H16.542ZM16.9656 27.5041L17.7783 23.7201C17.7596 23.7607 17.7409 23.8014 17.7215 23.8419C17.6978 23.8892 17.6979 23.889 17.6731 23.9355C17.5912 24.0771 17.4877 24.2281 17.3202 24.2715C17.3115 24.2737 17.3029 24.2756 17.2941 24.2771L16.7533 27.5041H16.9656ZM17.2139 27.5041H17.4261L18.3539 24.5791C18.3391 24.5681 18.3255 24.5557 18.3139 24.5411C18.2909 24.5123 18.2763 24.4768 18.2659 24.4418C18.2423 24.3618 18.2446 24.2773 18.2565 24.1955C18.2593 24.1761 18.2638 24.1505 18.2676 24.1313C18.2763 24.0879 18.2859 24.0447 18.2937 24.0011C18.3073 23.9113 18.3174 23.8208 18.327 23.7304C18.3379 23.6176 18.3462 23.5046 18.3455 23.3911C18.3453 23.367 18.3448 23.3429 18.3439 23.3187L17.2139 27.5041ZM17.6605 27.5041H17.9078L18.9854 24.9645C18.9671 24.9611 18.9491 24.9563 18.9314 24.9493C18.8568 24.9196 18.7997 24.8579 18.7757 24.7813C18.764 24.7441 18.7611 24.7056 18.7599 24.6669L18.7595 24.6547C18.7446 24.6527 18.7296 24.6511 18.7146 24.6498L17.6605 27.5041ZM18.1759 27.5041H18.4314L19.7025 25.1537C19.6163 25.1513 19.5303 25.1442 19.4453 25.1278C19.4095 25.1209 19.3732 25.1136 19.3386 25.1016L18.1759 27.5041ZM19.0267 27.5041L20.6211 25.1357C20.4778 25.1379 20.3345 25.1381 20.1913 25.1416L18.7475 27.5041H19.0267ZM19.655 27.5041L21.616 25.0919L21.6045 25.0927C21.4485 25.1019 21.2926 25.1107 21.1366 25.1181L19.3557 27.5041H19.655ZM20.4173 27.5041L22.8692 25.0085C22.7765 25.0145 22.6838 25.0201 22.5911 25.0263L22.3266 25.0444L20.0893 27.5041H20.4173ZM21.3425 27.5041L24.4423 24.8955C24.3944 24.9193 24.3365 24.9284 24.2871 24.9319C24.2751 24.9328 24.2631 24.9333 24.2509 24.9336C24.2279 24.9342 24.2039 24.9337 24.1809 24.9328C24.1473 24.9315 24.1179 24.9291 24.0835 24.9264C24.0425 24.9231 24.0018 24.9191 23.9607 24.9181C23.8933 24.9193 23.826 24.9253 23.7589 24.9302C23.7219 24.9333 23.6849 24.9364 23.648 24.9397L20.8702 27.5041H21.3425ZM13.1313 23.7472C13.1354 23.7468 13.1395 23.7465 13.1436 23.7462C13.1709 23.7465 13.1707 23.7465 13.1981 23.7487C13.2059 23.7499 13.2137 23.7511 13.2215 23.7526L13.2237 23.753C13.231 23.7545 13.2383 23.756 13.2456 23.7577L13.2488 23.7584C13.2559 23.7601 13.2629 23.7619 13.2699 23.7637L13.2777 23.7659L13.2854 23.7683L13.2957 23.7713L13.3036 23.7739L13.3105 23.7763L13.3193 23.7792L13.3291 23.7827L13.3426 23.7879L13.3543 23.7926L13.3657 23.7974L13.3791 23.8033L13.3885 23.8075L13.4036 23.8147C13.4585 23.8413 13.5112 23.8734 13.5619 23.9075C13.6529 23.9685 13.7427 24.036 13.8117 24.1219C13.9563 24.3019 13.9939 24.5394 13.9305 24.7593C13.9102 24.8297 13.8825 24.8959 13.8392 24.9552L13.8385 24.9561C13.9269 24.9652 14.0155 24.9721 14.104 24.9775L14.116 24.9782L14.1933 24.9824L14.2148 24.9834L14.295 24.9869L14.3901 24.9901L14.4871 24.9927L14.5593 24.9943C14.6483 24.9953 14.7374 24.9961 14.8265 24.9967L15.156 24.9991C15.2632 24.9998 15.3703 25.0007 15.4775 25.0021L15.5726 25.0013L15.7443 24.999L15.7511 24.9989C15.7889 24.9985 15.8267 24.9983 15.8645 24.9984C15.9136 24.9995 15.9134 24.9975 15.9621 25.0026L15.9742 25.0045C15.9809 24.983 15.9885 24.9623 15.9971 24.9415C16.0168 24.9019 16.0404 24.8681 16.0743 24.8394C16.1103 24.812 16.1469 24.7854 16.184 24.7593L16.2792 24.6951L16.3266 24.6626L16.3736 24.6296C16.4011 24.6089 16.4279 24.5876 16.4541 24.5653L16.4811 24.5405L16.4943 24.5279L16.5075 24.5149L16.5204 24.5016L16.5261 24.4953L16.5327 24.4878L16.5383 24.4811L16.5443 24.4736L16.5528 24.4624L16.5578 24.4551C16.5751 24.4293 16.5861 24.399 16.5966 24.3699C16.6095 24.3341 16.622 24.2981 16.6356 24.2625C16.6487 24.2309 16.6487 24.2312 16.6633 24.2003C16.6857 24.1593 16.7096 24.1205 16.7422 24.0867C16.8036 24.0231 16.8828 23.9841 16.9683 23.9673L16.9832 23.9645C16.9888 23.9635 16.9945 23.9627 17.0003 23.9619C17.0742 23.9521 17.1492 23.9611 17.2229 23.9513C17.2333 23.9495 17.2439 23.9477 17.2529 23.942L17.2642 23.9329L17.2752 23.9231L17.2788 23.9197L17.2892 23.9093L17.299 23.8986L17.3085 23.8873L17.3177 23.8756L17.3209 23.8714L17.3297 23.8593L17.3377 23.8475L17.3503 23.8277L17.3595 23.8123L17.3689 23.7963L17.3751 23.7851C17.3845 23.7684 17.3933 23.7516 17.402 23.7354C17.4519 23.6358 17.4961 23.5335 17.5451 23.4335C17.5737 23.3786 17.6058 23.3258 17.6347 23.2711C17.6691 23.2059 17.7022 23.1401 17.7378 23.0755C17.7581 23.041 17.7788 23.0071 17.8014 22.9741C17.8267 22.9391 17.8533 22.9052 17.883 22.8737C17.9086 22.8467 17.9359 22.8213 17.9649 22.7979L17.9787 22.7872L17.9884 22.7797L17.9991 22.7718L18.0125 22.7622L18.0198 22.7572L18.0372 22.7455L18.039 22.7444C18.0467 22.7393 18.0545 22.7344 18.0624 22.7296C18.1709 22.6629 18.3041 22.5967 18.4319 22.6471C18.4607 22.6585 18.4876 22.6771 18.5108 22.6972L18.5115 22.6978C18.5355 22.7187 18.5563 22.7431 18.5737 22.7696C18.6003 22.8099 18.6187 22.8552 18.6317 22.9015C18.6561 22.9888 18.66 23.0797 18.6676 23.1694C18.6753 23.2607 18.6798 23.3518 18.6786 23.4435C18.6775 23.5229 18.6731 23.6022 18.6664 23.6813L18.6662 23.6841L18.6659 23.6866C18.6645 23.7042 18.6629 23.7218 18.6612 23.7393C18.6591 23.7609 18.6569 23.7825 18.6545 23.804L18.6522 23.8244L18.6487 23.8556L18.6468 23.8715L18.6457 23.8814L18.6439 23.8948L18.6418 23.9127L18.6381 23.9415L18.6366 23.9541L18.627 24.0266C18.6173 24.0996 18.5981 24.1709 18.5864 24.2435C18.5837 24.2637 18.5818 24.2835 18.5811 24.3039L18.5811 24.3074C18.6307 24.312 18.6807 24.313 18.7304 24.3163L18.7561 24.3187L18.7742 24.3206L18.7961 24.3233L18.8075 24.325L18.8178 24.3266L18.833 24.3293C18.8568 24.3338 18.8801 24.3398 18.9029 24.3482C18.9842 24.3781 19.0484 24.4387 19.0757 24.5216C19.0881 24.5594 19.0914 24.5987 19.0925 24.6382L19.1241 24.6376L19.1303 24.6375L19.1461 24.6375L19.1681 24.6378C19.2367 24.6428 19.2983 24.6607 19.3535 24.7026C19.3698 24.715 19.3849 24.7289 19.3995 24.7431C19.4139 24.7573 19.4278 24.7743 19.4449 24.7857L19.4552 24.7889L19.4656 24.7917L19.4863 24.7964C19.5012 24.7994 19.5163 24.8019 19.531 24.8045C19.6513 24.8233 19.773 24.8247 19.8948 24.8208L19.9225 24.8199L19.9639 24.8183L20.1324 24.8104L20.1757 24.8087C20.1898 24.8082 20.204 24.8077 20.2181 24.8074L20.2191 24.8073C20.3471 24.8061 20.4751 24.8053 20.6031 24.8033C20.6917 24.801 20.7801 24.7983 20.8686 24.795L20.9665 24.7913L20.996 24.7901L21.1205 24.7847L21.1327 24.7841L21.2477 24.7787L21.2734 24.7774L21.4207 24.7697C21.5813 24.7601 21.7419 24.7499 21.9026 24.7394L22.2639 24.7154L22.6496 24.6893L22.9637 24.6683C23.0546 24.6615 23.1454 24.6533 23.2361 24.6445C23.3273 24.6359 23.4185 24.6267 23.5096 24.618L23.5407 24.615L23.58 24.6114L23.6062 24.6089L23.6369 24.6061L23.6465 24.6053C23.6754 24.6027 23.7043 24.6002 23.7331 24.5979C23.8 24.593 23.8668 24.5887 23.9337 24.5852L23.9516 24.5851H23.9576L23.9695 24.5853L23.9815 24.5855L24.0053 24.5865L24.0292 24.5878C24.0926 24.5917 24.1559 24.5987 24.2194 24.6004H24.2219C24.224 24.4775 24.2313 24.3543 24.2361 24.2315L24.2412 24.1141C24.2097 24.1161 24.1783 24.1185 24.1468 24.1201L24.1153 24.1215C24.0925 24.1214 24.0697 24.1211 24.0469 24.1207L24.0127 24.1205C24.0013 24.1204 23.9898 24.1204 23.9784 24.1205L23.9449 24.1219L23.9126 24.1237L23.8474 24.128L23.8155 24.1306L23.7785 24.1337L23.7435 24.1369C23.6373 24.1469 23.5313 24.1594 23.425 24.1697C23.3597 24.1751 23.3599 24.1751 23.2944 24.1794C23.2387 24.1817 23.1831 24.1834 23.1273 24.1829L23.1105 24.1825L23.1007 24.1823L23.0986 24.1821C23.0927 24.182 23.0861 24.1817 23.074 24.1809C23.0106 24.1744 22.951 24.1567 22.8929 24.1309C22.8258 24.1012 22.7634 24.0621 22.6961 24.0326C22.6777 24.0254 22.6601 24.0202 22.6407 24.0153L22.6241 24.0121L22.6073 24.0093L22.6008 24.0083L22.5905 24.0069L22.5839 24.006L22.5739 24.0047L22.5613 24.0032L22.5399 24.0009L22.5057 23.9977C22.4613 23.9939 22.4169 23.991 22.3727 23.9861C22.3349 23.9807 22.3352 23.9807 22.2979 23.9738C22.2574 23.9643 22.2179 23.9537 22.1795 23.9375C22.1388 23.9204 22.0999 23.9003 22.0619 23.8784L22.0593 23.8769C22.0487 23.8708 22.0381 23.8645 22.0276 23.8581L22.0264 23.8574L22.0051 23.8443L21.9965 23.8389L21.9933 23.8369L21.9893 23.8343L21.9812 23.8291L21.9721 23.8232L21.9596 23.8152L21.9392 23.8017L21.9338 23.7983L21.9277 23.7943L21.9261 23.7931L21.8751 23.7595L21.8475 23.7415L21.8306 23.7305L21.8221 23.7251L21.7913 23.7059C21.7605 23.6883 21.7295 23.6716 21.6969 23.6573L21.6823 23.6516L21.6785 23.6502L21.6707 23.6475L21.6553 23.6425L21.6497 23.6407C21.6047 23.6273 21.5587 23.6195 21.5113 23.6124C21.4588 23.6045 21.4061 23.5983 21.3533 23.5933C21.2865 23.5869 21.2192 23.5819 21.1517 23.5791L21.1463 23.5789L21.1083 23.5776L21.0997 23.5773L21.0695 23.5767L21.0592 23.5766L21.0281 23.5764L21.0202 23.5763L20.9814 23.5767L20.9752 23.5769L20.9434 23.5776L20.9308 23.5781L20.9049 23.5791L20.8913 23.5798L20.853 23.5821L20.8151 23.5851L20.7715 23.5894L20.7587 23.5909L20.7263 23.5947L20.7142 23.5962L20.6717 23.6019L20.6071 23.6114C20.5487 23.6202 20.4904 23.6294 20.4319 23.6371C20.3798 23.6431 20.38 23.643 20.3275 23.6479C20.2259 23.6549 20.1245 23.6571 20.0232 23.6439C19.9434 23.6335 19.8699 23.6155 19.7999 23.5746L19.7883 23.5677L19.7854 23.5658L19.7837 23.5648L19.7814 23.5633L19.777 23.5605L19.7739 23.5584L19.7679 23.5545L19.7575 23.5473L19.7548 23.5455L19.7538 23.5448C19.7474 23.5403 19.741 23.5356 19.7347 23.5308L19.7333 23.5297L19.7301 23.5273L19.7223 23.5213L19.7149 23.5155L19.7121 23.5133L19.7103 23.5118L19.7075 23.5096L19.7027 23.5056L19.6915 23.4964L19.6823 23.4886L19.6786 23.4855L19.675 23.4824L19.6711 23.4791L19.6629 23.4719L19.6501 23.4609L19.6307 23.4437C19.6089 23.4245 19.5871 23.4052 19.5647 23.3867C19.4762 23.3179 19.3808 23.2583 19.2907 23.1916C19.2809 23.184 19.2713 23.1763 19.2617 23.1685L19.2539 23.1621L19.2465 23.1559L19.2447 23.1545C19.2381 23.1491 19.2317 23.1436 19.2253 23.1381L19.2215 23.1348L19.2075 23.1225L19.2056 23.1207L19.2037 23.1189L19.1901 23.1065L19.1861 23.1028L19.1829 23.0997L19.1789 23.0959L19.1729 23.0902L19.1669 23.0842L19.1627 23.08L19.1599 23.0772L19.1562 23.0734L19.143 23.0596L19.1416 23.0581C19.1356 23.0517 19.1297 23.0451 19.1239 23.0385C19.1183 23.032 19.1127 23.0255 19.1073 23.0189L19.1058 23.0171L19.1021 23.0125L19.0947 23.0033L19.0911 22.9986L19.0884 22.9953L19.0854 22.9913L19.0807 22.9852L19.0751 22.9775L19.0717 22.973L19.0698 22.9703L19.0673 22.9668L19.0557 22.9502L19.055 22.9493C19.0503 22.9422 19.0455 22.9351 19.0409 22.9279L19.0403 22.927L19.0375 22.9225L19.0296 22.9098L19.0274 22.9061L19.0257 22.9033L19.0227 22.8982L19.0179 22.8902L19.0143 22.8837L19.0117 22.8792L19.0096 22.8753L19.0068 22.8704L19.0015 22.8603L18.9985 22.8547L18.9973 22.8526L18.9961 22.8503L18.9868 22.8318L18.9859 22.8299L18.985 22.8281L18.9761 22.8093L18.9751 22.8071L18.9741 22.8047L18.9713 22.7984L18.9669 22.7885L18.9649 22.7836L18.9629 22.7792L18.9608 22.7738L18.9581 22.7675L18.9551 22.7597L18.9526 22.7533L18.9512 22.7497L18.9499 22.7462L18.9456 22.7345L18.9429 22.7272L18.9424 22.7255L18.9421 22.7248C18.9332 22.6993 18.9253 22.6733 18.9185 22.6471C18.8863 22.5233 18.876 22.3953 18.8555 22.2692C18.8502 22.2406 18.8443 22.2125 18.8371 22.1843C18.8251 22.1448 18.8116 22.1053 18.7849 22.073C18.7612 22.0443 18.7291 22.0255 18.6946 22.0129L18.6787 22.0075L18.6775 22.0071L18.6619 22.0027L18.6591 22.002L18.6441 21.9985L18.6237 21.9944C18.5962 21.9895 18.5683 21.9865 18.5405 21.9859L18.5237 21.9858C18.5125 21.9859 18.5014 21.9864 18.4902 21.9873C18.3765 21.9962 18.2707 22.0421 18.1702 22.093L18.123 22.1183C18.0197 22.1748 17.9191 22.2363 17.8158 22.2926C17.7491 22.3273 17.6807 22.3579 17.6111 22.3852L17.6103 22.3855L17.6084 22.3863L17.5995 22.3897L17.5827 22.3961L17.5779 22.3979L17.573 22.3997L17.5645 22.4028L17.5541 22.4067L17.545 22.4099L17.5374 22.4127L17.5315 22.4147L17.5254 22.4169L17.5107 22.4219L17.5016 22.425L17.4987 22.426C17.4882 22.4295 17.4776 22.433 17.4671 22.4364L17.4656 22.4369L17.4573 22.4395L17.4385 22.4454L17.4341 22.4467L17.4295 22.4482L17.4205 22.4509L17.4093 22.4543L17.4007 22.4568L17.3931 22.4591L17.3865 22.4609L17.3801 22.4628L17.3665 22.4666L17.3567 22.4694L17.353 22.4704L17.3507 22.4711L17.3254 22.4779L17.32 22.4793L17.309 22.4821L17.2917 22.4867L17.2884 22.4875L17.2833 22.4888L17.2719 22.4916L17.262 22.4941L17.2583 22.4949C17.2399 22.4994 17.2215 22.5037 17.2031 22.5079L17.2025 22.5081L17.2009 22.5084L17.1723 22.5147L17.1427 22.521L17.135 22.5227C16.9875 22.5532 16.8381 22.5755 16.6898 22.5945C16.6758 22.5963 16.6618 22.5981 16.6479 22.5998C16.5981 22.606 16.5484 22.6119 16.4986 22.6179C16.4765 22.6205 16.4541 22.6231 16.4317 22.6255L16.4302 22.6256L16.4193 22.6267L16.4016 22.6285L16.3989 22.6287L16.3957 22.6291L16.3845 22.6301L16.369 22.6314L16.3653 22.6317L16.3612 22.6321L16.3501 22.6328L16.3363 22.6339L16.3317 22.6341L16.3265 22.6345L16.3159 22.6349L16.3036 22.6356L16.2981 22.6358L16.2919 22.6361L16.2817 22.6363L16.2709 22.6367L16.2645 22.6367L16.2572 22.6369L16.2477 22.6368L16.2382 22.6369C16.1407 22.6363 16.0443 22.6227 15.9532 22.5833C15.8847 22.5537 15.8243 22.5135 15.7687 22.4673L15.7659 22.465L15.7579 22.4583L15.7496 22.451L15.747 22.4488L15.7455 22.4474C15.7324 22.4359 15.7196 22.4241 15.707 22.4119L15.7051 22.4101L15.7024 22.4075L15.696 22.4013L15.6873 22.3926L15.681 22.3863L15.6768 22.382L15.6647 22.3697L15.6555 22.3599L15.6516 22.3559L15.6488 22.3529C15.6404 22.344 15.6321 22.335 15.6238 22.326L15.6227 22.3249L15.6189 22.3206L15.6061 22.3065L15.6007 22.3005L15.5943 22.2933L15.5702 22.2661L15.5679 22.2635L15.5668 22.2622L15.5661 22.2615L15.5231 22.2124L15.4997 22.186L15.4859 22.1705L15.4793 22.1631L15.4537 22.1351C15.4323 22.1131 15.4104 22.0919 15.3875 22.0715L15.3731 22.0599L15.3682 22.0562L15.3585 22.0489L15.3523 22.0445L15.3437 22.0383L15.3367 22.0336L15.3285 22.0281L15.3207 22.0233L15.3131 22.0185L15.3045 22.0133L15.2975 22.0093L15.2879 22.0039L15.2817 22.0005L15.2707 21.9947C15.1394 21.9267 14.9875 21.8984 14.8435 21.8711L14.7472 21.8528L14.7376 21.8509C14.7087 21.8455 14.6799 21.8399 14.6511 21.8341C14.5953 21.8219 14.5399 21.8091 14.4847 21.7942C14.4748 21.7913 14.4649 21.7884 14.4551 21.7853L14.4528 21.7846L14.4457 21.7823L14.4317 21.7779L14.4257 21.7759L14.4212 21.7744L14.4148 21.7722L14.4055 21.7691L14.3962 21.7657L14.3898 21.7635L14.3853 21.7619L14.3795 21.7598L14.3662 21.7549L14.3587 21.7521L14.3562 21.7511L14.3537 21.7502L14.3315 21.7415L14.3279 21.7401L14.3232 21.7382L14.3025 21.7297L14.3004 21.7288L14.2974 21.7275L14.2773 21.7189C14.1831 21.6777 14.0928 21.6281 14.0059 21.5713C13.9032 21.5039 13.8066 21.4283 13.7125 21.3495L13.71 21.3475L13.7051 21.3433L13.6838 21.3254L13.6755 21.3183L13.6731 21.3163L13.669 21.3129L13.6387 21.2869L13.6371 21.2856L13.5818 21.2377L13.5654 21.2234L13.5623 21.2208L13.5617 21.2203L13.4919 21.1594L13.4191 21.0966L13.359 21.0466L13.3373 21.0287L13.2992 20.9973L13.1726 20.8934L13.1405 20.8669L13.0683 20.8077L13.0571 20.7983L13.0493 20.7919L13.0101 20.7593L13.0011 20.7517L12.9879 20.7408L12.9694 20.7252L12.952 20.7106L12.9268 20.6893C12.8166 20.5941 12.7081 20.4971 12.6051 20.3941C12.543 20.332 12.4801 20.2697 12.4293 20.1977C12.3427 20.0745 12.2863 19.9317 12.2451 19.7876C12.1906 19.5969 12.1613 19.3991 12.1431 19.2019C12.1369 19.1335 12.1369 19.0648 12.1321 18.9964C12.1293 18.9677 12.126 18.9393 12.1201 18.9111C12.1136 18.8844 12.106 18.8548 12.0856 18.8351C12.0781 18.8289 12.0703 18.8251 12.0611 18.8227C12.0329 18.8175 12.0033 18.8227 11.9755 18.8275C11.9327 18.8347 11.8903 18.8437 11.8474 18.8504C11.8317 18.8521 11.8161 18.8537 11.8007 18.8548L11.7975 18.8551L11.7902 18.8555L11.7859 18.8558L11.7841 18.8559C11.7779 18.8563 11.7716 18.8565 11.7653 18.8567C11.7334 18.8562 11.7019 18.8543 11.6705 18.8479C11.629 18.8393 11.5877 18.8235 11.5481 18.8098C11.4441 18.7737 11.3411 18.7237 11.2731 18.6339C11.2309 18.5779 11.2115 18.5089 11.1823 18.4461L11.1781 18.4378C11.1604 18.4306 11.1423 18.4246 11.1232 18.4221L11.1155 18.4213L11.1135 18.4212L11.1064 18.4211L11.099 18.4214L11.0891 18.4225L11.0793 18.4245L11.0763 18.4253L11.0691 18.4274L11.0667 18.4282L11.0575 18.4317L11.0555 18.4327L11.0485 18.4359L11.0455 18.4375L11.039 18.441L11.0365 18.4423L11.0286 18.4473L11.0159 18.4561L11.0141 18.4574L11.0019 18.4668C10.9894 18.4769 10.9775 18.4877 10.9661 18.4981C10.9161 18.5479 10.8712 18.602 10.823 18.6534C10.7546 18.7227 10.6826 18.7885 10.6162 18.8598C10.6007 18.8773 10.5857 18.8949 10.5713 18.9134C10.5484 18.9453 10.5271 18.9782 10.5063 19.0115L10.4957 19.0285L10.484 19.0473L10.4649 19.0782L10.4551 19.094L10.4493 19.1033L10.4472 19.1066L10.4441 19.1115L10.4328 19.1291L10.4255 19.1405L10.4239 19.1429L10.4229 19.1445L10.4213 19.1467L10.4133 19.1588L10.4009 19.177C10.3826 19.2022 10.3638 19.2267 10.344 19.2507C10.3177 19.2807 10.2914 19.3098 10.2595 19.334C10.2089 19.3725 10.1506 19.4004 10.093 19.4269C10.0651 19.4398 10.0369 19.4523 10.0089 19.465L9.99227 19.4725L9.95073 19.4919L9.94727 19.4935C9.9314 19.5011 9.9156 19.5088 9.89993 19.5169C9.88 19.528 9.86073 19.5395 9.8426 19.5535C9.8376 19.5577 9.83767 19.5575 9.833 19.5621C9.828 19.5852 9.82407 19.6083 9.8202 19.6317L9.81653 19.6563C9.8288 19.6767 9.839 19.6978 9.84893 19.7195C9.8664 19.7617 9.87907 19.8058 9.89707 19.8477C9.90893 19.8623 9.924 19.8741 9.9386 19.8857C9.97467 19.9131 10.0116 19.9391 10.0468 19.9676C10.0693 19.9874 10.0691 19.9873 10.0907 20.0083C10.1134 20.0331 10.1132 20.033 10.1341 20.0594C10.1563 20.0925 10.1764 20.1265 10.1963 20.161C10.2942 20.3377 10.3721 20.5241 10.4597 20.7059C10.4856 20.7569 10.5119 20.8071 10.5405 20.8566C10.5974 20.9509 10.6617 21.0399 10.7399 21.1173L10.7557 21.1325L10.7601 21.1367L10.7757 21.151C10.8971 21.2596 11.0424 21.3395 11.1897 21.4071L11.2467 21.4328L11.2645 21.4407L11.2979 21.4553L11.3813 21.4914L11.4797 21.5335L11.4827 21.5348C11.5129 21.5477 11.5432 21.5608 11.5734 21.574L11.5764 21.5753C11.6149 21.5921 11.6531 21.6092 11.6912 21.6268C11.7343 21.6474 11.7771 21.6686 11.8195 21.6905C11.8849 21.7259 11.9506 21.7615 12.0099 21.8066C12.1353 21.902 12.241 22.0238 12.3366 22.1481C12.3532 22.1697 12.3696 22.1915 12.3857 22.2136L12.3952 22.2266L12.4011 22.235L12.4083 22.2449L12.4168 22.2572L12.4235 22.2667L12.432 22.2791C12.4387 22.289 12.4453 22.2989 12.4518 22.3089L12.4642 22.3282L12.4743 22.3443C12.4803 22.354 12.4861 22.3637 12.4919 22.3735L12.5022 22.3913L12.5141 22.4127L12.5213 22.4263L12.5303 22.4435L12.5376 22.4581C12.5409 22.4648 12.5441 22.4715 12.5473 22.4783C12.588 22.5654 12.6171 22.6575 12.6377 22.7514C12.6401 22.7625 12.6424 22.7735 12.6446 22.7845L12.6497 22.8118L12.6517 22.8225L12.6549 22.8421L12.6575 22.8582L12.6597 22.8725L12.6627 22.8939L12.6675 22.9319L12.6713 22.9657L12.6741 22.9945C12.6843 23.1051 12.6877 23.2162 12.6907 23.327C12.6935 23.4273 12.6998 23.5273 12.7034 23.6275C12.7061 23.7019 12.7028 23.7762 12.7063 23.8505C12.7081 23.8738 12.7095 23.8973 12.7146 23.9201C12.7689 23.9352 12.8326 23.9223 12.8849 23.9077C12.8937 23.9049 12.8934 23.9049 12.902 23.9018L12.9069 23.8999C12.9113 23.8885 12.9163 23.8773 12.9221 23.8665C12.9339 23.848 12.9455 23.8297 12.9623 23.815C12.9661 23.8117 12.9698 23.8087 12.9737 23.8057L12.9831 23.7987L12.9927 23.7921L13.0031 23.7857L13.0138 23.7798L13.0247 23.7745L13.0357 23.7696L13.047 23.7653L13.0584 23.7614L13.0701 23.7581L13.0819 23.7551L13.0973 23.7519L13.1086 23.75L13.1201 23.7484L13.1313 23.7472ZM13.581 24.3739L13.6255 24.5142C13.6207 24.4649 13.6059 24.4173 13.581 24.3739ZM10.2755 8.48367C10.2283 8.4638 10.1767 8.45227 10.1282 8.44433L10.0952 8.43947L10.0844 8.43813L10.0619 8.43553L10.0493 8.43427L10.0283 8.4324L10.0153 8.4314L9.99407 8.43007L9.9816 8.4294L9.95813 8.42853L9.948 8.4282L9.91487 8.42773H9.9064L9.88147 8.42793L9.86773 8.4282L9.84807 8.4288L9.83273 8.42933L9.8148 8.4302L9.79853 8.43107L9.7646 8.43327L9.7512 8.43433C9.72453 8.43647 9.69793 8.439 9.6714 8.44193L9.6406 8.44547C9.61233 8.44887 9.58413 8.4526 9.5562 8.4566L9.52773 8.46113C9.53873 8.37773 9.54853 8.29427 9.55787 8.2106L9.563 8.15807L9.5682 8.103L9.5746 8.0326L9.57873 7.98433L9.581 7.95707L9.587 7.88013C9.5918 7.80487 9.59633 7.72967 9.59907 7.65427C9.60087 7.6036 9.60213 7.55233 9.60247 7.50167C9.6028 7.45233 9.60233 7.40213 9.6008 7.3528C9.59907 7.29793 9.59707 7.2668 9.59293 7.21233C9.585 7.10993 9.5714 7.00107 9.5298 6.9062C9.50793 6.85647 9.47507 6.80847 9.42 6.7948C9.4028 6.79227 9.3878 6.792 9.37053 6.79347L9.35893 6.79587L9.3552 6.79673L9.34753 6.79867L9.34313 6.79993L9.33627 6.80193L9.33173 6.8034L9.32507 6.80567L9.3206 6.80727L9.31393 6.8098L9.30973 6.81147L9.30267 6.8144L9.299 6.816L9.28947 6.8204L9.28847 6.82087L9.27067 6.82993L9.2684 6.8312L9.2532 6.83987L9.24007 6.84793L9.23327 6.8522L9.21567 6.86393L9.21393 6.86513L9.1938 6.87953C9.12633 6.9288 9.06513 6.9858 9.00413 7.04273C8.8712 7.1708 8.74233 7.30293 8.61 7.43167C8.54787 7.49073 8.48527 7.54907 8.42087 7.60573C8.36747 7.65273 8.31227 7.69787 8.2556 7.74087C8.21127 7.77453 8.1658 7.8068 8.11907 7.83707C8.08487 7.8592 8.05007 7.88027 8.0144 7.89993C7.90233 7.96167 7.7814 8.01047 7.65433 8.02987C7.63 8.0336 7.60547 8.03627 7.581 8.03747L7.55647 8.03807C7.52387 8.03813 7.49127 8.03513 7.45907 8.02767C7.4056 8.01527 7.35547 7.99187 7.30993 7.96147C7.20813 7.8936 7.12927 7.795 7.05807 7.69713L7.0272 7.654L7.024 7.64947L7.02227 7.647L7.01587 7.63773C6.94867 7.5418 6.88507 7.4432 6.81767 7.3474C6.7806 7.29667 6.74273 7.24713 6.70313 7.19833C6.60873 7.0874 6.50307 6.98573 6.3744 6.91527C6.34653 6.9 6.31787 6.88627 6.28847 6.8742C6.27333 6.868 6.25753 6.86053 6.241 6.8586C6.2074 6.8546 6.17207 6.86413 6.14087 6.87573C6.0732 6.90093 6.01153 6.9446 5.965 6.99967C5.9288 7.04247 5.9018 7.09287 5.8878 7.14727C5.8794 7.1798 5.87613 7.2134 5.87327 7.2468C5.868 7.30833 5.8666 7.3702 5.86733 7.432C5.8698 7.63353 5.89373 7.83493 5.92727 8.03347C5.95287 8.18467 5.98447 8.33507 6.02307 8.4836L6.0264 8.496L6.0422 8.55453L6.0444 8.56253L6.06107 8.62093L6.0634 8.62893L6.07807 8.67767L6.08267 8.6926L6.10047 8.7486C6.13807 8.8642 6.18053 8.97853 6.23187 9.08873L6.24947 9.12547L6.2554 9.13733L6.2678 9.16193L6.2828 9.19013L6.2854 9.1948L6.3024 9.22487L6.31253 9.24193L6.31647 9.24827C6.32493 9.26213 6.33373 9.27587 6.34287 9.28927L6.35567 9.30773L6.36713 9.32347L6.37867 9.33873L6.39013 9.35327C6.39713 9.362 6.40427 9.37053 6.4116 9.37887L6.4306 9.58267L6.43653 9.6444L6.43973 9.67807L6.44933 9.77347C6.47873 10.0255 6.5138 10.2895 6.63147 10.5182C6.66053 10.5746 6.69607 10.6269 6.73367 10.6779C6.78487 10.7473 6.83787 10.8152 6.8922 10.8822L6.9604 10.9655L6.97427 10.9824L7.00987 11.0253L7.11807 11.1555L7.13247 11.1728L7.16907 11.2169L7.19353 11.2465C7.21613 11.2738 7.2386 11.3013 7.261 11.3287C7.32527 11.4094 7.3882 11.4907 7.45 11.5732C7.49107 11.6297 7.53167 11.6866 7.57047 11.7448C7.60927 11.8029 7.64833 11.8592 7.67 11.9261C7.696 12.0066 7.70473 12.0923 7.70733 12.1764C7.71047 12.2758 7.70433 12.3754 7.69347 12.4742L7.6928 12.4805L7.69273 12.4814L7.69253 12.4829L7.6874 12.5265C7.64707 12.8493 7.566 13.1675 7.46873 13.4775C7.4396 13.5703 7.4086 13.6627 7.37553 13.7542C7.35687 13.8059 7.33207 13.857 7.31927 13.9105C7.3176 13.92 7.3164 13.9292 7.31573 13.9388C7.31627 14.0336 7.3734 14.1097 7.43207 14.1794C7.49653 14.2519 7.56513 14.3205 7.62813 14.3944C7.65013 14.4221 7.6724 14.4505 7.68807 14.4825C7.71393 14.5353 7.72027 14.5945 7.724 14.6525C7.72713 14.7252 7.72613 14.798 7.72933 14.8707L7.73133 14.8942L7.7318 14.8987L7.73427 14.921C7.739 14.9594 7.74673 14.9973 7.76093 15.0337C7.7802 15.0833 7.8108 15.1233 7.8482 15.1563C7.86233 15.1689 7.87747 15.1804 7.89333 15.1911L7.91053 15.2022L7.92827 15.2127L7.9462 15.2225L7.96247 15.2308L7.96693 15.2329L7.98693 15.2423L7.9936 15.2453L8.017 15.2553L8.04173 15.265L8.04813 15.2675L8.06007 15.2719L8.085 15.2809L8.0946 15.2842L8.12653 15.2951C8.16513 15.3079 8.18293 15.3129 8.22213 15.3248C8.36773 15.3665 8.51453 15.4037 8.66007 15.4455C8.67667 15.4505 8.69327 15.4555 8.7098 15.4606L8.75387 15.4743L8.76507 15.4779L8.80053 15.4893L8.81727 15.4949L8.82993 15.4992L8.84693 15.5049L8.85827 15.5089L8.86913 15.5127L8.8802 15.5166L8.8932 15.5212L8.90713 15.5263L8.9208 15.5313L8.9298 15.5347L8.93913 15.5381L8.9556 15.5445L8.972 15.5509L8.9862 15.5565C9.0154 15.5682 9.04447 15.5805 9.07327 15.5935C9.16187 15.6333 9.248 15.6789 9.32947 15.732C9.37553 15.762 9.42007 15.7943 9.46267 15.8291C9.49693 15.8571 9.531 15.8857 9.5584 15.9208C9.65027 16.0384 9.66727 16.1979 9.67047 16.3419C9.6712 16.3761 9.67093 16.4106 9.67027 16.4447C9.6692 16.4988 9.66693 16.5435 9.66473 16.5999C9.6618 16.6753 9.66147 16.6751 9.65973 16.7505C9.65947 16.7974 9.66033 16.8438 9.66287 16.8906C9.67113 16.9883 9.68947 17.0987 9.76933 17.1651C9.79807 17.189 9.83293 17.2005 9.8646 17.2193C9.881 17.2313 9.88073 17.2311 9.89607 17.2444C9.95487 17.3044 9.99053 17.3802 10.0174 17.4591C10.0448 17.5397 10.0638 17.6237 10.0775 17.7077C10.1095 17.9024 10.1241 18.0996 10.1283 18.2971L10.1294 18.3549L10.1296 18.3734V18.389L10.1299 18.4199L10.1298 18.437L10.1299 18.4477L10.1297 18.4628L10.1297 18.4849L10.1293 18.5221L10.1291 18.5344L10.129 18.5499L10.1284 18.5789L10.1281 18.5963L10.1279 18.605L10.1277 18.6149L10.1267 18.6529L10.1263 18.6705L10.1261 18.675C10.1255 18.6982 10.1247 18.7215 10.1239 18.7447L10.1209 18.8074L10.2056 18.866L10.2446 18.8034C10.2577 18.7825 10.2709 18.7618 10.2845 18.7413L10.2997 18.7205L10.3153 18.7003L10.3283 18.6838C10.3345 18.6759 10.3409 18.6681 10.3475 18.6604C10.4271 18.5707 10.5175 18.4919 10.5995 18.4045C10.634 18.3658 10.6681 18.3269 10.7035 18.2892C10.7367 18.2561 10.7702 18.2235 10.8076 18.1951C10.8317 18.1769 10.857 18.1603 10.8834 18.1461L10.8947 18.1401L10.9061 18.1345L10.9179 18.1289L10.9293 18.1239L10.9411 18.1191L10.9525 18.1148L10.9692 18.1091L10.9771 18.1066L10.9878 18.1035L11.0045 18.0992L11.014 18.097L11.024 18.095L11.0406 18.0922L11.0519 18.0906L11.061 18.0897C11.0665 18.0891 11.072 18.0886 11.0775 18.0883C11.0849 18.0878 11.0924 18.0875 11.0998 18.0874L11.1221 18.0877C11.137 18.0882 11.1518 18.0895 11.1666 18.0914C11.2076 18.0968 11.2479 18.1075 11.2865 18.1221C11.3282 18.1377 11.3685 18.1562 11.4018 18.1861C11.4489 18.2282 11.478 18.2871 11.5019 18.3444C11.5143 18.374 11.5241 18.4065 11.5404 18.4344C11.548 18.443 11.5575 18.4493 11.567 18.4555C11.596 18.4723 11.6269 18.4843 11.6585 18.4953C11.6689 18.4988 11.6808 18.5034 11.6933 18.5079L11.7066 18.5125L11.7233 18.5176C11.7299 18.5194 11.7364 18.5209 11.7427 18.5221C11.7552 18.5235 11.7675 18.5233 11.78 18.5225C11.8392 18.5159 11.8973 18.5023 11.9561 18.4931C11.9838 18.4901 12.0104 18.4878 12.0381 18.4872C12.0788 18.4881 12.1187 18.492 12.1579 18.5034C12.184 18.511 12.2094 18.5212 12.2333 18.5341C12.2601 18.5487 12.2852 18.5661 12.3079 18.5864C12.4065 18.6745 12.4425 18.7997 12.4601 18.9261C12.4683 19.0081 12.4689 19.0904 12.4752 19.1725C12.494 19.3591 12.5195 19.5463 12.5745 19.7261C12.6091 19.8391 12.6554 19.9496 12.7299 20.0422C12.7489 20.0636 12.7685 20.0844 12.7885 20.1049L12.8408 20.1583L12.8869 20.203L12.9335 20.247L12.9523 20.2644L12.9807 20.2905L13.0007 20.3085L13.0283 20.3335L13.0487 20.3515L13.0766 20.3761L13.0965 20.3935L13.1254 20.4186L13.1443 20.4348L13.175 20.4611L13.1917 20.4752L13.2203 20.4994L13.2604 20.5329L13.328 20.5891L13.3449 20.6031C13.4413 20.6827 13.5383 20.7617 13.6343 20.8421C13.7405 20.9329 13.8451 21.0254 13.9521 21.1151C14.0343 21.1819 14.1187 21.247 14.2078 21.3043L14.2419 21.3257L14.2765 21.3463L14.3115 21.3659L14.3289 21.3753L14.3467 21.3845L14.3647 21.3935L14.3827 21.4021L14.4009 21.4105L14.4193 21.4186L14.4377 21.4264L14.4564 21.4339L14.4751 21.4411L14.4941 21.4479L14.5255 21.4585L14.5571 21.4684L14.5699 21.4721L14.5889 21.4775L14.6028 21.4813L14.6209 21.486L14.6356 21.4897L14.6526 21.4939L14.6685 21.4977L14.6837 21.5011L14.7019 21.5052L14.7357 21.5124C14.8356 21.533 14.9367 21.5491 15.036 21.5696C15.0807 21.5798 15.1249 21.5902 15.1692 21.602C15.1985 21.6104 15.2276 21.6193 15.2565 21.6291L15.2709 21.6339L15.296 21.6429L15.3209 21.6522L15.3457 21.6621L15.3631 21.6694L15.3833 21.6783L15.3943 21.6834L15.4032 21.6875L15.4183 21.6949L15.423 21.6973L15.4423 21.7072C15.4495 21.711 15.4566 21.7149 15.4636 21.7189L15.4809 21.7289L15.4881 21.7333L15.4997 21.7405L15.5107 21.7475L15.5183 21.7525L15.5328 21.7624L15.5365 21.765L15.5545 21.7781L15.5685 21.7889L15.5807 21.7986C15.5881 21.8046 15.5955 21.8107 15.6027 21.817L15.609 21.8225L15.6169 21.8296L15.6286 21.84L15.6351 21.8459L15.6423 21.8529L15.652 21.862L15.6604 21.8701L15.6667 21.8765L15.6749 21.8846L15.6851 21.895L15.6973 21.9076L15.7093 21.9203L15.7193 21.9311L15.741 21.9549L15.7566 21.9723C15.8085 22.0305 15.8589 22.0907 15.9123 22.1473C15.9333 22.1684 15.9549 22.1887 15.9775 22.2081C16.0153 22.2385 16.0559 22.2675 16.1021 22.2838C16.1463 22.2993 16.1941 22.3035 16.2406 22.3039L16.2729 22.3035L16.2994 22.3025L16.326 22.3008L16.3526 22.2986L16.3793 22.296L16.4059 22.2931L16.4596 22.2868C16.5085 22.281 16.5574 22.2751 16.6063 22.2691L16.6649 22.2615L16.7147 22.2548C16.8562 22.2354 16.9973 22.2117 17.1365 22.1801C17.1527 22.1764 17.169 22.1726 17.1852 22.1687L17.2165 22.1609L17.2412 22.1545L17.2704 22.1467L17.2999 22.1385L17.3293 22.1299L17.3579 22.1211L17.3881 22.1114L17.418 22.1013L17.4313 22.0966L17.4479 22.0907L17.461 22.0859L17.4775 22.0797L17.4905 22.0747L17.5071 22.0681L17.5198 22.063L17.5367 22.0559L17.5489 22.0508L17.5663 22.0431L17.5777 22.0381L17.6064 22.0248L17.6348 22.011C17.7645 21.9435 17.8879 21.8647 18.0174 21.7967C18.0862 21.7619 18.1566 21.7299 18.2294 21.7051L18.2442 21.7001L18.2677 21.6927L18.2914 21.6858L18.3153 21.6795L18.3393 21.6738L18.3643 21.6686C18.3721 21.6671 18.38 21.6656 18.3879 21.6643L18.4079 21.6612L18.4281 21.6585L18.4485 21.6563L18.4607 21.6552L18.469 21.6545L18.4873 21.6534C18.5027 21.6526 18.5182 21.6521 18.5337 21.6521H18.5355L18.5523 21.6523L18.5733 21.6529L18.5858 21.6536L18.5943 21.6541L18.6125 21.6556C18.6284 21.657 18.6442 21.6589 18.6599 21.6612L18.6779 21.6641L18.6985 21.6679L18.7191 21.6723L18.7359 21.6764C18.752 21.6804 18.7679 21.685 18.7835 21.6902C18.8683 21.718 18.9465 21.7619 19.0095 21.8249C19.0427 21.858 19.0709 21.8957 19.0941 21.9363C19.1225 21.986 19.1427 22.0385 19.1579 22.0927L19.1613 22.1049L19.1654 22.1206C19.1673 22.1283 19.1691 22.1359 19.1709 22.1437C19.1732 22.154 19.1754 22.1644 19.1775 22.1748L19.1826 22.2011L19.1845 22.2117L19.1873 22.2283L19.191 22.2517L19.1959 22.2841L19.2033 22.3377L19.2063 22.3603L19.2133 22.4119L19.2173 22.4396L19.2201 22.4582L19.2217 22.4681L19.2272 22.5005C19.2337 22.5317 19.2409 22.5624 19.2495 22.5931L19.2551 22.6097L19.2611 22.626L19.2674 22.6421L19.2741 22.6581L19.2813 22.6739L19.2888 22.6894L19.2967 22.7047L19.305 22.7199L19.3137 22.7347L19.3228 22.7494L19.3323 22.7638L19.3422 22.7779L19.3525 22.7917L19.3633 22.8053L19.3745 22.8186L19.3866 22.8321C19.4189 22.8671 19.4554 22.8971 19.4928 22.9265C19.5777 22.9893 19.6661 23.0471 19.7513 23.1095L19.7753 23.1289L19.7989 23.1487L19.8107 23.1589C19.8283 23.1741 19.8457 23.1896 19.8633 23.2049L19.8703 23.211L19.8937 23.2309L19.9168 23.25L19.9403 23.2683C19.9577 23.2804 19.9751 23.2921 19.995 23.2999C20.0177 23.3077 20.0425 23.3103 20.0661 23.3133L20.0837 23.3154L20.1012 23.3171L20.1187 23.3185L20.1361 23.3195L20.1532 23.3201L20.1685 23.3205L20.2006 23.3206L20.2127 23.3204C20.3876 23.3167 20.5603 23.2799 20.7334 23.2583C20.7873 23.2529 20.7871 23.2529 20.8413 23.2489C20.8601 23.248 20.8789 23.2472 20.8977 23.2466L20.9083 23.2462C20.9265 23.2456 20.9446 23.2451 20.9627 23.2449L20.9925 23.2444L21.0295 23.2443C21.0485 23.2443 21.0676 23.2444 21.0866 23.2447L21.0961 23.2449C21.1147 23.2453 21.1333 23.2457 21.1519 23.2463L21.1595 23.2466C21.1989 23.248 21.2382 23.25 21.2775 23.2527L21.282 23.2529C21.3023 23.2543 21.3225 23.2559 21.3427 23.2576C21.3767 23.2605 21.4109 23.2638 21.4449 23.2677C21.5653 23.2812 21.6885 23.2961 21.8022 23.3403L21.83 23.3516L21.8573 23.3639L21.8681 23.3691L21.8755 23.3727L21.8841 23.3769L21.9009 23.3856L21.9105 23.3907L21.9258 23.3991L21.9367 23.4052L21.9505 23.4131L21.9625 23.4202L21.9749 23.4277L21.988 23.4357L21.9991 23.4426L22.0231 23.4578L22.0488 23.4745L22.0635 23.484L22.1137 23.5172L22.1649 23.5506L22.1892 23.5661L22.214 23.5815L22.2381 23.595L22.2634 23.6085C22.2781 23.6161 22.2931 23.6234 22.3084 23.6301C22.3427 23.6439 22.3784 23.6501 22.4149 23.6554C22.4893 23.6637 22.5641 23.6675 22.6385 23.6765C22.6809 23.6831 22.7225 23.6913 22.7631 23.7034L22.7783 23.708L22.7861 23.7105L22.8009 23.7157L22.8027 23.7164C22.8096 23.7189 22.8165 23.7216 22.8234 23.7245C22.8939 23.7535 22.959 23.7941 23.0281 23.8263C23.0433 23.8327 23.0583 23.8385 23.0739 23.8433C23.0829 23.8455 23.0917 23.8477 23.1009 23.8486C23.1204 23.8497 23.1401 23.85 23.1597 23.8499L23.2185 23.849C23.2855 23.8461 23.3523 23.8411 23.4191 23.8349C23.3976 23.5265 23.4204 23.2151 23.4803 22.9119C23.4828 22.8994 23.4853 22.887 23.4879 22.8745L23.4951 22.8414L23.5029 22.8063L23.5067 22.7904C23.5192 22.7372 23.533 22.6844 23.5483 22.6319C23.5725 22.5489 23.5993 22.4671 23.6382 22.3896C23.7223 22.2221 23.8471 22.0795 23.9725 21.942C24.0133 21.8971 24.0546 21.8526 24.0951 21.8075C24.1128 21.7878 24.1293 21.767 24.1487 21.749C24.1581 21.7414 24.1675 21.7352 24.1781 21.7296C24.2387 21.7023 24.3062 21.7124 24.3693 21.7252L24.3738 21.7261C24.4463 21.7428 24.5172 21.7657 24.5898 21.7819C24.6143 21.7866 24.6419 21.7921 24.6687 21.7919L24.6777 21.7916C24.6953 21.7905 24.7125 21.7865 24.7278 21.7775C24.7523 21.7632 24.7728 21.74 24.7888 21.7168C24.8257 21.6631 24.8455 21.5941 24.8399 21.529C24.8373 21.5003 24.8293 21.4705 24.8111 21.4476C24.8001 21.4337 24.7866 21.4259 24.7715 21.417C24.7313 21.3967 24.6898 21.3807 24.6479 21.3641C24.6193 21.3527 24.5909 21.3409 24.5627 21.3284C24.5355 21.3153 24.5096 21.3015 24.4838 21.2857C24.458 21.268 24.4333 21.2485 24.4153 21.2225C24.3871 21.1818 24.3785 21.1309 24.3714 21.0829C24.3614 20.9998 24.3588 20.9161 24.3527 20.8326L24.3511 20.8115L24.3488 20.7853L24.3451 20.7493C24.3338 20.6658 24.3167 20.5831 24.2805 20.5065L24.2735 20.4922L24.2711 20.4876L24.266 20.4781L24.263 20.4728L24.2581 20.4643L24.2549 20.4589L24.2497 20.4505L24.2465 20.4454L24.2408 20.4367L24.2377 20.4322L24.2303 20.4216L24.2287 20.4193L24.2194 20.4067L24.2165 20.4029L24.2097 20.3944L24.2059 20.3897L24.1997 20.3822L24.1955 20.3773L24.1894 20.3702L24.1851 20.3653L24.1813 20.3611L24.1634 20.3421L24.1625 20.3413L24.1439 20.3229L24.1418 20.3209L24.1226 20.3031L24.1197 20.3005L24.108 20.2903L24.0939 20.2783L24.083 20.2694L24.0693 20.2584L24.0577 20.2493L24.0443 20.2392L24.032 20.2301L24.0197 20.2211C23.9995 20.2065 23.9789 20.1923 23.9581 20.1786L23.9525 20.1748C23.9337 20.1624 23.915 20.1503 23.8964 20.1385C23.7881 20.0717 23.6784 20.0072 23.5717 19.9379C23.5153 19.9 23.4599 19.8604 23.4071 19.8179L23.4047 19.8161L23.3998 19.8121L23.3887 19.8031L23.3817 19.7972L23.3773 19.7936L23.3735 19.7903L23.3669 19.7849L23.3557 19.7751L23.3505 19.7706L23.3485 19.7688C23.3403 19.7617 23.3322 19.7543 23.3242 19.7471L23.3235 19.7463L23.3037 19.7278L23.3007 19.7249L23.2984 19.7227L23.2935 19.7178L23.2834 19.7079L23.2774 19.7018L23.2733 19.6977L23.2694 19.6937L23.2635 19.6877L23.2537 19.6773L23.2487 19.672L23.2467 19.6698C23.2393 19.6619 23.2321 19.6538 23.2249 19.6456C23.1532 19.5634 23.091 19.4723 23.0435 19.374C23.039 19.3647 23.0347 19.3553 23.0305 19.3459L23.0297 19.3443L23.0293 19.3435C23.0254 19.3345 23.0215 19.3255 23.0179 19.3164L23.0169 19.3143L23.0163 19.3129C23.0127 19.3039 23.0092 19.2949 23.0059 19.2859L23.0051 19.2841L23.0045 19.2823L23.0025 19.2769L22.9985 19.2655L22.9943 19.2536L22.9929 19.2492L22.9911 19.244L22.9875 19.2323L22.9844 19.223L22.983 19.2181L22.9807 19.2109L22.9774 19.1987L22.9755 19.1921L22.9743 19.1875L22.9715 19.1776L22.9683 19.1647L22.9674 19.1611L22.9666 19.1579L22.9632 19.1441L22.9601 19.1299L22.9559 19.1103C22.9013 18.8397 22.9367 18.5523 22.9811 18.2815C22.9927 18.2109 22.9982 18.1821 23.0127 18.1007C23.017 18.0803 23.0219 18.0603 23.0278 18.0403C23.0671 17.923 23.1381 17.8233 23.2193 17.7309C23.3071 17.6311 23.4047 17.5403 23.4955 17.4433C23.5231 17.4127 23.5229 17.413 23.5495 17.3819C23.6273 17.2844 23.7039 17.1663 23.6684 17.0359C23.6604 17.0064 23.6489 16.9782 23.6335 16.9519C23.6145 16.9195 23.5901 16.8904 23.5625 16.865C23.5212 16.8272 23.4729 16.7975 23.4225 16.7736C23.4144 16.7697 23.4063 16.766 23.3981 16.7625L23.3785 16.7543L23.3595 16.7467L23.3547 16.7449L23.3376 16.7387L23.3307 16.7363L23.3147 16.7308L23.3064 16.7281L23.2911 16.7234L23.2819 16.7207L23.2671 16.7164L23.2571 16.7137L23.2428 16.7099L23.2188 16.7039L23.1945 16.6984L23.1833 16.6961L23.1692 16.6932L23.158 16.6911L23.1439 16.6884L23.1327 16.6864L23.1183 16.684L23.1074 16.6822L23.0927 16.6799L23.0821 16.6783L23.0667 16.6761L23.0569 16.6748L23.0066 16.6687L22.9738 16.6653L22.9629 16.6643L22.9409 16.6623L22.908 16.6597L22.8942 16.6588L22.875 16.6576L22.8609 16.6568L22.8419 16.6559L22.8276 16.6553L22.8088 16.6546L22.7944 16.6541L22.7756 16.6537L22.7613 16.6533L22.7422 16.6531L22.7281 16.653H22.6961L22.6776 16.6532L22.664 16.6533L22.6317 16.6541L22.6099 16.6547L22.5997 16.6551L22.5765 16.656L22.5684 16.6563L22.543 16.6576L22.538 16.6579L22.5095 16.6595L22.4878 16.6609C22.4763 16.6617 22.4648 16.6626 22.4533 16.6635L22.4409 16.6646C22.4005 16.3936 22.3689 16.1212 22.3455 15.8482C22.3214 15.5685 22.3055 15.2878 22.3057 15.0071C22.3058 14.9641 22.3063 14.9212 22.3073 14.8783L22.3083 14.8341L22.3104 14.7765L22.3111 14.7593L22.3122 14.7352L22.313 14.7189L22.3137 14.7059L22.3147 14.6879L22.3162 14.6613L22.3175 14.6407L22.3205 14.5993C22.3217 14.5816 22.3231 14.564 22.3246 14.5463C22.3283 14.5035 22.3331 14.4607 22.3386 14.418C22.3417 14.3945 22.3454 14.3723 22.3463 14.3489C22.3459 14.3353 22.3445 14.3227 22.3421 14.3093C22.3134 14.1955 22.2035 14.1239 22.1108 14.0647C22.0913 14.0521 22.0716 14.0399 22.0519 14.0275C22.0129 14.0028 21.9741 13.9783 21.9359 13.9524C21.9088 13.9331 21.909 13.9333 21.8827 13.9133C21.8769 13.9085 21.8711 13.9037 21.8654 13.8987L21.8634 13.897L21.8601 13.894L21.8521 13.8871L21.8479 13.8832L21.8445 13.8801L21.8388 13.8747L21.8373 13.8734L21.8367 13.8729C21.8324 13.8687 21.8281 13.8645 21.8239 13.8601L21.823 13.8592L21.8219 13.858C21.8163 13.8521 21.8108 13.8461 21.8055 13.8398L21.8029 13.8367L21.8023 13.836L21.8008 13.8342L21.7981 13.8307L21.7967 13.8288L21.7956 13.8274L21.7931 13.8242L21.7913 13.8216L21.7907 13.8208L21.7894 13.819C21.776 13.8002 21.765 13.7799 21.7575 13.7574C21.7396 13.7037 21.7493 13.6467 21.764 13.5933C21.7997 13.4634 21.8761 13.3458 21.9536 13.2377C21.9878 13.19 22.0235 13.1435 22.0599 13.0975C22.0985 13.0484 22.1348 13.0041 22.1751 12.9547C22.2403 12.8745 22.3057 12.7944 22.3694 12.7129C22.4061 12.6648 22.4419 12.6163 22.4768 12.5669C22.5573 12.4473 22.6357 12.3209 22.6727 12.18C22.7116 12.0311 22.7312 11.8779 22.737 11.7242L22.7385 11.6735L22.7387 11.657L22.739 11.6227L22.7389 11.6031L22.7387 11.5717L22.7383 11.5512L22.7374 11.5202L22.7367 11.4998L22.7352 11.468L22.7342 11.4487L22.7319 11.4131L22.7308 11.3978L22.7267 11.3477L22.7253 11.3338L22.7215 11.2973L22.7191 11.2766L22.7155 11.2469L22.7125 11.2243L22.7087 11.1967L22.7051 11.173L22.701 11.1469L22.697 11.1223L22.6925 11.0974L22.6879 11.0721L22.6836 11.0497C22.6789 11.0254 22.6738 11.0013 22.6685 10.9772C22.6603 10.9404 22.6513 10.9037 22.6417 10.8673C22.6032 10.7213 22.5551 10.5751 22.4693 10.4495C22.3669 10.2994 22.2231 10.1824 22.0673 10.0913C22.0217 10.0645 21.9747 10.04 21.927 10.0172C21.9007 10.0047 21.8745 9.99207 21.8469 9.9828C21.8065 9.9692 21.7646 9.96147 21.7225 9.95487C21.6156 9.941 21.5079 9.93553 21.4007 9.9236C21.3273 9.91307 21.2341 9.90353 21.1819 9.8436C21.1541 9.8116 21.1387 9.77133 21.1249 9.73187C21.1048 9.6664 21.0886 9.59993 21.0681 9.5346C21.0518 9.48907 21.0327 9.44213 20.9967 9.40847L20.9892 9.402L20.9867 9.4L20.9814 9.39613L20.9783 9.394L20.9733 9.3908L20.9699 9.3888L20.9649 9.38607L20.9613 9.3842L20.9562 9.3818L20.9526 9.38013L20.9471 9.37793L20.9437 9.37653L20.9376 9.3744L20.9346 9.37333L20.9255 9.3706L20.9231 9.36993L20.9163 9.36813L20.902 9.365L20.8904 9.36287L20.8826 9.36147L20.8709 9.35973L20.8629 9.3586L20.8446 9.3562C20.7703 9.34667 20.6952 9.3438 20.6204 9.3424C20.3817 9.3378 20.1427 9.3494 19.9044 9.36587L19.7913 9.374L19.6663 9.38353L19.6206 9.3874C19.6067 9.36413 19.592 9.34153 19.577 9.31893C19.5482 9.2778 19.5183 9.23807 19.4873 9.1986C19.3715 9.05793 19.2397 8.93113 19.0893 8.82773C19.0249 8.7834 18.9571 8.7404 18.8852 8.70907L18.8682 8.702L18.8629 8.69987L18.8509 8.6952L18.8451 8.69307L18.8325 8.6886L18.8279 8.687L18.8111 8.6814L18.8075 8.68027C18.7494 8.662 18.6894 8.64973 18.6295 8.64067C18.5065 8.622 18.3816 8.61687 18.2573 8.6174C18.0712 8.61813 17.8854 8.6322 17.7003 8.6518L17.6761 8.6544L17.6009 8.6628L17.5005 8.67473C17.4073 8.68613 17.3143 8.6988 17.2209 8.7092C17.1824 8.71347 17.1442 8.71647 17.106 8.72207C17.0815 8.7266 17.0575 8.73207 17.0333 8.73847C16.8702 8.78787 16.7298 8.88433 16.5983 8.9906C16.462 9.10067 16.3341 9.22067 16.1999 9.33327C16.1551 9.36973 16.1553 9.3696 16.1097 9.40513C15.992 9.4928 15.871 9.57027 15.7311 9.61687L15.7062 9.62427L15.6819 9.6306L15.6817 9.63647C15.6781 9.732 15.6684 9.83053 15.6475 9.92607C15.6428 9.96667 15.638 10.0073 15.6331 10.0479C15.6249 10.1077 15.617 10.1675 15.6064 10.2271C15.5993 10.267 15.5913 10.3067 15.5816 10.3461C15.5729 10.3814 15.5629 10.4163 15.5507 10.4505C15.5334 10.4985 15.511 10.5467 15.4803 10.5879L15.4751 10.5949L15.4709 10.6001L15.47 10.6013L15.4687 10.6028L15.4637 10.6089L15.4604 10.6125L15.459 10.6141L15.4564 10.6168L15.4515 10.6221L15.449 10.6246L15.4474 10.6263L15.4435 10.6299L15.4387 10.6347L15.4357 10.6373L15.4346 10.6383C15.4308 10.6417 15.4269 10.6449 15.4229 10.6481L15.4222 10.6487L15.4213 10.6493C15.4174 10.6524 15.4133 10.6554 15.4091 10.6583L15.4029 10.6624L15.4022 10.6629L15.4015 10.6634L15.3978 10.6657L15.3952 10.6673L15.3942 10.6679L15.3896 10.6705L15.3872 10.6719L15.379 10.6762C15.3585 10.6866 15.3366 10.6942 15.3141 10.6992C15.2992 10.7026 15.2848 10.7049 15.2708 10.7055L15.2625 10.7056C15.2347 10.7054 15.2087 10.6979 15.1836 10.6783C15.1561 10.6568 15.1344 10.6275 15.116 10.5981C15.1074 10.5845 15.0992 10.5707 15.0911 10.5569C15.0243 10.5837 14.9553 10.6047 14.8852 10.621C14.718 10.6599 14.5466 10.6712 14.3755 10.6757C14.2548 10.6775 14.1343 10.6759 14.0136 10.6749C13.9101 10.6739 13.8065 10.6764 13.7029 10.6734C13.6205 10.6697 13.5387 10.6619 13.4566 10.6523C13.3963 10.6441 13.3361 10.6349 13.2759 10.6253C13.2673 10.626 13.2587 10.6267 13.25 10.6273C13.2225 10.6292 13.1949 10.6307 13.1673 10.6313L13.1398 10.6317C13.0297 10.6319 12.9206 10.6179 12.8188 10.5711C12.8039 10.5643 12.7894 10.557 12.7751 10.5493C12.7394 10.5454 12.7037 10.5425 12.6678 10.5413C12.5843 10.5385 12.5006 10.5449 12.4171 10.5453C12.3803 10.5446 12.3443 10.5427 12.3077 10.5393C12.2628 10.5332 12.2182 10.5242 12.1769 10.5048C12.1401 10.4875 12.1073 10.4621 12.0768 10.4355C12.0336 10.3978 11.994 10.3557 11.9565 10.3124C11.8729 10.2159 11.7944 10.1153 11.7095 10.0199C11.6844 9.99267 11.6589 9.96613 11.6325 9.94013C11.551 9.8646 11.4605 9.79407 11.3463 9.78473L11.3318 9.78433L11.2567 9.76167C11.2377 9.7634 11.2187 9.765 11.1997 9.76647L11.1917 9.76713L11.159 9.7694C11.137 9.77033 11.115 9.77113 11.093 9.77133H11.071C11.0417 9.77107 11.0123 9.7696 10.9831 9.766C10.9361 9.7602 10.8892 9.74927 10.8461 9.72913C10.7831 9.6996 10.7371 9.65153 10.7023 9.59467L10.4809 9.528C10.4422 9.437 10.3968 9.349 10.3579 9.25813C10.3431 9.2216 10.329 9.18493 10.318 9.14707C10.2964 9.07253 10.284 8.99447 10.2727 8.9178C10.2517 8.77687 10.2399 8.62427 10.2755 8.48367ZM11.7782 22.0508L12.3603 23.4227C12.3592 23.3939 12.3583 23.3651 12.3575 23.3363C12.3555 23.2649 12.3529 23.1937 12.3494 23.1223C12.3455 23.0651 12.3409 23.0084 12.3341 22.9515C12.3196 22.8473 12.2985 22.7439 12.2573 22.6467C12.2059 22.525 12.124 22.4148 12.0418 22.3125C11.9665 22.2186 11.8837 22.1211 11.7826 22.0537L11.7782 22.0508ZM11.3906 12.0761C12.2063 12.4289 12.8623 13.0581 13.0329 14.2389C13.186 14.2473 13.3192 14.3002 13.4437 14.3969C13.3668 14.5557 13.3048 14.7213 13.2586 14.8918H12.7421C12.6306 15.3808 12.6306 15.8887 12.7421 16.3777H13.2586C13.3221 16.612 13.4154 16.8372 13.5362 17.0478L13.171 17.413C13.4379 17.8377 13.7971 18.1968 14.2217 18.4637L14.5869 18.0985C14.7975 18.2193 15.0227 18.3126 15.2571 18.3761V18.8926C15.7461 19.0041 16.2539 19.0041 16.7429 18.8926V18.3761C16.9773 18.3126 17.2025 18.2193 17.4131 18.0985L18.2351 18.9205C17.5981 19.3549 16.8285 19.609 16 19.609C13.8065 19.609 12.0257 17.8282 12.0257 15.6347C12.0257 15.3311 12.0529 15.0149 12.0674 14.6819C12.0801 14.3907 11.984 13.8993 11.7186 13.6338C11.2533 13.1681 10.7816 12.8593 10.7816 12.8593L11.3906 12.0761ZM20.6094 19.1934C19.7937 18.8405 19.1377 18.2114 18.9671 17.0305C18.814 17.0221 18.6808 16.9693 18.5563 16.8725C18.6332 16.7138 18.6952 16.5482 18.7414 16.3777H19.2579C19.3694 15.8887 19.3694 15.3808 19.2579 14.8918H18.7414C18.6779 14.6575 18.5846 14.4323 18.4638 14.2217L18.829 13.8565C18.5621 13.4318 18.2029 13.0727 17.7783 12.8057L17.4131 13.1709C17.2025 13.0501 16.9773 12.9569 16.7429 12.8933V12.3769C16.2539 12.2653 15.7461 12.2653 15.2571 12.3769V12.8933C15.0227 12.9569 14.7975 13.0501 14.5869 13.1709L13.7649 12.3489C14.4019 11.9145 15.1715 11.6605 16 11.6605C18.1935 11.6605 19.9743 13.4413 19.9743 15.6347C19.9743 15.9384 19.9471 16.2545 19.9326 16.5876C19.9199 16.8788 20.016 17.3701 20.2814 17.6357C20.7467 18.1014 21.2184 18.4102 21.2184 18.4102L20.6094 19.1934ZM23.7623 17.6468C23.6765 17.7427 23.5807 17.8313 23.495 17.9229C23.471 17.9496 23.4477 17.9765 23.4251 18.0045C23.3934 18.0466 23.3628 18.0895 23.3459 18.1399C23.3329 18.1847 23.3269 18.2369 23.3195 18.2795C23.3123 18.3205 23.3079 18.3493 23.3013 18.3903C23.294 18.4386 23.2867 18.4879 23.2805 18.5377L23.7623 17.6468ZM16.5415 12.9126C16.184 12.8415 15.816 12.8415 15.4585 12.9126L15.4718 13.3355C15.2154 13.3944 14.9707 13.4958 14.7477 13.6354L14.4581 13.327C14.155 13.5295 13.8948 13.7897 13.6923 14.0928L14.0007 14.3824C13.8611 14.6053 13.7597 14.8501 13.7007 15.1065L13.2779 15.0933C13.2068 15.4507 13.2068 15.8187 13.2779 16.1762L13.7007 16.1629C13.7597 16.4193 13.8611 16.6641 14.0007 16.8871L13.6923 17.1767C13.8948 17.4797 14.155 17.7399 14.4581 17.9425L14.7477 17.634C14.9707 17.7737 15.2154 17.8751 15.4718 17.934L15.4585 18.3569C15.816 18.4279 16.184 18.4279 16.5415 18.3569L16.5282 17.934C16.7846 17.8751 17.0293 17.7737 17.2523 17.634L17.5419 17.9425C17.845 17.7399 18.1052 17.4797 18.3077 17.1767L17.9993 16.8871C18.1389 16.6641 18.2403 16.4193 18.2993 16.1629L18.7221 16.1762C18.7932 15.8187 18.7932 15.4507 18.7221 15.0933L18.2993 15.1065C18.2403 14.8501 18.1389 14.6053 17.9993 14.3824L18.3077 14.0928C18.1052 13.7897 17.845 13.5295 17.5419 13.327L17.2523 13.6354C17.0293 13.4958 16.7846 13.3944 16.5282 13.3355L16.5415 12.9126ZM15.8797 14.1221V13.8714H16.1203V14.1213C16.3973 14.0693 16.5221 13.8557 16.5185 13.8734C16.4731 14.0879 16.3675 14.3202 16.1203 14.3781V14.8929C16.6149 14.8367 16.837 14.4615 16.831 14.4909C16.7539 14.8495 16.5686 15.2395 16.1203 15.3007V15.7687C16.7284 15.7147 17.0011 15.2832 16.9939 15.3166C16.9003 15.7237 16.6736 16.1669 16.1203 16.2255V16.7911C16.8975 16.7347 17.2458 16.1667 17.2366 16.2099C17.1122 16.7677 16.7983 17.3784 16 17.3814C15.1999 17.3839 14.8864 16.7688 14.7677 16.2075C14.7601 16.167 15.103 16.7388 15.8797 16.7917V16.2266C15.3225 16.1728 15.0955 15.7253 15.0061 15.3147C15.0001 15.2834 15.2697 15.7195 15.8797 15.7695V15.3019C15.4281 15.2447 15.2427 14.8509 15.169 14.4891C15.164 14.4616 15.3835 14.8409 15.8797 14.8937V14.3793C15.6306 14.3235 15.5249 14.0889 15.4815 13.8723C15.4785 13.8557 15.6019 14.0717 15.8797 14.1221ZM9.24527 16.0816L9.33473 16.2925C9.333 16.2642 9.33 16.236 9.32473 16.2081C9.3196 16.1809 9.3128 16.1521 9.29747 16.1286C9.28393 16.1102 9.26393 16.0957 9.24527 16.0816ZM12.3376 10.2068C12.3477 10.2083 12.3577 10.2092 12.3681 10.2102C12.4572 10.2149 12.5464 10.2083 12.6356 10.2074C12.6795 10.2081 12.6791 10.2081 12.7228 10.2103C12.9623 10.2316 13.1973 10.2771 13.4348 10.3129C13.4979 10.3215 13.5609 10.3289 13.6243 10.3349C13.675 10.3386 13.7255 10.3409 13.7763 10.3415C13.9737 10.3406 14.1711 10.3455 14.3685 10.3424C14.503 10.3389 14.6377 10.3315 14.7699 10.3049C14.8519 10.2885 14.9327 10.2647 15.0087 10.2296C15.0883 10.1929 15.1729 10.1435 15.228 10.0737C15.2705 10.0199 15.2963 9.95447 15.3136 9.8886C15.3409 9.7844 15.3488 9.67533 15.35 9.568C15.3507 9.50933 15.349 9.45067 15.3459 9.39207C15.3428 9.3304 15.3377 9.26887 15.3323 9.20733C15.3144 9.02107 15.2907 8.8354 15.2745 8.649C15.264 8.50253 15.2624 8.35573 15.2543 8.20913C15.2509 8.15993 15.2465 8.11113 15.241 8.06213C15.2313 7.9932 15.2199 7.92467 15.1974 7.8586C15.1902 7.83747 15.1835 7.8094 15.1685 7.79213C15.1577 7.7812 15.145 7.77267 15.1322 7.7642C15.1171 7.755 15.1018 7.7464 15.0862 7.73807C15.0084 7.69933 14.9289 7.66413 14.8516 7.6244C14.753 7.57113 14.6593 7.51007 14.5817 7.42813C14.5109 7.3534 14.4589 7.26387 14.4093 7.17427C14.3529 7.07233 14.3048 6.96593 14.2682 6.8552C14.2349 6.7544 14.2121 6.65127 14.1922 6.5472L14.1896 6.52493C14.1779 6.526 14.1662 6.52707 14.1545 6.52813L14.1321 6.5302L14.1261 6.53073L14.1105 6.5322L14.1044 6.53267L14.0915 6.53373L14.0852 6.53427L14.0587 6.53613C13.9897 6.53847 13.9205 6.53727 13.8514 6.53773C13.6999 6.5388 13.6575 6.53993 13.506 6.54253L13.4493 6.54393L13.4405 6.5442L13.4344 6.54433L13.3358 6.5472L13.3044 6.5482L13.2912 6.5486L13.2859 6.5488C13.2641 6.54947 13.2423 6.5502 13.2205 6.55093L13.2196 6.551L13.214 6.5512L13.1657 6.55287L13.1544 6.55333L13.1481 6.55353L13.0863 6.55587L13.0765 6.5562L13.0682 6.55653L13.0523 6.55713L13.0049 6.559L13.0033 6.55907C12.98 6.56 12.9567 6.56093 12.9334 6.56193C12.8219 6.56647 12.7103 6.57133 12.5987 6.57613C12.3956 6.58167 12.1925 6.57373 11.9894 6.57867C11.9077 6.58153 11.8249 6.5854 11.7431 6.5952C11.7259 6.5972 11.7089 6.59953 11.6918 6.60213L11.6906 6.60227L11.6895 6.60247L11.6825 6.6036L11.6775 6.60433L11.6768 6.60447L11.6754 6.60473L11.6697 6.60567L11.6645 6.60653L11.6631 6.6068L11.6613 6.60713L11.6565 6.608L11.6515 6.60887L11.6495 6.60927L11.6472 6.60967L11.643 6.61047L11.6385 6.61133L11.6359 6.61187L11.6331 6.6124L11.6256 6.61393L11.6223 6.61467L11.6191 6.61527L11.6161 6.61593L11.6127 6.61667L11.6087 6.6176L11.6051 6.61833L11.6026 6.61893L11.5997 6.6196L11.5951 6.62067L11.5912 6.6216L11.5892 6.62207L11.5869 6.6226L11.5815 6.624L11.5773 6.625L11.5758 6.6254L11.5741 6.6258L11.5677 6.62747L11.5625 6.62887L11.5613 6.6292L11.5536 6.63133L11.5497 6.6324C11.5453 6.63367 11.5403 6.63507 11.5359 6.6364C11.492 6.64953 11.4484 6.66593 11.4091 6.68973C11.3961 6.6976 11.3783 6.70647 11.3697 6.7198C11.3627 6.73207 11.3603 6.74687 11.3579 6.76067C11.3498 6.8168 11.3533 6.8738 11.3568 6.9302L11.3579 6.94313C11.3612 6.98513 11.3651 7.02713 11.3688 7.06913C11.3732 7.1182 11.3775 7.1672 11.3807 7.2164C11.3813 7.23033 11.3819 7.24433 11.3822 7.25833C11.3867 7.41673 11.3743 7.57533 11.3112 7.72287C11.2818 7.79167 11.2434 7.85673 11.1996 7.91733C11.1496 7.98647 11.0915 8.04833 11.0304 8.1076L11.0218 8.11553L11.0189 8.1182L11.0133 8.12327L10.9981 8.13707L10.9961 8.1388L10.9781 8.1548L10.9605 8.17013L10.9512 8.1782L10.9431 8.18513L10.932 8.19473L10.8941 8.22693C10.8416 8.2714 10.7891 8.31567 10.7387 8.3626C10.6888 8.4112 10.6378 8.46453 10.6103 8.5298C10.5768 8.60973 10.5844 8.70953 10.5928 8.79273C10.5979 8.8442 10.606 8.8954 10.6153 8.94627C10.623 8.98833 10.6302 9.0308 10.6435 9.07147C10.6608 9.12407 10.6849 9.17413 10.7083 9.2242L10.7217 9.2524L11.3854 9.45233L11.3645 9.45173C11.3965 9.4544 11.3963 9.45433 11.4281 9.45867C11.4587 9.4644 11.4585 9.46433 11.4886 9.4716C11.5351 9.48513 11.5797 9.50147 11.623 9.52327C11.7659 9.59553 11.8794 9.7062 11.984 9.82607L12.0005 9.84507L12.0167 9.86413L12.0327 9.88307L12.0481 9.90147L12.0613 9.9174C12.0788 9.9386 12.0962 9.95987 12.1137 9.98107L12.1417 10.015L12.1663 10.0446L12.1815 10.0625L12.1979 10.0817L12.2132 10.0993L12.2275 10.1154C12.2495 10.1392 12.2717 10.1623 12.2957 10.184C12.3028 10.1899 12.3128 10.2012 12.3223 10.2039C12.3274 10.2051 12.3325 10.206 12.3376 10.2068ZM15.2255 0.0185333C15.4821 0.0062 15.7403 0 16 0C16.2726 0 16.5441 0.00686667 16.8135 0.0204L15.2255 0.0185333Z" fill="#2F4A98"/>
</svg>
