<svg width="16" height="16" viewBox="0 0 16 16" fill="none" xmlns="http://www.w3.org/2000/svg">
<path fill-rule="evenodd" clip-rule="evenodd" d="M8 1C6.23671 1 4.72155 2.05308 4.04504 3.56041C4.0329 3.58747 4.01821 3.61159 4.00293 3.63135C3.98976 3.64838 3.978 3.65983 3.96958 3.66682C2.32674 3.68314 1 5.01996 1 6.66667C1 7.97536 1.83797 9.08833 3.00662 9.49829L4.83824 7.66667H4C3.44772 7.66667 3 7.21895 3 6.66667C3 6.11438 3.44772 5.66667 4 5.66667C4.93739 5.66667 5.58772 5.00762 5.8697 4.37933C6.23547 3.56435 7.05291 3 8 3C8.94709 3 9.76453 3.56435 10.1303 4.37933C10.4123 5.00763 11.0626 5.66667 12 5.66667C12.5523 5.66667 13 6.11438 13 6.66667C13 7.21895 12.5523 7.66667 12 7.66667H11.1618L12.9934 9.49829C14.162 9.08833 15 7.97536 15 6.66667C15 5.01997 13.6733 3.68314 12.0304 3.66682C12.022 3.65983 12.0102 3.64838 11.9971 3.63135C11.9818 3.61159 11.9671 3.58747 11.955 3.56041C11.2785 2.05308 9.76329 1 8 1Z" fill="#33363F"/>
<path d="M7.9987 8L7.29159 7.29289L7.9987 6.58579L8.7058 7.29289L7.9987 8ZM8.9987 14C8.9987 14.5523 8.55098 15 7.9987 15C7.44641 15 6.9987 14.5523 6.9987 14L8.9987 14ZM4.62492 9.95956L7.29159 7.29289L8.7058 8.70711L6.03914 11.3738L4.62492 9.95956ZM8.7058 7.29289L11.3725 9.95956L9.95826 11.3738L7.29159 8.70711L8.7058 7.29289ZM8.9987 8L8.9987 14L6.9987 14L6.9987 8L8.9987 8Z" fill="#33363F"/>
</svg>
