<svg width="16" height="12" viewBox="0 0 16 12" fill="none" xmlns="http://www.w3.org/2000/svg">
<path d="M13.8534 2.99683C13.8598 3.12643 13.8622 3.25763 13.8622 3.38723C13.8622 7.37923 10.8246 11.9808 5.27023 11.9808C3.56382 11.9808 1.97742 11.4808 0.640625 10.6232C1.43133 10.7189 2.23312 10.6577 3.00018 10.4433C3.76723 10.2289 4.48452 9.8654 5.11102 9.37363C4.48096 9.36172 3.87036 9.15322 3.36461 8.77727C2.85885 8.40133 2.48322 7.87673 2.29023 7.27683C2.74307 7.36152 3.20914 7.34375 3.65423 7.22483C2.97071 7.08623 2.35614 6.71558 1.91466 6.17568C1.47318 5.63578 1.23194 4.95985 1.23183 4.26243V4.22483C1.65118 4.45811 2.1202 4.58784 2.59983 4.60323C1.95972 4.1765 1.50661 3.52157 1.33296 2.77211C1.15931 2.02266 1.27822 1.23519 1.66543 0.57043C2.42366 1.5036 3.36971 2.26683 4.44213 2.81055C5.51455 3.35427 6.68935 3.66632 7.89023 3.72643C7.83827 3.50052 7.81224 3.26943 7.81263 3.03763C7.81263 2.64118 7.89073 2.24862 8.04246 1.88235C8.1942 1.51609 8.41661 1.18331 8.69698 0.903016C8.97735 0.622721 9.31019 0.400404 9.67649 0.248763C10.0428 0.0971208 10.4354 0.019125 10.8318 0.0192301C11.245 0.0185563 11.6539 0.102782 12.0332 0.266683C12.4124 0.430583 12.754 0.670663 13.0366 0.97203C13.7127 0.838189 14.3612 0.590393 14.9542 0.23923C14.7287 0.938594 14.2567 1.53221 13.6262 1.90963C14.2248 1.83867 14.8094 1.67849 15.3606 1.43443C14.9557 2.04118 14.4452 2.57036 13.8534 2.99683Z" fill="#515151"/>
</svg>
