<svg width="16" height="16" viewBox="0 0 16 16" fill="none" xmlns="http://www.w3.org/2000/svg">
<path d="M13.6008 0.799988H2.40078C1.52078 0.799988 0.800781 1.51999 0.800781 2.39999V13.6C0.800781 14.4808 1.52078 15.2 2.40078 15.2H13.6008C14.4808 15.2 15.2008 14.4808 15.2008 13.6V2.39999C15.2008 1.51999 14.4808 0.799988 13.6008 0.799988ZM7.98798 12.4184C9.16307 12.4182 10.29 11.9512 11.1208 11.1202C11.9516 10.2892 12.4184 9.16228 12.4184 7.98719C12.4184 7.71679 12.384 7.45599 12.336 7.19999H13.6008V12.9728C13.6008 13.0455 13.5864 13.1175 13.5585 13.1846C13.5306 13.2517 13.4898 13.3127 13.4383 13.364C13.3867 13.4153 13.3256 13.4559 13.2584 13.4835C13.1911 13.5111 13.1191 13.5251 13.0464 13.5248H2.95518C2.88249 13.5251 2.81045 13.5111 2.7432 13.4835C2.67595 13.4559 2.61482 13.4153 2.56331 13.364C2.51179 13.3127 2.47092 13.2517 2.44303 13.1846C2.41514 13.1175 2.40078 13.0455 2.40078 12.9728V7.19999H3.63998C3.59118 7.45599 3.55678 7.71679 3.55678 7.98719C3.55699 9.16235 4.02392 10.2893 4.85488 11.1203C5.68585 11.9513 6.81282 12.4182 7.98798 12.4184ZM5.21918 7.98719C5.21918 7.62358 5.2908 7.26354 5.42994 6.92761C5.56909 6.59169 5.77304 6.28646 6.03014 6.02935C6.28725 5.77224 6.59248 5.5683 6.92841 5.42915C7.26433 5.29 7.62438 5.21839 7.98798 5.21839C8.35159 5.21839 8.71163 5.29 9.04755 5.42915C9.38348 5.5683 9.68871 5.77224 9.94582 6.02935C10.2029 6.28646 10.4069 6.59169 10.546 6.92761C10.6852 7.26354 10.7568 7.62358 10.7568 7.98719C10.7568 8.72152 10.4651 9.42577 9.94582 9.94503C9.42657 10.4643 8.72231 10.756 7.98798 10.756C7.25365 10.756 6.5494 10.4643 6.03014 9.94503C5.51089 9.42577 5.21918 8.72152 5.21918 7.98719ZM13.0464 4.79999H11.7544C11.6077 4.79957 11.4671 4.7411 11.3634 4.63738C11.2597 4.53365 11.2012 4.39308 11.2008 4.24639V2.95279C11.2008 2.64719 11.4488 2.39999 11.7536 2.39999H13.0456C13.3528 2.39999 13.6008 2.64719 13.6008 2.95279V4.24559C13.6008 4.55039 13.3528 4.79999 13.0464 4.79999Z" fill="#515151"/>
</svg>
