<svg width="16" height="16" viewBox="0 0 16 16" fill="none" xmlns="http://www.w3.org/2000/svg">
<path d="M4.00078 2.39999C4.00078 3.24959 3.43278 3.98079 2.39998 3.98079C1.42798 3.98079 0.800781 3.29119 0.800781 2.44159C0.800781 1.56959 1.40878 0.799988 2.40078 0.799988C3.39278 0.799988 3.98158 1.52799 4.00078 2.39999ZM0.800781 15.2V4.79999H4.00078V15.2H0.800781ZM5.60078 8.35519C5.60078 7.11919 5.55998 6.08639 5.51918 5.19439H8.39438L8.53678 6.57279H8.59758C9.00238 5.92399 9.99438 4.97279 11.6552 4.97279C13.6808 4.97279 15.2008 6.32879 15.2008 9.24639V15.2H12.0008V9.71119C12.0008 8.43599 11.5152 7.46319 10.4008 7.46319C9.55118 7.46319 9.12558 8.15119 8.90238 8.71839C8.82078 8.92159 8.80078 9.20479 8.80078 9.48879V15.2H5.60078V8.35519Z" fill="#515151"/>
</svg>
