<svg width="24" height="24" viewBox="0 0 24 24" fill="none" xmlns="http://www.w3.org/2000/svg">
<path d="M21 10.9999H3C2.4 10.9999 2 11.3999 2 11.9999C2 12.5999 2.4 12.9999 3 12.9999H21C21.6 12.9999 22 12.5999 22 11.9999C22 11.3999 21.6 10.9999 21 10.9999ZM17 14.9999H7C6.7 14.9999 6.5 15.0999 6.3 15.2999C5.9 15.6999 5.9 16.2999 6.3 16.6999L11.3 21.6999C11.5 21.8999 11.7 21.9999 12 21.9999C12.3 21.9999 12.5 21.8999 12.7 21.6999L17.7 16.6999C17.9 16.4999 18 16.2999 18 15.9999C18 15.3999 17.6 14.9999 17 14.9999ZM15.4 7.9999C15.4 8.5999 15.8 8.9999 16.4 8.9999H17C17.3 8.9999 17.5 8.8999 17.7 8.6999C18.1 8.2999 18.1 7.6999 17.7 7.2999L17 6.5999C16.7 6.2999 16.2 6.1999 15.8 6.3999C15.3 6.5999 15.1 7.1999 15.4 7.6999C15.4 7.8999 15.4 7.8999 15.4 7.9999ZM11.6 4.7999L12 4.3999L12.8 5.1999C13 5.3999 13.2 5.4999 13.5 5.4999C13.8 5.4999 14 5.3999 14.2 5.1999C14.6 4.7999 14.6 4.1999 14.2 3.7999L13.1 2.6999C13 2.5999 12.9 2.5999 12.8 2.4999C12.8 2.3999 12.7 2.2999 12.6 2.1999C12.2 1.7999 11.6 1.7999 11.2 2.1999L10.1 3.2999C9.7 3.6999 9.7 4.2999 10.1 4.6999C10.5 5.0999 11.3 5.1999 11.6 4.7999ZM7.1 8.9999C7.4 8.9999 7.6 8.8999 7.8 8.6999L8.9 7.5999C9.3 7.1999 9.3 6.5999 8.9 6.1999C8.5 5.7999 7.9 5.7999 7.5 6.1999L6.3 7.1999C6.2 7.3999 6.1 7.6999 6.1 7.8999C6.1 8.4999 6.5 8.8999 7.1 8.9999ZM10.9 8.9999H12.4C13 8.9999 13.4 8.5999 13.4 7.9999C13.4 7.3999 13 6.9999 12.4 6.9999H10.9C10.3 6.9999 9.9 7.3999 9.9 7.9999C9.9 8.5999 10.4 8.9999 10.9 8.9999Z" fill="black"/>
</svg>
