<svg width="24" height="24" viewBox="0 0 24 24" fill="none" xmlns="http://www.w3.org/2000/svg">
<path d="M7.4 7.19996C7.5 7.19996 7.6 7.19996 7.6 7.19996L9.5 6.69996C10 6.59996 10.4 5.99996 10.2 5.49996C10.1 4.99996 9.5 4.59996 9 4.79996L7.1 5.19996C6.7 5.29996 6.3 5.69996 6.3 6.19996C6.4 6.69996 6.8 7.19996 7.4 7.19996ZM9.5 8.99996H7.5C6.9 8.99996 6.5 9.39996 6.5 9.99996C6.5 10.6 6.9 11 7.5 11H9.5C10.1 11 10.5 10.6 10.5 9.99996C10.5 9.39996 10.1 8.99996 9.5 8.99996ZM13.2 5.69996C13.3 5.69996 13.4 5.69996 13.4 5.69996L15.3 5.19996C15.9 4.99996 16.3 4.49996 16.1 3.99996C16 3.49996 15.4 3.09996 14.9 3.29996L13 3.69996C12.6 3.79996 12.2 4.19996 12.2 4.69996C12.2 5.19996 12.7 5.69996 13.2 5.69996ZM13.5 8.99996C12.9 8.99996 12.5 9.39996 12.5 9.99996C12.5 10.6 12.9 11 13.5 11H15.5C16.1 11 16.5 10.6 16.5 9.99996C16.5 9.39996 16.1 8.99996 15.5 8.99996H13.5ZM21 2.79996C20.9 2.29996 20.3 1.89996 19.8 2.09996L18.8 2.29996C18.4 2.39996 18 2.79996 18 3.29996C18 3.89996 18.4 4.29996 19 4.29996C19.1 4.69996 19.5 4.99996 20 4.99996C20.6 4.99996 21 4.59996 21 3.99996V2.99996C21 2.89996 21 2.79996 21 2.79996ZM4 10.5C4.6 10.5 5 10.1 5 9.49996V7.49996C5 6.89996 4.6 6.49996 4 6.49996C3.4 6.49996 3 6.99996 3 7.49996V9.49996C3 10.1 3.4 10.5 4 10.5ZM20 6.99996C19.4 6.99996 19 7.39996 19 7.99996V9.09996C18.7 9.29996 18.5 9.59996 18.5 9.99996C18.5 10.6 18.9 11 19.5 11H20C20.6 11 21 10.6 21 9.99996V7.99996C21 7.39996 20.6 6.99996 20 6.99996ZM20 13H4C3.4 13 3 13.4 3 14V17C3 17.5 3.3 17.9 3.8 18L19.8 22C19.9 22 20 22 20 22C20.6 22 21 21.6 21 21V14C21 13.4 20.6 13 20 13Z" fill="black"/>
</svg>
