<svg width="24" height="24" viewBox="0 0 24 24" fill="none" xmlns="http://www.w3.org/2000/svg">
<path d="M6 16C5.4 16 5 16.4 5 17C5 17.6 5.4 18 6 18C6.6 18 7 17.6 7 17C7 16.4 6.6 16 6 16ZM2 17C1.4 17 1 17.4 1 18C1 18.6 1.4 19 2 19C2.6 19 3 18.6 3 18C3 17.4 2.6 17 2 17ZM5 20C4.4 20 4 20.4 4 21C4 21.6 4.4 22 5 22C5.6 22 6 21.6 6 21C6 20.4 5.6 20 5 20ZM16.2 1.99999C12.2 1.89999 9 4.89999 8.9 8.89999C8.9 8.99999 8.9 8.99999 8.9 9.09999L7.1 12.9C6.9 13.4 7.1 14 7.6 14.2C7.7 14.3 7.9 14.3 8 14.3H8.9V16.1C8.9 17.2 9.8 18 10.8 18H11.7V19.8C11.7 20.4 12.1 20.8 12.7 20.8C13.3 20.8 20.7 20.8 21.1 20.8C21.2 20.8 21.3 20.8 21.4 20.8C21.9 20.6 22.2 20.1 22.1 19.6L21.2 16.6L23 9.79999C23 9.69999 23 9.59999 23 9.49999V9.29999C23 5.39999 20 2.19999 16.2 1.99999Z" fill="black"/>
</svg>
