<svg width="24" height="24" viewBox="0 0 24 24" fill="none" xmlns="http://www.w3.org/2000/svg">
<path d="M13.2 2.00008C11.2 1.90008 9.2 2.70008 7.7 4.10008C6.3 5.50008 5.5 7.40008 5.5 9.50008L3.7 12.5001C3.6 12.7001 3.5 12.8001 3.5 13.0001C3.5 13.1001 3.5 13.2001 3.6 13.3001L5 17.2001V17.3001C5.5 18.3001 6.5 19.0001 7.7 19.0001H8.5V21.0001C8.5 21.6001 8.9 22.0001 9.5 22.0001C10.1 22.0001 10.5 21.6001 10.5 21.0001V19.0001H12.5C12.6 19.0001 12.7 19.0001 12.8 18.9001L16.5 17.6001V17.7001L17.5 21.2001C17.6 21.6001 18 21.9001 18.5 21.9001C18.6 21.9001 18.7 21.9001 18.8 21.9001C19.3 21.7001 19.6 21.2001 19.5 20.7001L18.6 17.5001L20.5 10.2001C20.5 10.1001 20.5 10.0001 20.5 9.90008V9.80009C20.5 5.70009 17.3 2.20008 13.2 2.00008ZM17 15.4001L13.5 16.6001V13.7001L17.8 12.3001L17 15.4001ZM18.4 10.0001C18.3 10.0001 18.2 10.0001 18.1 10.0001L12.3 12.0001H6.3L7.4 10.3001C7.5 10.1001 7.6 9.90008 7.5 9.70008V9.50008C7.5 6.50008 10 4.00008 13 4.00008C13.1 4.00008 13.1 4.00008 13.2 4.00008C16.2 4.20008 18.6 6.70009 18.5 9.80009L18.4 10.0001Z" fill="black"/>
</svg>
