<svg width="24" height="24" viewBox="0 0 24 24" fill="none" xmlns="http://www.w3.org/2000/svg">
<path d="M13.2 2.00008C11.2 1.90008 9.19996 2.70008 7.69996 4.10008C6.29996 5.50008 5.49996 7.50008 5.49996 9.50008L3.59996 13.5001C3.39996 14.0001 3.59996 14.6001 4.09996 14.8001C4.19996 15.0001 4.39996 15.0001 4.49996 15.0001H5.49996V17.0001C5.49996 18.1001 6.39996 19.0001 7.49996 19.0001H8.49996V21.0001C8.49996 21.6001 8.89996 22.0001 9.49996 22.0001C10.1 22.0001 18.1 22.0001 18.5 22.0001C18.6 22.0001 18.7 22.0001 18.8 22.0001C19.3 21.8001 19.6 21.3001 19.5 20.8001L18.6 17.6001L20.5 10.3001C20.5 10.2001 20.5 10.1001 20.5 10.0001V9.80009C20.5 5.70009 17.3 2.20008 13.2 2.00008Z" fill="black"/>
</svg>
