<svg width="24" height="24" viewBox="0 0 24 24" fill="none" xmlns="http://www.w3.org/2000/svg">
<path d="M16.4 3.3C12.5 1.1 7.69998 1.8 4.59998 4.8V3C4.59998 2.4 4.19998 2 3.59998 2C2.99998 2 2.59998 2.4 2.59998 3V7.5C2.59998 8.1 2.99998 8.5 3.59998 8.5H8.09998C8.69998 8.5 9.09998 8.1 9.09998 7.5C9.09998 6.9 8.69998 6.5 8.09998 6.5H5.69998C7.09998 4.9 9.19998 4 11.5 4C15.9 4 19.5 7.6 19.5 12C19.5 16.4 15.9 20 11.5 20C10.9 20 10.5 20.4 10.5 21C10.5 21.6 10.9 22 11.5 22C15.1 22 18.4 20.1 20.2 17C22.9 12.2 21.2 6.1 16.4 3.3ZM11.4 8C10.8 8 10.4 8.4 10.4 9V12C10.4 12.6 10.8 13 11.4 13H13.4C14 13 14.4 12.6 14.4 12C14.4 11.4 14 11 13.4 11H12.4V9C12.4 8.4 12 8 11.4 8Z" fill="black"/>
</svg>
