<svg width="24" height="24" viewBox="0 0 24 24" fill="none" xmlns="http://www.w3.org/2000/svg">
<path d="M20 21.0002H14.8C14.9 20.8002 14.9 20.6002 14.9 20.4002C17.9 19.2002 19.9 16.3002 19.9 13.0002C19.9 11.0002 19.1 9.10024 17.8 7.60024L18.4 7.00024C18.5 6.90024 18.6 6.80024 18.6 6.60024L19.3 4.50024C19.4 4.10024 19.3 3.70024 19.1 3.50024L17 1.40024C16.7 1.10024 16.3 1.00024 16 1.20024L14 1.80024C13.9 1.80024 13.7 1.90024 13.6 2.00024L7.2 8.40024C6.8 8.80024 6.8 9.40024 7.2 9.80024L5.8 11.2002C5.4 11.6002 5.4 12.2002 5.8 12.6002L7.9 14.7002C8.3 15.1002 8.9 15.1002 9.3 14.7002L10.7 13.3002C11.1 13.7002 11.7 13.7002 12.1 13.3002L16.5 9.00024C17.5 10.1002 18 11.5002 18 13.0002C18 15.3002 16.6 17.4002 14.5 18.4002C13.6 17.0002 11.8 16.5002 10.4 17.4002C10 17.7002 9.6 18.0002 9.4 18.5002C9 18.3002 8.6 18.2002 8.3 17.9002C8.7 17.8002 9 17.4002 9 17.0002C9 16.4002 8.6 16.0002 8 16.0002H4C3.4 16.0002 3 16.4002 3 17.0002C3 17.6002 3.4 18.0002 4 18.0002H5.3C6.3 19.1002 7.6 20.0002 9 20.5002C9 20.7002 9.1 20.9002 9.1 21.0002H4C3.4 21.0002 3 21.4002 3 22.0002C3 22.6002 3.4 23.0002 4 23.0002H20C20.6 23.0002 21 22.6002 21 22.0002C21 21.5002 20.6 21.0002 20 21.0002ZM8.6 12.6002L7.9 11.9002L8.6 11.2002L9.3 11.9002L8.6 12.6002ZM12 21.0002C11.4 21.0002 11 20.6002 11 20.0002C11 19.4002 11.4 19.0002 12 19.0002C12.6 19.0002 13 19.4002 13 20.0002C13 20.6002 12.6 21.0002 12 21.0002Z" fill="black"/>
</svg>
