<svg width="24" height="24" viewBox="0 0 24 24" fill="none" xmlns="http://www.w3.org/2000/svg">
<path d="M18.1 12.4001L11.9 18.6001C10.2 20.3001 7.49998 20.3001 5.89998 18.6001C4.19998 16.9001 4.19998 14.2001 5.89998 12.6001L13.9 4.6001C14.9 3.7001 16.4 3.7001 17.4 4.6001C18.4 5.6001 18.4 7.2001 17.4 8.1001L10.5 15.0001C10.2 15.3001 9.69998 15.3001 9.39998 15.0001C9.09998 14.7001 9.09998 14.2001 9.39998 13.9001L14.5 8.8001C14.9 8.4001 14.9 7.8001 14.5 7.4001C14.1 7.0001 13.5 7.0001 13.1 7.4001L7.99998 12.6001C6.89998 13.7001 6.89998 15.4001 7.99998 16.5001C9.09998 17.5001 10.8 17.5001 11.9 16.5001L18.8 9.6001C20.6 7.8001 20.6 5.0001 18.8 3.2001C17 1.4001 14.2 1.4001 12.4 3.2001L4.39998 11.2001C3.19998 12.4001 2.59998 14.0001 2.59998 15.6001C2.59998 19.1001 5.39998 21.8001 8.89998 21.8001C10.6 21.8001 12.1 21.1001 13.3 20.0001L19.5 13.8001C19.9 13.4001 19.9 12.8001 19.5 12.4001C19.1 12.0001 18.5 12.0001 18.1 12.4001Z" fill="black"/>
</svg>
