<svg width="24" height="24" viewBox="0 0 24 24" fill="none" xmlns="http://www.w3.org/2000/svg">
<path d="M22.6 2.09988C22.5 1.79988 22.2 1.49988 21.9 1.39988C17.7001 0.299882 13.4 1.59988 10.5 4.99988L9.40005 6.29988L6.70005 5.69988C5.40005 5.19988 4.00005 5.79988 3.40005 6.99988L1.20005 10.8999C1.00005 11.1999 1.00005 11.4999 1.20005 11.7999C1.30005 12.0999 1.60005 12.2999 1.90005 12.3999L5.00005 13.0999C4.70005 13.8999 4.60005 14.6999 4.40005 15.4999C4.40005 15.7999 4.50005 16.0999 4.70005 16.2999L7.80005 19.3999C8.00005 19.5999 8.20005 19.6999 8.50005 19.6999H8.60005C9.50005 19.5999 10.3 19.4999 11.1 19.1999L11.7 22.1999C11.8 22.4999 12 22.7999 12.3 22.8999C12.4 22.9999 12.6 22.9999 12.7 22.9999C12.9 22.9999 13 22.9999 13.2 22.8999L17.1 20.6999C18.2001 20.0999 18.8 18.6999 18.5 17.3999L17.8 14.5999L19 13.4999C22.3 10.6999 23.7001 6.19988 22.6 2.09988ZM7.30005 8.79988C6.70005 9.59988 6.10005 10.3999 5.70005 11.1999L3.60005 10.6999L5.10005 7.99988C5.30005 7.59988 5.70005 7.49988 6.20005 7.59988L7.90005 7.99988L7.30005 8.79988ZM16 18.8999L13.3 20.3999L12.9 18.3999C13.8 17.9999 14.6 17.3999 15.3 16.7999L16 16.0999L16.4 17.7999C16.6 18.2999 16.3 18.7999 16 18.8999ZM16.7 8.79988C15.9 8.79988 15.2 8.09988 15.2 7.29988C15.2 6.49988 15.9 5.79988 16.7 5.79988C17.5 5.79988 18.2001 6.49988 18.2001 7.29988C18.2001 8.09988 17.6 8.79988 16.7 8.79988Z" fill="black"/>
</svg>
