<svg width="24" height="24" viewBox="0 0 24 24" fill="none" xmlns="http://www.w3.org/2000/svg">
<path d="M22.6 7.1001L16.9 1.4001C16.5 1.0001 15.9 1.0001 15.5 1.4001L1.39998 15.5001C0.999976 15.9001 0.999976 16.5001 1.39998 16.9001L7.09998 22.6001C7.49998 23.0001 8.09998 23.0001 8.49998 22.6001L10.6 20.5001L7.09998 17.0001C6.69998 16.6001 6.69998 16.0001 7.09998 15.6001C7.49998 15.2001 8.09998 15.2001 8.49998 15.6001L12 19.1001L13.4 17.7001L11.3 15.6001C10.9 15.2001 10.9 14.6001 11.3 14.2001C11.7 13.8001 12.3 13.8001 12.7 14.2001L14.8 16.3001L16.2 14.9001L12.7 11.4001C12.3 11.0001 12.3 10.4001 12.7 10.0001C13.1 9.6001 13.7 9.6001 14.1 10.0001L17.6 13.5001L19 12.1001L16.9 10.0001C16.5 9.6001 16.5 9.0001 16.9 8.6001C17.3 8.2001 17.9 8.2001 18.3 8.6001L20.4 10.7001L22.5 8.6001C23 8.1001 23 7.4001 22.6 7.1001Z" fill="black"/>
</svg>
