<svg width="24" height="24" viewBox="0 0 24 24" fill="none" xmlns="http://www.w3.org/2000/svg">
<path d="M16 8V5C16 4.4 15.6 4 15 4H14V3H15C15.6 3 16 2.6 16 2C16 1.4 15.6 1 15 1H10.2C8.49996 1 6.89996 2 6.09996 3.6C5.89996 4 6.09996 4.6 6.59996 4.9C7.09996 5.1 7.69996 4.9 7.89996 4.5C8.29996 3.6 9.19996 3 10.2 3H12V4H11C10.4 4 9.99996 4.4 9.99996 5V8C8.29996 8 6.99996 9.3 6.99996 11V20C6.99996 21.7 8.29996 23 9.99996 23H16C17.7 23 19 21.7 19 20V11C19 9.3 17.7 8 16 8ZM12 6H14V8H12V6ZM14 17H12C11.4 17 11 16.6 11 16C11 15.4 11.4 15 12 15H14C14.6 15 15 15.4 15 16C15 16.6 14.6 17 14 17Z" fill="black"/>
</svg>
