<svg width="24" height="24" viewBox="0 0 24 24" fill="none" xmlns="http://www.w3.org/2000/svg">
<path d="M16.2 12.8998C16.1 12.8998 16.2 12.8998 16.2 12.8998C16 12.7998 15.9 12.6998 15.7 12.6998C18.3 10.6998 18.8 6.89981 16.7 4.29981C14.6 1.69981 10.9 1.19981 8.3 3.29981C5.7 5.39981 5.2 9.09981 7.3 11.6998C7.6 12.0998 7.9 12.3998 8.3 12.6998C8.2 12.7998 8 12.7998 7.9 12.8998C7.9 12.8998 7.9 12.8998 7.8 12.8998C4.6 14.3998 2.4 17.3998 2 20.8998C2 21.3998 2.4 21.8998 3 21.9998H21C21.5 21.8998 21.9 21.3998 21.9 20.8998C21.6 17.3998 19.4 14.3998 16.2 12.8998ZM8 7.5998C8.2 5.3998 10.2 3.79981 12.3 3.99981C14.2 4.19981 15.7 5.6998 15.9 7.5998H8ZM12 16.1998L10.1 14.2998C11.4 13.9998 12.7 13.9998 14 14.2998L12 16.1998Z" fill="black"/>
</svg>
