<svg width="24" height="24" viewBox="0 0 24 24" fill="none" xmlns="http://www.w3.org/2000/svg">
<path d="M19.47 10.5399C18.9961 9.48569 18.2278 8.59076 17.2574 7.96276C16.287 7.33476 15.1559 7.00042 14 6.99994C13.5311 7.00372 13.0644 7.06416 12.61 7.17994C12.0408 6.37648 11.247 5.75897 10.3283 5.40485C9.40951 5.05074 8.40663 4.97578 7.44543 5.18938C6.48423 5.40298 5.6075 5.89563 4.92518 6.60554C4.24286 7.31545 3.78534 8.21103 3.61 9.17994C2.95574 9.41548 2.40362 9.87098 2.04805 10.4686C1.69248 11.0662 1.55554 11.7687 1.66065 12.4561C1.76577 13.1435 2.10641 13.773 2.62432 14.237C3.14223 14.701 3.80525 14.9707 4.5 14.9999H5.5C5.48957 15.1664 5.48957 15.3334 5.5 15.4999C5.5 16.4282 5.86875 17.3184 6.52513 17.9748C7.18151 18.6312 8.07174 18.9999 9 18.9999H18.17C19.2043 18.9998 20.2043 18.6294 20.9892 17.9558C21.7741 17.2822 22.2919 16.3499 22.449 15.3276C22.6061 14.3053 22.3921 13.2605 21.8456 12.3824C21.2992 11.5042 20.4565 10.8506 19.47 10.5399ZM4.5 12.9999C4.23478 12.9999 3.98043 12.8946 3.79289 12.707C3.60536 12.5195 3.5 12.2652 3.5 11.9999C3.5 11.7347 3.60536 11.4804 3.79289 11.2928C3.98043 11.1053 4.23478 10.9999 4.5 10.9999C4.76522 10.9999 5.01957 10.8946 5.20711 10.707C5.39464 10.5195 5.5 10.2652 5.5 9.99994C5.5 9.20429 5.81607 8.44122 6.37868 7.87862C6.94129 7.31601 7.70435 6.99994 8.5 6.99994C8.91938 7.00219 9.33363 7.09234 9.71601 7.26459C10.0984 7.43683 10.4404 7.68734 10.72 7.99994C10.0103 8.46169 9.40641 9.06842 8.94795 9.78023C8.4895 10.492 8.18688 11.2928 8.06 12.1299C7.49477 12.2891 6.97885 12.5884 6.56 12.9999H4.5ZM18.17 16.9999H9C8.60218 16.9999 8.22065 16.8419 7.93934 16.5606C7.65804 16.2793 7.5 15.8978 7.5 15.4999C7.5 15.1021 7.65804 14.7206 7.93934 14.4393C8.22065 14.158 8.60218 13.9999 9 13.9999C9.26522 13.9999 9.51957 13.8946 9.70711 13.707C9.89464 13.5195 10 13.2652 10 12.9999C10.0043 12.0556 10.3425 11.1433 10.9548 10.4244C11.5672 9.70552 12.4141 9.22644 13.3457 9.07198C14.2772 8.91751 15.2335 9.09761 16.045 9.58041C16.8566 10.0632 17.4712 10.8175 17.78 11.7099C17.8372 11.8818 17.9399 12.0349 18.0773 12.1529C18.2147 12.2709 18.3815 12.3494 18.56 12.3799C19.1276 12.4861 19.6356 12.7992 19.9854 13.2585C20.3353 13.7179 20.5021 14.2909 20.4535 14.8662C20.405 15.4416 20.1445 15.9785 19.7225 16.3727C19.3006 16.7669 18.7474 16.9905 18.17 16.9999Z" fill="black"/>
</svg>
