<svg width="24" height="24" viewBox="0 0 24 24" fill="none" xmlns="http://www.w3.org/2000/svg">
<path d="M21.7 7.99994C21.5785 7.87996 21.4284 7.79308 21.2638 7.74757C21.0993 7.70206 20.9258 7.69943 20.76 7.73994C20.5469 7.79024 20.3289 7.81707 20.11 7.81994C19.3144 7.81994 18.5513 7.50387 17.9887 6.94126C17.4261 6.37865 17.11 5.61559 17.11 4.81994C17.1125 4.59768 17.1394 4.37636 17.19 4.15994C17.2305 3.99409 17.2279 3.82063 17.1824 3.65609C17.1369 3.49155 17.05 3.3414 16.93 3.21994C16.8115 3.09809 16.664 3.00844 16.5013 2.95945C16.3386 2.91046 16.166 2.90374 16 2.93994C15.0078 3.16957 14.1094 3.69672 13.4249 4.45087C12.7405 5.20501 12.3026 6.15018 12.17 7.15994C11.6278 6.9998 11.0653 6.91896 10.5 6.91994C9.06626 6.91732 7.67897 7.42819 6.58936 8.36005C5.49974 9.29191 4.77984 10.5831 4.56 11.9999C3.81733 12.2104 3.16444 12.6592 2.70186 13.2772C2.23929 13.8952 1.99268 14.648 2 15.4199C2.00037 15.9629 2.12813 16.4981 2.37302 16.9827C2.61791 17.4673 2.97309 17.8876 3.41 18.2099C3.51491 18.2974 3.63661 18.3624 3.76761 18.401C3.89861 18.4396 4.03613 18.4509 4.17168 18.4343C4.30723 18.4177 4.43795 18.3736 4.55578 18.3045C4.6736 18.2355 4.77604 18.143 4.85677 18.0329C4.9375 17.9227 4.99481 17.7972 5.02518 17.6641C5.05554 17.5309 5.05831 17.393 5.03331 17.2587C5.00832 17.1244 4.95609 16.9967 4.87985 16.8834C4.8036 16.7701 4.70496 16.6737 4.59 16.5999C4.40594 16.4634 4.25661 16.2854 4.15412 16.0804C4.05162 15.8754 3.99882 15.6491 4 15.4199C4 15.0221 4.15803 14.6406 4.43934 14.3593C4.72064 14.078 5.10217 13.9199 5.5 13.9199C5.76521 13.9199 6.01957 13.8146 6.2071 13.627C6.39464 13.4395 6.5 13.1852 6.5 12.9199C6.50183 12.2018 6.69699 11.4973 7.06498 10.8806C7.43297 10.2638 7.96022 9.75756 8.59137 9.41487C9.22252 9.07219 9.93429 8.90575 10.6519 8.93304C11.3696 8.96032 12.0667 9.18032 12.67 9.56994C13.4021 10.0425 13.9548 10.7466 14.24 11.5699C14.2987 11.7399 14.4021 11.8909 14.5393 12.0071C14.6766 12.1232 14.8427 12.2002 15.02 12.2299C15.5172 12.3119 15.9743 12.5529 16.323 12.9166C16.6717 13.2804 16.893 13.7474 16.9538 14.2476C17.0147 14.7478 16.9117 15.2542 16.6604 15.6909C16.4091 16.1277 16.023 16.4712 15.56 16.6699C15.4389 16.7221 15.3293 16.7977 15.2376 16.8925C15.1458 16.9872 15.0737 17.0991 15.0254 17.2218C14.977 17.3444 14.9535 17.4755 14.956 17.6073C14.9585 17.7391 14.987 17.8692 15.04 17.9899C15.1181 18.1688 15.2468 18.3209 15.4102 18.4276C15.5737 18.5342 15.7648 18.5906 15.96 18.5899C16.0981 18.5879 16.2343 18.5572 16.36 18.4999C17.1375 18.1611 17.7984 17.6014 18.2606 16.8903C18.7228 16.1792 18.966 15.348 18.96 14.4999C18.9639 13.8031 18.7956 13.1161 18.47 12.4999C19.325 12.2738 20.1036 11.8223 20.7245 11.1926C21.3454 10.5629 21.7859 9.77801 22 8.91994C22.0319 8.75373 22.0212 8.58214 21.9687 8.42123C21.9162 8.26033 21.8238 8.11537 21.7 7.99994ZM17.11 10.8199C16.9702 10.8308 16.8298 10.8308 16.69 10.8199C16.4593 10.6963 16.2184 10.5926 15.97 10.5099C15.5634 9.60979 14.9377 8.82591 14.15 8.22994C14.15 8.10994 14.15 7.97994 14.15 7.85994C14.15 7.42661 14.2438 6.99843 14.4251 6.60484C14.6063 6.21125 14.8707 5.8616 15.2 5.57994C15.3568 6.64498 15.8532 7.63096 16.6153 8.39128C17.3774 9.15159 18.3646 9.64564 19.43 9.79994C19.1402 10.1271 18.7824 10.387 18.3817 10.5615C17.981 10.736 17.5469 10.8207 17.11 10.8099V10.8199ZM12.5 16.9199H11.73L12.12 16.2499C12.2526 16.0192 12.2881 15.7452 12.2187 15.4883C12.1493 15.2314 11.9807 15.0125 11.75 14.8799C11.5193 14.7473 11.2453 14.7118 10.9884 14.7812C10.7314 14.8506 10.5126 15.0192 10.38 15.2499L10 15.9199L9.62 15.2499C9.48739 15.0192 9.26855 14.8506 9.01163 14.7812C8.7547 14.7118 8.48074 14.7473 8.25 14.8799C8.01926 15.0125 7.85065 15.2314 7.78126 15.4883C7.71187 15.7452 7.74739 16.0192 7.88 16.2499L8.27 16.9199H7.5C7.23478 16.9199 6.98043 17.0253 6.79289 17.2128C6.60536 17.4004 6.5 17.6547 6.5 17.9199C6.5 18.1852 6.60536 18.4395 6.79289 18.627C6.98043 18.8146 7.23478 18.9199 7.5 18.9199H8.27L7.88 19.5799C7.74739 19.8107 7.71187 20.0846 7.78126 20.3416C7.85065 20.5985 8.01926 20.8173 8.25 20.9499C8.48074 21.0825 8.7547 21.1181 9.01163 21.0487C9.26855 20.9793 9.48739 20.8107 9.62 20.5799L10 19.9199L10.38 20.5799C10.4457 20.6942 10.5332 20.7944 10.6376 20.8748C10.7419 20.9552 10.8612 21.0143 10.9884 21.0487C11.1156 21.083 11.2483 21.092 11.379 21.0751C11.5097 21.0581 11.6357 21.0156 11.75 20.9499C11.8642 20.8843 11.9644 20.7968 12.0449 20.6924C12.1253 20.588 12.1844 20.4688 12.2187 20.3416C12.2531 20.2143 12.2621 20.0816 12.2451 19.9509C12.2282 19.8203 12.1857 19.6942 12.12 19.5799L11.73 18.9199H12.5C12.7652 18.9199 13.0196 18.8146 13.2071 18.627C13.3946 18.4395 13.5 18.1852 13.5 17.9199C13.5 17.6547 13.3946 17.4004 13.2071 17.2128C13.0196 17.0253 12.7652 16.9199 12.5 16.9199Z" fill="black"/>
</svg>
