<svg width="24" height="24" viewBox="0 0 24 24" fill="none" xmlns="http://www.w3.org/2000/svg">
<path d="M2.71999 7.6501C2.91555 7.70752 3.10354 7.78809 3.27999 7.8901C3.89981 8.26003 4.60817 8.45535 5.32999 8.45535C6.05181 8.45535 6.76018 8.26003 7.37999 7.8901C7.77045 7.66926 8.21141 7.5532 8.65999 7.5532C9.10858 7.5532 9.54953 7.66926 9.93999 7.8901C10.5673 8.24879 11.2774 8.43748 12 8.43748C12.7226 8.43748 13.4327 8.24879 14.06 7.8901C14.4505 7.66926 14.8914 7.5532 15.34 7.5532C15.7886 7.5532 16.2295 7.66926 16.62 7.8901C17.2537 8.25229 17.9701 8.44515 18.7 8.4501C19.4052 8.44865 20.0966 8.25504 20.7 7.8901C20.8764 7.78809 21.0644 7.70752 21.26 7.6501C21.5146 7.57584 21.7293 7.40348 21.8568 7.17093C21.9843 6.93839 22.0143 6.66471 21.94 6.4101C21.8657 6.15549 21.6934 5.94081 21.4608 5.81329C21.2283 5.68576 20.9546 5.65584 20.7 5.7301C20.3494 5.8383 20.0135 5.98945 19.7 6.1801C19.3814 6.36639 19.019 6.46458 18.65 6.46458C18.281 6.46458 17.9186 6.36639 17.6 6.1801C16.9066 5.79117 16.125 5.58691 15.33 5.58691C14.535 5.58691 13.7533 5.79117 13.06 6.1801C12.738 6.36715 12.3723 6.46568 12 6.46568C11.6276 6.46568 11.2619 6.36715 10.94 6.1801C10.2466 5.79117 9.46498 5.58691 8.66999 5.58691C7.875 5.58691 7.09335 5.79117 6.39999 6.1801C6.08143 6.36639 5.71903 6.46458 5.34999 6.46458C4.98095 6.46458 4.61856 6.36639 4.29999 6.1801C3.98649 5.98945 3.6506 5.8383 3.29999 5.7301C3.04538 5.65584 2.7717 5.68576 2.53916 5.81329C2.30661 5.94081 2.13425 6.15549 2.05999 6.4101C1.98573 6.66471 2.01565 6.93839 2.14318 7.17093C2.2707 7.40348 2.48538 7.57584 2.73999 7.6501H2.71999ZM20.72 15.7301C20.3694 15.8383 20.0335 15.9894 19.72 16.1801C19.4014 16.3664 19.039 16.4646 18.67 16.4646C18.301 16.4646 17.9386 16.3664 17.62 16.1801C16.9266 15.7912 16.145 15.5869 15.35 15.5869C14.555 15.5869 13.7733 15.7912 13.08 16.1801C12.758 16.3672 12.3923 16.4657 12.02 16.4657C11.6476 16.4657 11.2819 16.3672 10.96 16.1801C10.2666 15.7912 9.48498 15.5869 8.68999 15.5869C7.895 15.5869 7.11335 15.7912 6.41999 16.1801C6.10143 16.3664 5.73903 16.4646 5.36999 16.4646C5.00095 16.4646 4.63856 16.3664 4.31999 16.1801C4.00649 15.9894 3.6706 15.8383 3.31999 15.7301C3.19392 15.6933 3.06185 15.6818 2.9313 15.696C2.80076 15.7103 2.6743 15.7501 2.55916 15.8133C2.44401 15.8764 2.34243 15.9616 2.26022 16.064C2.178 16.1664 2.11676 16.284 2.07999 16.4101C2.04322 16.5362 2.03164 16.6682 2.04592 16.7988C2.06019 16.9293 2.10004 17.0558 2.16318 17.1709C2.22632 17.2861 2.31153 17.3877 2.41393 17.4699C2.51633 17.5521 2.63392 17.6133 2.75999 17.6501C2.95555 17.7075 3.14354 17.7881 3.31999 17.8901C3.93981 18.26 4.64817 18.4554 5.36999 18.4554C6.09181 18.4554 6.80018 18.26 7.41999 17.8901C7.81045 17.6693 8.25141 17.5532 8.69999 17.5532C9.14858 17.5532 9.58953 17.6693 9.97999 17.8901C10.6073 18.2488 11.3174 18.4375 12.04 18.4375C12.7626 18.4375 13.4727 18.2488 14.1 17.8901C14.4905 17.6693 14.9314 17.5532 15.38 17.5532C15.8286 17.5532 16.2695 17.6693 16.66 17.8901C17.2937 18.2523 18.0101 18.4452 18.74 18.4501C19.4452 18.4486 20.1366 18.255 20.74 17.8901C20.9164 17.7881 21.1044 17.7075 21.3 17.6501C21.5546 17.5758 21.7693 17.4035 21.8968 17.1709C22.0243 16.9384 22.0543 16.6647 21.98 16.4101C21.9057 16.1555 21.7334 15.9408 21.5008 15.8133C21.2683 15.6858 20.9946 15.6558 20.74 15.7301H20.72ZM20.72 10.7301C20.3694 10.8383 20.0335 10.9894 19.72 11.1801C19.4014 11.3664 19.039 11.4646 18.67 11.4646C18.301 11.4646 17.9386 11.3664 17.62 11.1801C16.9266 10.7912 16.145 10.5869 15.35 10.5869C14.555 10.5869 13.7733 10.7912 13.08 11.1801C12.758 11.3672 12.3923 11.4657 12.02 11.4657C11.6476 11.4657 11.2819 11.3672 10.96 11.1801C10.2666 10.7912 9.48498 10.5869 8.68999 10.5869C7.895 10.5869 7.11335 10.7912 6.41999 11.1801C6.10143 11.3664 5.73903 11.4646 5.36999 11.4646C5.00095 11.4646 4.63856 11.3664 4.31999 11.1801C4.00649 10.9894 3.6706 10.8383 3.31999 10.7301C3.18905 10.6807 3.0492 10.6593 2.90947 10.6673C2.76974 10.6753 2.63325 10.7126 2.50883 10.7767C2.38441 10.8408 2.27483 10.9303 2.18718 11.0394C2.09953 11.1485 2.03576 11.2748 1.99999 11.4101C1.96322 11.5362 1.95164 11.6682 1.96592 11.7988C1.98019 11.9293 2.02004 12.0558 2.08318 12.1709C2.14632 12.2861 2.23153 12.3877 2.33393 12.4699C2.43633 12.5521 2.55392 12.6133 2.67999 12.6501C2.87555 12.7075 3.06354 12.7881 3.23999 12.8901C3.85981 13.26 4.56817 13.4554 5.28999 13.4554C6.01181 13.4554 6.72018 13.26 7.33999 12.8901C7.73045 12.6693 8.17141 12.5532 8.61999 12.5532C9.06858 12.5532 9.50953 12.6693 9.89999 12.8901C10.5273 13.2488 11.2374 13.4375 11.96 13.4375C12.6826 13.4375 13.3927 13.2488 14.02 12.8901C14.4105 12.6693 14.8514 12.5532 15.3 12.5532C15.7486 12.5532 16.1895 12.6693 16.58 12.8901C17.2137 13.2523 17.9301 13.4452 18.66 13.4501C19.3652 13.4486 20.0566 13.255 20.66 12.8901C20.8364 12.7881 21.0244 12.7075 21.22 12.6501C21.4746 12.5758 21.6893 12.4035 21.8168 12.1709C21.9443 11.9384 21.9743 11.6647 21.9 11.4101C21.8257 11.1555 21.6534 10.9408 21.4208 10.8133C21.1883 10.6858 20.9146 10.6558 20.66 10.7301H20.72Z" fill="black"/>
</svg>
