<svg width="24" height="24" viewBox="0 0 24 24" fill="none" xmlns="http://www.w3.org/2000/svg">
<path d="M11.29 9.70994C11.383 9.80367 11.4936 9.87806 11.6154 9.92883C11.7373 9.9796 11.868 10.0057 12 10.0057C12.132 10.0057 12.2627 9.9796 12.3846 9.92883C12.5064 9.87806 12.617 9.80367 12.71 9.70994L17.71 4.70994C17.8983 4.52164 18.0041 4.26624 18.0041 3.99994C18.0041 3.73364 17.8983 3.47825 17.71 3.28994C17.5217 3.10164 17.2663 2.99585 17 2.99585C16.7337 2.99585 16.4783 3.10164 16.29 3.28994L12 7.58994L7.71 3.28994C7.5217 3.10164 7.2663 2.99585 7 2.99585C6.7337 2.99585 6.47831 3.10164 6.29 3.28994C6.1017 3.47825 5.99591 3.73364 5.99591 3.99994C5.99591 4.26624 6.1017 4.52164 6.29 4.70994L11.29 9.70994ZM12.71 14.2899C12.617 14.1962 12.5064 14.1218 12.3846 14.0711C12.2627 14.0203 12.132 13.9941 12 13.9941C11.868 13.9941 11.7373 14.0203 11.6154 14.0711C11.4936 14.1218 11.383 14.1962 11.29 14.2899L6.29 19.2899C6.1017 19.4782 5.99591 19.7336 5.99591 19.9999C5.99591 20.2662 6.1017 20.5216 6.29 20.7099C6.47831 20.8982 6.7337 21.004 7 21.004C7.2663 21.004 7.5217 20.8982 7.71 20.7099L12 16.4099L16.29 20.7099C16.383 20.8037 16.4936 20.8781 16.6154 20.9288C16.7373 20.9796 16.868 21.0057 17 21.0057C17.132 21.0057 17.2627 20.9796 17.3846 20.9288C17.5064 20.8781 17.617 20.8037 17.71 20.7099C17.8037 20.617 17.8781 20.5064 17.9289 20.3845C17.9797 20.2627 18.0058 20.132 18.0058 19.9999C18.0058 19.8679 17.9797 19.7372 17.9289 19.6154C17.8781 19.4935 17.8037 19.3829 17.71 19.2899L12.71 14.2899Z" fill="black"/>
</svg>
