<svg width="24" height="24" viewBox="0 0 24 24" fill="none" xmlns="http://www.w3.org/2000/svg">
<path d="M20.92 6.61994C20.8724 6.49719 20.801 6.38505 20.71 6.28994L17.71 3.28994C17.6168 3.1967 17.5061 3.12274 17.3843 3.07228C17.2624 3.02182 17.1319 2.99585 17 2.99585C16.7337 2.99585 16.4783 3.10164 16.29 3.28994C16.1017 3.47825 15.9959 3.73364 15.9959 3.99994C15.9959 4.26624 16.1017 4.52164 16.29 4.70994L17.59 5.99994H9C8.20435 5.99994 7.44129 6.31601 6.87868 6.87862C6.31607 7.44123 6 8.20429 6 8.99994V17.5899L4.71 16.2899C4.5217 16.1016 4.2663 15.9958 4 15.9958C3.7337 15.9958 3.47831 16.1016 3.29 16.2899C3.1017 16.4782 2.99591 16.7336 2.99591 16.9999C2.99591 17.2662 3.1017 17.5216 3.29 17.7099L6.29 20.7099C6.38511 20.801 6.49725 20.8723 6.62 20.9199C6.7397 20.9728 6.86913 21.0002 7 21.0002C7.13087 21.0002 7.2603 20.9728 7.38 20.9199C7.50275 20.8723 7.6149 20.801 7.71 20.7099L10.71 17.7099C10.8983 17.5216 11.0041 17.2662 11.0041 16.9999C11.0041 16.7336 10.8983 16.4782 10.71 16.2899C10.5217 16.1016 10.2663 15.9958 10 15.9958C9.7337 15.9958 9.47831 16.1016 9.29 16.2899L8 17.5899V8.99994C8 8.73472 8.10536 8.48037 8.2929 8.29283C8.48043 8.1053 8.73479 7.99994 9 7.99994H17.59L16.29 9.28994C16.1963 9.3829 16.1219 9.49351 16.0711 9.61536C16.0203 9.73722 15.9942 9.86793 15.9942 9.99994C15.9942 10.132 16.0203 10.2627 16.0711 10.3845C16.1219 10.5064 16.1963 10.617 16.29 10.7099C16.383 10.8037 16.4936 10.8781 16.6154 10.9288C16.7373 10.9796 16.868 11.0057 17 11.0057C17.132 11.0057 17.2627 10.9796 17.3846 10.9288C17.5064 10.8781 17.617 10.8037 17.71 10.7099L20.71 7.70994C20.801 7.61484 20.8724 7.50269 20.92 7.37994C21.02 7.13648 21.02 6.8634 20.92 6.61994Z" fill="black"/>
</svg>
