<svg width="24" height="24" viewBox="0 0 24 24" fill="none" xmlns="http://www.w3.org/2000/svg">
<path d="M4.71 6.28994C4.5217 6.10164 4.2663 5.99585 4 5.99585C3.7337 5.99585 3.4783 6.10164 3.29 6.28994C3.1017 6.47825 2.99591 6.73364 2.99591 6.99994C2.99591 7.26624 3.1017 7.52164 3.29 7.70994L7.59 11.9999L3.29 16.2899C3.19627 16.3829 3.12188 16.4935 3.07111 16.6154C3.02034 16.7372 2.9942 16.8679 2.9942 16.9999C2.9942 17.132 3.02034 17.2627 3.07111 17.3845C3.12188 17.5064 3.19627 17.617 3.29 17.7099C3.38296 17.8037 3.49356 17.8781 3.61542 17.9288C3.73728 17.9796 3.86799 18.0057 4 18.0057C4.13201 18.0057 4.26272 17.9796 4.38458 17.9288C4.50644 17.8781 4.61704 17.8037 4.71 17.7099L9.71 12.7099C9.80373 12.617 9.87812 12.5064 9.92889 12.3845C9.97966 12.2627 10.0058 12.132 10.0058 11.9999C10.0058 11.8679 9.97966 11.7372 9.92889 11.6154C9.87812 11.4935 9.80373 11.3829 9.71 11.2899L4.71 6.28994ZM16.41 11.9999L20.71 7.70994C20.8983 7.52164 21.0041 7.26624 21.0041 6.99994C21.0041 6.73364 20.8983 6.47825 20.71 6.28994C20.5217 6.10164 20.2663 5.99585 20 5.99585C19.7337 5.99585 19.4783 6.10164 19.29 6.28994L14.29 11.2899C14.1963 11.3829 14.1219 11.4935 14.0711 11.6154C14.0203 11.7372 13.9942 11.8679 13.9942 11.9999C13.9942 12.132 14.0203 12.2627 14.0711 12.3845C14.1219 12.5064 14.1963 12.617 14.29 12.7099L19.29 17.7099C19.383 17.8037 19.4936 17.8781 19.6154 17.9288C19.7373 17.9796 19.868 18.0057 20 18.0057C20.132 18.0057 20.2627 17.9796 20.3846 17.9288C20.5064 17.8781 20.617 17.8037 20.71 17.7099C20.8037 17.617 20.8781 17.5064 20.9289 17.3845C20.9797 17.2627 21.0058 17.132 21.0058 16.9999C21.0058 16.8679 20.9797 16.7372 20.9289 16.6154C20.8781 16.4935 20.8037 16.3829 20.71 16.2899L16.41 11.9999Z" fill="black"/>
</svg>
