<svg width="24" height="24" viewBox="0 0 24 24" fill="none" xmlns="http://www.w3.org/2000/svg">
<path d="M17 11H5.41L7.71 8.71C7.80324 8.61676 7.8772 8.50607 7.92766 8.38425C7.97812 8.26243 8.00409 8.13186 8.00409 8C8.00409 7.86814 7.97812 7.73757 7.92766 7.61575C7.8772 7.49393 7.80324 7.38324 7.71 7.29C7.61676 7.19676 7.50607 7.1228 7.38425 7.07234C7.26243 7.02188 7.13186 6.99591 7 6.99591C6.86814 6.99591 6.73758 7.02188 6.61575 7.07234C6.49393 7.1228 6.38324 7.19676 6.29 7.29L2.29 11.29C2.19896 11.3851 2.1276 11.4972 2.08 11.62C1.97999 11.8635 1.97999 12.1365 2.08 12.38C2.1276 12.5028 2.19896 12.6149 2.29 12.71L6.29 16.71C6.38297 16.8037 6.49357 16.8781 6.61543 16.9289C6.73729 16.9797 6.86799 17.0058 7 17.0058C7.13202 17.0058 7.26272 16.9797 7.38458 16.9289C7.50644 16.8781 7.61704 16.8037 7.71 16.71C7.80373 16.617 7.87813 16.5064 7.92889 16.3846C7.97966 16.2627 8.0058 16.132 8.0058 16C8.0058 15.868 7.97966 15.7373 7.92889 15.6154C7.87813 15.4936 7.80373 15.383 7.71 15.29L5.41 13H17C17.2652 13 17.5196 12.8946 17.7071 12.7071C17.8946 12.5196 18 12.2652 18 12C18 11.7348 17.8946 11.4804 17.7071 11.2929C17.5196 11.1054 17.2652 11 17 11ZM21 4C20.7348 4 20.4804 4.10536 20.2929 4.29289C20.1054 4.48043 20 4.73478 20 5V19C20 19.2652 20.1054 19.5196 20.2929 19.7071C20.4804 19.8946 20.7348 20 21 20C21.2652 20 21.5196 19.8946 21.7071 19.7071C21.8946 19.5196 22 19.2652 22 19V5C22 4.73478 21.8946 4.48043 21.7071 4.29289C21.5196 4.10536 21.2652 4 21 4V4Z" fill="black"/>
</svg>
