<svg width="24" height="24" viewBox="0 0 24 24" fill="none" xmlns="http://www.w3.org/2000/svg">
<path d="M18.69 2.00007C18.4248 2.00007 18.1704 2.10542 17.9829 2.29296C17.7954 2.4805 17.69 2.73485 17.69 3.00007V13.3701C17.69 13.9005 17.4793 14.4092 17.1042 14.7843C16.7291 15.1594 16.2204 15.3701 15.69 15.3701H7.69L10.61 12.4501C10.7808 12.2637 10.8747 12.0196 10.8728 11.7668C10.8709 11.514 10.7733 11.2713 10.5997 11.0876C10.4261 10.9038 10.1893 10.7927 9.93707 10.7764C9.68479 10.7602 9.43573 10.8401 9.24 11.0001L4.61 15.6601C4.51872 15.757 4.44436 15.8685 4.39 15.9901C4.28998 16.2335 4.28998 16.5066 4.39 16.7501C4.44057 16.8737 4.51537 16.9859 4.61 17.0801L9.24 21.7101C9.42626 21.8948 9.67766 21.999 9.94 22.0001C10.0716 22.0008 10.2021 21.9756 10.3239 21.9258C10.4457 21.8761 10.5566 21.8027 10.65 21.7101C10.7437 21.6171 10.8181 21.5065 10.8689 21.3846C10.9197 21.2628 10.9458 21.1321 10.9458 21.0001C10.9458 20.8681 10.9197 20.7374 10.8689 20.6155C10.8181 20.4936 10.7437 20.383 10.65 20.2901L7.73 17.3701H15.73C16.7909 17.3701 17.8083 16.9486 18.5584 16.1985C19.3086 15.4483 19.73 14.4309 19.73 13.3701V3.00007C19.7301 2.86531 19.703 2.73192 19.6502 2.60791C19.5975 2.48391 19.5202 2.37184 19.4231 2.27843C19.326 2.18503 19.211 2.11223 19.085 2.06439C18.959 2.01656 18.8246 1.99468 18.69 2.00007Z" fill="black"/>
</svg>
