<svg width="24" height="24" viewBox="0 0 24 24" fill="none" xmlns="http://www.w3.org/2000/svg">
<path d="M17.71 11.2899L12.71 6.2899C12.6149 6.19886 12.5028 6.12749 12.38 6.0799C12.1365 5.97988 11.8635 5.97988 11.62 6.0799C11.4973 6.12749 11.3851 6.19886 11.29 6.2899L6.29 11.2899C6.19676 11.3831 6.1228 11.4938 6.07234 11.6156C6.02188 11.7375 5.99591 11.868 5.99591 11.9999C5.99591 12.2662 6.1017 12.5216 6.29 12.7099C6.47831 12.8982 6.7337 13.004 7 13.004C7.2663 13.004 7.5217 12.8982 7.71 12.7099L11 9.4099V16.9999C11 17.2651 11.1054 17.5195 11.2929 17.707C11.4804 17.8945 11.7348 17.9999 12 17.9999C12.2652 17.9999 12.5196 17.8945 12.7071 17.707C12.8946 17.5195 13 17.2651 13 16.9999V9.4099L16.29 12.7099C16.383 12.8036 16.4936 12.878 16.6154 12.9288C16.7373 12.9796 16.868 13.0057 17 13.0057C17.132 13.0057 17.2627 12.9796 17.3846 12.9288C17.5064 12.878 17.617 12.8036 17.71 12.7099C17.8037 12.6169 17.8781 12.5063 17.9289 12.3845C17.9797 12.2626 18.0058 12.1319 18.0058 11.9999C18.0058 11.8679 17.9797 11.7372 17.9289 11.6153C17.8781 11.4935 17.8037 11.3829 17.71 11.2899Z" fill="black"/>
</svg>
