<svg width="24" height="24" viewBox="0 0 24 24" fill="none" xmlns="http://www.w3.org/2000/svg">
<path d="M15.29 16.2899L13 18.5899V5.4099L15.29 7.7099C15.383 7.80362 15.4936 7.87802 15.6154 7.92879C15.7373 7.97956 15.868 8.00569 16 8.00569C16.132 8.00569 16.2627 7.97956 16.3846 7.92879C16.5064 7.87802 16.617 7.80362 16.71 7.7099C16.8037 7.61693 16.8781 7.50633 16.9289 7.38447C16.9797 7.26261 17.0058 7.13191 17.0058 6.9999C17.0058 6.86788 16.9797 6.73718 16.9289 6.61532C16.8781 6.49346 16.8037 6.38286 16.71 6.2899L12.71 2.2899C12.6149 2.19886 12.5028 2.12749 12.38 2.0799C12.1365 1.97988 11.8635 1.97988 11.62 2.0799C11.4973 2.12749 11.3851 2.19886 11.29 2.2899L7.29 6.2899C7.19676 6.38314 7.1228 6.49383 7.07234 6.61565C7.02188 6.73747 6.99591 6.86804 6.99591 6.9999C6.99591 7.13176 7.02188 7.26232 7.07234 7.38415C7.1228 7.50597 7.19676 7.61666 7.29 7.7099C7.38324 7.80314 7.49393 7.8771 7.61575 7.92756C7.73758 7.97802 7.86814 8.00399 8 8.00399C8.13186 8.00399 8.26243 7.97802 8.38425 7.92756C8.50607 7.8771 8.61676 7.80314 8.71 7.7099L11 5.4099V18.5899L8.71 16.2899C8.5217 16.1016 8.2663 15.9958 8 15.9958C7.7337 15.9958 7.47831 16.1016 7.29 16.2899C7.1017 16.4782 6.99591 16.7336 6.99591 16.9999C6.99591 17.2662 7.1017 17.5216 7.29 17.7099L11.29 21.7099C11.3851 21.8009 11.4973 21.8723 11.62 21.9199C11.7397 21.9728 11.8691 22.0001 12 22.0001C12.1309 22.0001 12.2603 21.9728 12.38 21.9199C12.5028 21.8723 12.6149 21.8009 12.71 21.7099L16.71 17.7099C16.8983 17.5216 17.0041 17.2662 17.0041 16.9999C17.0041 16.7336 16.8983 16.4782 16.71 16.2899C16.6168 16.1967 16.5061 16.1227 16.3843 16.0722C16.2624 16.0218 16.1319 15.9958 16 15.9958C15.7337 15.9958 15.4783 16.1016 15.29 16.2899V16.2899Z" fill="black"/>
</svg>
