<svg width="24" height="24" viewBox="0 0 24 24" fill="none" xmlns="http://www.w3.org/2000/svg">
<path d="M14.9754 3.01891L15.9352 1.28732C15.9475 1.26511 15.9553 1.24068 15.9582 1.21545C15.9611 1.19021 15.9589 1.16465 15.9519 1.14024C15.9449 1.11582 15.9332 1.09302 15.9174 1.07314C15.9016 1.05326 15.882 1.03669 15.8598 1.02438C15.8149 0.999506 15.762 0.993475 15.7127 1.00761C15.6634 1.02175 15.6217 1.0549 15.5968 1.09976L14.6264 2.85054C13.7984 2.48755 12.9041 2.30014 12 2.30014C11.0959 2.30014 10.2017 2.48755 9.37365 2.85054L8.40317 1.09976C8.3783 1.0549 8.33662 1.02175 8.28731 1.00761C8.238 0.993475 8.18509 0.999506 8.14022 1.02438C8.09536 1.04925 8.06221 1.09093 8.04807 1.14024C8.03394 1.18955 8.03997 1.24246 8.06484 1.28732L9.02469 3.01892C8.11102 3.46929 7.33903 4.16259 6.7934 5.02277C6.24777 5.88296 5.94958 6.87679 5.93153 7.89527H18.0685C18.0505 6.87679 17.7523 5.88295 17.2067 5.02277C16.661 4.16258 15.889 3.46928 14.9754 3.01891V3.01891ZM9.19912 5.67451C9.09888 5.67451 9.0009 5.64479 8.91756 5.5891C8.83421 5.53341 8.76926 5.45426 8.7309 5.36166C8.69254 5.26905 8.6825 5.16715 8.70206 5.06884C8.72161 4.97053 8.76988 4.88023 8.84076 4.80935C8.91163 4.73847 9.00194 4.69021 9.10025 4.67065C9.19856 4.6511 9.30046 4.66113 9.39306 4.69949C9.48567 4.73785 9.56482 4.80281 9.62051 4.88615C9.6762 4.96949 9.70592 5.06748 9.70592 5.16771C9.70577 5.30208 9.65233 5.4309 9.55731 5.52591C9.4623 5.62092 9.33348 5.67436 9.19912 5.67451V5.67451ZM14.8009 5.67451C14.7007 5.67451 14.6027 5.64479 14.5193 5.5891C14.436 5.53341 14.371 5.45426 14.3327 5.36166C14.2943 5.26905 14.2843 5.16715 14.3038 5.06884C14.3234 4.97053 14.3717 4.88023 14.4425 4.80935C14.5134 4.73847 14.6037 4.69021 14.702 4.67065C14.8003 4.6511 14.9022 4.66113 14.9948 4.69949C15.0874 4.73785 15.1666 4.80281 15.2223 4.88615C15.278 4.96949 15.3077 5.06748 15.3077 5.16771C15.3075 5.30208 15.2541 5.4309 15.1591 5.52591C15.0641 5.62092 14.9353 5.67436 14.8009 5.67451V5.67451ZM5.93144 17.1715C5.93144 17.5606 6.08601 17.9338 6.36115 18.2089C6.63629 18.4841 7.00946 18.6386 7.39857 18.6386H8.37217V21.6396C8.37168 21.8186 8.40652 21.9959 8.47467 22.1614C8.54282 22.3268 8.64295 22.4772 8.76933 22.604C8.89571 22.7307 9.04585 22.8312 9.21115 22.8998C9.37645 22.9684 9.55366 23.0037 9.73263 23.0037C9.91159 23.0037 10.0888 22.9684 10.2541 22.8998C10.4194 22.8312 10.5695 22.7307 10.6959 22.604C10.8223 22.4772 10.9224 22.3268 10.9906 22.1614C11.0587 21.9959 11.0936 21.8186 11.0931 21.6396V18.6386H12.9069V21.6396C12.9065 21.8186 12.9413 21.9959 13.0094 22.1614C13.0776 22.3268 13.1777 22.4772 13.3041 22.604C13.4305 22.7307 13.5806 22.8312 13.7459 22.8998C13.9112 22.9684 14.0884 23.0037 14.2674 23.0037C14.4464 23.0037 14.6236 22.9684 14.7889 22.8998C14.9542 22.8312 15.1043 22.7307 15.2307 22.604C15.3571 22.4772 15.4572 22.3268 15.5254 22.1614C15.5935 21.9959 15.6283 21.8186 15.6278 21.6396V18.6386H16.6015C16.9906 18.6386 17.3638 18.4841 17.6389 18.2089C17.914 17.9338 18.0686 17.5606 18.0686 17.1715V8.37537H5.93144V17.1715ZM4.06416 8.14196C3.70347 8.14237 3.35767 8.28584 3.10263 8.54089C2.84758 8.79593 2.70412 9.14173 2.70371 9.50242V15.1709C2.70322 15.3499 2.73806 15.5272 2.80621 15.6926C2.87436 15.8581 2.97449 16.0085 3.10087 16.1353C3.22725 16.262 3.37739 16.3625 3.54269 16.4311C3.70799 16.4997 3.8852 16.535 4.06416 16.535C4.24313 16.535 4.42034 16.4997 4.58564 16.4311C4.75094 16.3625 4.90108 16.262 5.02746 16.1353C5.15384 16.0085 5.25397 15.8581 5.32212 15.6926C5.39027 15.5272 5.42511 15.3499 5.42462 15.1709V9.50242C5.42421 9.14173 5.28075 8.79593 5.0257 8.54088C4.77065 8.28584 4.42485 8.14237 4.06416 8.14196V8.14196ZM19.9359 8.14196C19.5752 8.14237 19.2294 8.28584 18.9743 8.54088C18.7193 8.79593 18.5758 9.14173 18.5754 9.50242V15.1709C18.5749 15.3499 18.6097 15.5272 18.6779 15.6926C18.746 15.8581 18.8462 16.0085 18.9726 16.1353C19.0989 16.262 19.2491 16.3625 19.4144 16.4311C19.5797 16.4997 19.7569 16.535 19.9359 16.535C20.1148 16.535 20.292 16.4997 20.4573 16.4311C20.6226 16.3625 20.7728 16.262 20.8991 16.1353C21.0255 16.0085 21.1257 15.8581 21.1938 15.6926C21.262 15.5272 21.2968 15.3499 21.2963 15.1709V9.50242C21.2959 9.14173 21.1524 8.79593 20.8974 8.54089C20.6423 8.28584 20.2965 8.14237 19.9359 8.14196V8.14196Z" fill="black"/>
</svg>
