<svg width="24" height="24" viewBox="0 0 24 24" fill="none" xmlns="http://www.w3.org/2000/svg">
<path d="M20.5044 15.7436C19.8926 15.482 19.3714 15.0458 19.006 14.4897C18.6406 13.9336 18.4471 13.2821 18.4497 12.6166C18.4576 12.0227 18.6167 11.4405 18.912 10.925C19.2072 10.4095 19.6289 9.97773 20.1372 9.67036C20.2522 9.59928 20.3516 9.50562 20.4294 9.39504C20.5072 9.28446 20.5618 9.15925 20.5898 9.02699C20.6178 8.89472 20.6187 8.75814 20.5925 8.62552C20.5662 8.49289 20.5133 8.36697 20.437 8.25536C19.9801 7.59082 19.3843 7.03337 18.6909 6.62148C17.9976 6.20958 17.2231 5.95306 16.4209 5.86963C17.1675 4.68476 17.5063 3.28832 17.3858 1.89305C17.3622 1.63969 17.2414 1.4053 17.0488 1.23906C16.8562 1.07282 16.6066 0.987662 16.3526 1.00145C14.6355 1.15448 13.0438 1.96434 11.9092 3.26219C11.19 4.09557 10.6824 5.09018 10.4297 6.1616C9.90752 5.98488 9.36081 5.89129 8.80958 5.88426C7.78907 5.91318 6.79334 6.20529 5.91894 6.73227C5.04454 7.25926 4.32114 8.00322 3.81886 8.89205C1.93116 12.1694 3.08595 17.0805 5.13086 20.0366C5.95117 21.2211 7.18213 22.9995 9.03906 22.9995C9.07568 22.9995 9.11279 22.9995 9.1499 22.9975C9.77208 22.9622 10.3812 22.8045 10.9424 22.5336C11.3906 22.3064 11.8852 22.1854 12.3877 22.1801C12.8603 22.1858 13.325 22.3015 13.7451 22.518C14.359 22.8084 15.028 22.9639 15.707 22.974C17.6201 22.9379 18.75 21.2875 19.5752 20.0814C20.2263 19.1235 20.7358 18.0765 21.0879 16.973C21.1629 16.7323 21.1446 16.4721 21.0365 16.2443C20.9283 16.0165 20.7384 15.8377 20.5044 15.7436V15.7436ZM13.4234 4.56787C13.9486 3.98036 14.6067 3.527 15.3428 3.24561C15.1817 4.03784 14.8254 4.77733 14.3062 5.39697C13.9537 5.81984 13.5249 6.17267 13.042 6.43705L13.0391 6.43805C13.0108 6.44977 12.9824 6.46051 12.9541 6.47223C12.7676 6.54547 12.5371 6.63629 12.3594 6.69488C12.531 5.9082 12.8968 5.17699 13.4234 4.56787V4.56787ZM17.9248 18.9526C17.1211 20.1265 16.4888 20.9595 15.6704 20.9741C15.2748 20.9729 14.8859 20.8725 14.5391 20.6821C13.8687 20.3555 13.1334 20.1839 12.3877 20.1801C11.6161 20.184 10.8549 20.3591 10.1592 20.6928C9.82093 20.8655 9.45189 20.9697 9.07325 20.9994H9.04347C8.23047 20.9994 7.35597 19.7368 6.7754 18.8979C5.32276 16.7983 3.98292 12.6147 5.55226 9.89008C5.88135 9.30048 6.35725 8.80597 6.93379 8.45453C7.51034 8.10309 8.16794 7.90665 8.84278 7.88428L8.87647 7.88328C9.44575 7.93166 10.0017 8.08217 10.5176 8.32762C10.6489 8.37937 10.7783 8.43113 10.9068 8.47898C10.9395 8.49266 10.9732 8.50535 11.0073 8.51609C11.3632 8.65922 11.7412 8.73951 12.1245 8.7534C12.6673 8.71026 13.1974 8.56759 13.6885 8.3325C14.3808 7.99652 15.1418 7.82634 15.9112 7.83543C16.7342 7.86763 17.5243 8.16728 18.1617 8.68895C17.617 9.19081 17.1833 9.80108 16.8884 10.4805C16.5936 11.16 16.4442 11.8936 16.4498 12.6343V12.6353C16.4441 13.5319 16.666 14.4153 17.0947 15.2028C17.5234 15.9903 18.1448 16.6562 18.9009 17.1382C18.6376 17.7744 18.3106 18.3823 17.9248 18.9526V18.9526Z" fill="black"/>
</svg>
