<svg width="24" height="24" viewBox="0 0 24 24" fill="none" xmlns="http://www.w3.org/2000/svg">
<path d="M21.9512 15.6144C21.3339 15.4707 20.7518 15.2043 20.2396 14.831C19.7274 14.4577 19.2955 13.9852 18.9697 13.4415C18.8211 13.2219 18.5912 13.0703 18.3308 13.0201C18.0704 12.9699 17.8007 13.0253 17.5811 13.1739C17.3614 13.3226 17.2098 13.5524 17.1597 13.8128C17.1095 14.0733 17.1648 14.343 17.3135 14.5626C17.933 15.5077 18.7532 16.3046 19.7158 16.8966C19.581 16.922 19.4346 16.9464 19.2744 16.9718C18.9899 17.0323 18.7322 17.182 18.5387 17.3991C18.3451 17.6161 18.2259 17.8893 18.1982 18.1788C17.5316 18.0651 16.8507 18.0638 16.1836 18.1749C15.4643 18.3337 14.7931 18.6614 14.2256 19.1309C13.6417 19.6487 12.901 19.9554 12.1221 20.002H11.8613C11.0815 19.9553 10.34 19.6478 9.75585 19.129C9.19638 18.6656 8.53565 18.3404 7.82714 18.1798C7.15132 18.0719 6.46255 18.0732 5.78714 18.1837C5.76077 17.8956 5.64372 17.6232 5.45281 17.4058C5.26189 17.1884 5.00695 17.0371 4.72464 16.9737C4.56741 16.9493 4.42288 16.9249 4.29007 16.8995C4.9698 16.5063 5.57693 15.9993 6.08499 15.4005C6.31946 15.1286 6.53173 14.8382 6.71976 14.5323C6.86009 14.3075 6.90543 14.0362 6.84582 13.778C6.78621 13.5198 6.62653 13.2958 6.40186 13.1552C6.17719 13.0147 5.90591 12.9691 5.64764 13.0284C5.38936 13.0878 5.16521 13.2473 5.02444 13.4718C4.89123 13.6885 4.74136 13.8945 4.5762 14.088C3.93711 14.8882 3.03067 15.4309 2.02347 15.6163C1.73114 15.6626 1.46549 15.8133 1.2757 16.0404C1.08591 16.2676 0.984844 16.5557 0.991204 16.8517C0.990868 17.0356 1.03017 17.2175 1.10644 17.3849C1.42187 18.1007 2.26171 18.5529 3.89061 18.8595L3.92187 18.9894C3.95019 19.1075 3.97948 19.2276 4.01366 19.337C4.09033 19.6148 4.25792 19.8589 4.48965 20.0303C4.72139 20.2017 5.00388 20.2904 5.29198 20.2823C5.49555 20.2771 5.69779 20.248 5.89452 20.1954C6.41763 20.0894 6.95504 20.0739 7.48339 20.1495C7.89773 20.2722 8.28077 20.4827 8.60644 20.7667C9.52577 21.5257 10.6699 21.9599 11.8613 22.0021H12.1221C13.3209 21.9581 14.4716 21.5194 15.3955 20.7541C15.7227 20.4693 16.1094 20.2611 16.5273 20.1447C16.7333 20.1085 16.9422 20.0908 17.1513 20.092C17.4727 20.0914 17.7931 20.1271 18.1064 20.1984C18.3094 20.2363 18.5152 20.2576 18.7216 20.2619C19.0025 20.2695 19.2778 20.1827 19.5035 20.0154C19.7292 19.8481 19.8923 19.61 19.9668 19.3391C20.0048 19.217 20.0341 19.0998 20.0615 18.9846L20.0927 18.8606C21.7167 18.5549 22.5595 18.1057 22.8603 17.4201C22.9364 17.2712 22.9797 17.1077 22.9873 16.9406C23.0121 16.63 22.9193 16.3213 22.7275 16.0758C22.5356 15.8302 22.2586 15.6655 21.9512 15.6144V15.6144ZM3.80175 11.1485C4.00636 11.1873 4.21795 11.1615 4.40725 11.0747C4.59655 10.9879 4.7542 10.8445 4.85839 10.6642C5.25448 10.8658 5.68887 10.9809 6.1328 11.002C6.60382 11.0083 7.05841 10.8291 7.39843 10.503C7.506 10.4027 7.59013 10.2799 7.64482 10.1434C7.6995 10.0068 7.72341 9.85989 7.71483 9.71305L7.6787 9.11149C7.5149 7.92461 7.56786 6.71786 7.83499 5.5499C8.17246 4.78276 8.72873 4.13221 9.43416 3.6797C10.1396 3.22719 10.9628 2.99283 11.8008 3.00596L12.1885 3.00205C13.0257 2.99087 13.8477 3.22643 14.5519 3.67935C15.2561 4.13227 15.8114 4.78249 16.1485 5.54893C16.4157 6.71786 16.4686 7.92555 16.3048 9.11338L16.295 9.27647L16.2677 9.71983C16.2621 9.86424 16.2871 10.0082 16.3409 10.1423C16.3948 10.2764 16.4763 10.3977 16.5802 10.4981C16.9167 10.8227 17.3665 11.0031 17.8341 11.0011C18.268 10.9632 18.69 10.839 19.0753 10.6358C19.1534 10.8138 19.2816 10.9651 19.4442 11.0714C19.6069 11.1777 19.797 11.2344 19.9913 11.2345H20.0089C20.2741 11.2298 20.5266 11.12 20.7108 10.9291C20.895 10.7383 20.9959 10.4821 20.9913 10.2169C20.9653 9.88295 20.8378 9.56493 20.6259 9.30553C20.414 9.04613 20.1278 8.85776 19.8057 8.76572C19.5712 8.66966 19.3198 8.62115 19.0664 8.623C18.8129 8.62484 18.5623 8.67701 18.3292 8.77647C18.5044 7.41935 18.3834 6.04037 17.9747 4.73447C17.4826 3.6114 16.6703 2.65835 15.6394 1.99448C14.6085 1.33062 13.4048 0.985412 12.1788 1.00204L11.7862 1.00595C10.5633 0.991003 9.36302 1.33679 8.33549 2.0001C7.30795 2.6634 6.49867 3.61482 6.00878 4.73545C5.59696 6.05889 5.47701 7.4559 5.65722 8.83018C5.62304 8.81455 5.58593 8.79698 5.54589 8.77842C5.30154 8.67954 5.03935 8.63235 4.77585 8.63982C4.51235 8.6473 4.25325 8.70927 4.01489 8.82185C3.77653 8.93442 3.56408 9.09515 3.39092 9.2939C3.21776 9.49266 3.08765 9.72513 3.00878 9.97666C2.95881 10.2372 3.01424 10.5069 3.16291 10.7266C3.31157 10.9463 3.54133 11.098 3.80175 11.1485Z" fill="black"/>
</svg>
